<?xml version="1.0" encoding="UTF-8"?>
<svg version="1.1" viewBox="0 0 1600 1600" width="1280" height="1280" xmlns="http://www.w3.org/2000/svg">
<path transform="translate(671 -.302)" d="m0 0c8.61 0.00185 17.2-1.9e-5 25.8-0.00421 1.87-8.93e-4 1.87-8.93e-4 3.78-0.0018 2.54-0.00121 5.07-0.00243 7.61-0.00364 23.5-0.0108 47.1-0.00877 70.6-0.00262 21.3 0.00516 42.6-0.00609 63.9-0.0251 22.1-0.0196 44.3-0.0276 66.4-0.0239 12.3 0.00188 24.7-3.33e-4 37-0.0147 90.7-0.0997 182 0.805 362 23.4 1.1 0.226 2.19 0.452 3.32 0.686 50.9 10.7 102 28.5 144 60.3 0.571 0.43 1.14 0.86 1.73 1.3 7.88 5.95 15.3 12.3 22.4 19.1 2.77 2.65 2.77 2.65 5.71 4.85 0.703 0.587 1.41 1.17 2.13 1.78v2c0.99 0.33 1.98 0.66 3 1 1.47 1.46 1.47 1.46 3.06 3.38 2.74 3.25 5.58 6.35 8.5 9.44 22.8 25.1 40.3 56.5 52.6 88 0.825 2.12 1.68 4.22 2.53 6.33 31.4 79.3 36 170 40.2 266 0.0652 1.54 0.131 3.07 0.197 4.61 4.08 95 3.3 190 3.18 285-0.0218 17.4-0.0334 34.8-0.0367 52.2-3.34e-4 1.73-3.34e-4 1.73-6.75e-4 3.5-4.43e-4 2.33-8.85e-4 4.66-0.00133 6.99-3.29e-4 1.72-3.29e-4 1.72-6.65e-4 3.48-2.16e-4 1.15-4.32e-4 2.29-6.55e-4 3.48-0.00371 18-0.015 35.9-0.0275 53.9-0.00439 6.43-0.00785 12.9-0.0106 19.3-0.00446 10.1-0.0123 20.3-0.0268 30.4-0.00652 4.61-0.0117 9.22-0.0125 13.8-0.00484 20.4-0.273 40.8-1.05 61.3-0.236 6.66-0.349 13.3-0.465 20-0.0736 4.17-0.158 8.34-0.241 12.5-0.0173 0.866-0.0345 1.73-0.0523 2.63-1.34 66.7-3.8 134-13.4 200-0.102 0.71-0.205 1.42-0.31 2.15-4.98 34.3-12 67.9-22.7 101-0.446 1.4-0.446 1.4-0.901 2.82-9.46 29.4-23.1 58.1-41.1 83.2-0.495 0.692-0.99 1.38-1.5 2.1-10 13.9-21 26.6-33.1 38.8-0.871 0.88-1.74 1.76-2.64 2.67-5.61 5.59-11.5 10.6-17.7 15.5-1.1 0.871-2.2 1.74-3.29 2.62-51.6 40.2-114 59.3-178 70.4-1.15 0.202-2.3 0.404-3.48 0.612-21 3.64-42.2 6.05-63.4 8.27-0.791 0.0832-1.58 0.166-2.4 0.252-2.9 0.298-5.79 0.581-8.69 0.861-0.759 0.074-1.52 0.148-2.3 0.224-13.5 1.3-26.9 2.29-40.4 2.99-1.96 0.104-3.92 0.209-5.88 0.313-4.12 0.218-8.23 0.433-12.3 0.645-4.04 0.209-8.07 0.424-12.1 0.646-26.6 1.46-53.1 2.51-79.7 3.24-0.799 0.0218-1.6 0.0437-2.42 0.0662-41.9 1.13-83.7 1.17-126 1.14-7.71-0.00466-15.4-0.0051-23.1-0.00297-1.68 4.6e-4 -1.68 4.6e-4 -3.39 9.29e-4 -2.28 6.4e-4 -4.56 0.00129-6.83 0.00195-21.1 0.00563-42.2-7.41e-4 -63.3-0.0116-17.9-0.00893-35.8-0.00737-53.7 0.00184-21.1 0.0108-42.1 0.0148-63.2 0.00878-2.27-6.37e-4 -4.53-0.00127-6.8-0.00189-1.11-3.09e-4 -2.23-6.17e-4 -3.38-9.35e-4 -7.65-0.00169-15.3 0.00114-23 0.00589-41.4 0.0234-82.9-0.0668-124-1.2-0.761-0.0208-1.52-0.0415-2.31-0.0629-48.4-1.33-96.7-3.26-145-7.01-0.771-0.0595-1.54-0.119-2.34-0.18-62.5-4.85-126-13.4-185-35.8-0.696-0.265-1.39-0.529-2.11-0.802-29.8-11.5-58.1-26.6-82.5-47.2-2.91-2.41-5.93-4.61-9.02-6.78-0.45-0.393-0.9-0.786-1.36-1.19v-2l-1.72-0.732c-2.74-1.52-4.61-3.34-6.83-5.55-0.844-0.842-1.69-1.68-2.56-2.55l-2.64-2.67c-0.888-0.88-1.78-1.76-2.69-2.67-0.839-0.842-1.68-1.68-2.54-2.55-0.771-0.773-1.54-1.55-2.33-2.34-1.68-1.94-1.68-1.94-1.68-3.94h-2c-3.25-3.44-6.09-7.26-9-11-0.463-0.589-0.925-1.18-1.4-1.79-8.29-10.6-15.7-21.7-22.6-33.2-0.436-0.724-0.871-1.45-1.32-2.19-46.4-78-54.8-176-60.3-267-0.27-4.48-0.554-8.95-0.845-13.4-1.55-24.4-2.42-48.7-3.15-73.1-0.0325-1.08-0.065-2.16-0.0985-3.27-1.46-48.6-1.75-97.2-1.71-146 0.00702-8.24 0.00764-16.5 0.00445-24.7-4.6e-4 -1.2-9.19e-4 -2.4-0.00139-3.64-9.6e-4 -2.45-0.00193-4.89-0.00292-7.34-0.00842-22.6 0.00106-45.1 0.0174-67.7 0.0134-19.1 0.011-38.2-0.00276-57.4-0.0163-22.5-0.0223-45.1-0.0132-67.6 9.55e-4 -2.43 0.0019-4.86 0.00283-7.29 4.63e-4 -1.19 9.26e-4 -2.39 0.0014-3.62 0.00253-8.18-0.0017-16.4-0.00884-24.5-0.077-96.5 0.79-194 53.4-462l0.987-2.25c5.35-12.2 11.9-23.5 19-34.7 0.382-0.607 0.764-1.21 1.16-1.84 10.2-16.1 22.7-30.5 35.5-44.5 0.509-0.566 1.02-1.13 1.54-1.71 1.24-1.34 2.53-2.63 3.83-3.91h2v-2c1.29-1.34 1.29-1.34 3.19-2.94 1.11-0.938 1.11-0.938 2.24-1.89 0.849-0.715 1.7-1.43 2.57-2.17 1.38-1.21 1.38-1.21 2.79-2.45 14.9-13 31-23.8 48.2-33.6 1.23-0.7 1.23-0.7 2.49-1.41 58.7-32.9 128-44.9 194-51.7 0.72-0.0745 1.44-0.149 2.18-0.226 5.79-0.593 11.6-1.13 17.4-1.65 1.25-0.112 2.5-0.225 3.79-0.341 21.3-1.9 42.5-3.4 63.9-4.48 3-0.153 5.99-0.313 8.99-0.479 67.4-3.75 135-4.01 202-4zm-359 500c-1.09 0.0558-1.09 0.0558-2.21 0.113-10.5 0.644-19.6 3.37-27.2 11-6.64 8.38-7.6 19.1-6.44 29.4 1.27 8.41 3.1 16.7 5 25 0.209 0.924 0.417 1.85 0.632 2.8 10.1 43.9 27.8 86.8 46.7 128 1.69 3.64 3.34 7.29 4.96 11 4.24 9.62 8.77 19 13.7 28.2 2.27 4.23 4.47 8.5 6.66 12.8 7.56 14.8 15.3 29.4 23.6 43.8 1.81 3.14 3.6 6.28 5.39 9.43 7 12.3 14.2 24.4 21.9 36.2 1.42 2.21 2.81 4.44 4.2 6.67 8.1 13 16.6 25.7 25.1 38.4 2.09 3.13 4.18 6.26 6.26 9.39 3.45 5.18 6.98 10.3 10.6 15.4 0.595 0.848 1.19 1.7 1.8 2.57 15.2 21.6 30.7 43.2 48.5 62.7 1.79 1.96 3.54 3.95 5.28 5.96 8.01 9.16 16.4 17.9 24.9 26.6 1.12 1.12 1.12 1.12 2.26 2.27 4.12 4.11 8.33 8.04 12.7 11.8 2.17 1.88 4.28 3.82 6.38 5.77 5.12 4.63 10.5 8.85 16 13.1 2.91 2.26 5.73 4.61 8.54 6.99 14 11.5 29.4 21.3 44.9 30.7 0.707 0.433 1.41 0.865 2.14 1.31 52 31.7 109 51.2 170 56.7 0.78 0.072 1.56 0.144 2.36 0.218 27.3 2.43 70.4 5.12 92.9-13.6 7.73-7.45 10.7-15.8 11.1-26.5 0.02-2.11 0.0244-4.23 0.0154-6.34 0.00698-1.16 0.014-2.33 0.0211-3.53 0.0199-3.82 0.0195-7.64 0.0196-11.5 0.0118-2.68 0.0249-5.36 0.04-8.04 0.0408-7.76 0.0595-15.5 0.0762-23.3 0.0224-9.85 0.0564-19.7 0.107-29.6 0.0228-4.58 0.0297-9.15 0.0331-13.7 0.109-37.9 0.109-37.9 7.3-47.2 6.79-5.9 16.9-6.22 25.6-5.85 20.8 2.46 39 13.4 55.4 25.8 0.557 0.419 1.11 0.839 1.69 1.27 15.3 11.5 30.8 23.6 44.1 37.5 1.91 1.88 3.85 3.62 5.88 5.36 4.85 4.21 9.38 8.72 13.9 13.3 0.811 0.808 1.62 1.62 2.46 2.45 4.31 4.31 8.44 8.71 12.4 13.3 2.2 2.51 4.55 4.83 6.94 7.16 4.52 4.41 4.52 4.41 5.62 6.62h2c0.396 0.889 0.396 0.889 0.801 1.8 1.24 2.28 2.5 3.68 4.39 5.45 2.45 2.38 4.77 4.79 7 7.38 3.66 4.25 7.47 8.36 11.3 12.5 2.93 3.16 5.81 6.36 8.66 9.6 18.8 20.9 36.7 38.2 65.9 40.3 3.97 0.136 7.93 0.147 11.9 0.145 1.15 0.00336 2.29 0.00672 3.47 0.0102 3.76 0.00945 7.53 0.0115 11.3 0.0125 2.64 0.00322 5.28 0.00658 7.91 0.0101 5.52 0.00638 11 0.00788 16.6 0.00725 6.34-5.99e-4 12.7 0.00993 19 0.0257 5.48 0.0132 11 0.0184 16.4 0.0178 3.26-2.52e-4 6.52 0.0034 9.77 0.0132 31 1.2 31 1.2 57.7-12.2 7.82-8.7 7.6-18.5 7.1-29.6-2.59-29-29-59.6-46.2-81.4-0.88-1.14-1.76-2.27-2.64-3.41-5.17-6.67-10.5-13.2-16-19.5-3.06-3.53-6.04-7.1-8.97-10.7-3.8-4.69-7.83-9.13-11.9-13.6-2.35-2.62-4.57-5.3-6.77-8.05-4.09-5.07-8.44-9.83-12.9-14.6-2.64-2.81-5.23-5.64-7.72-8.57-4.6-5.26-9.56-10.1-14.5-15.1-1.75-1.74-3.5-3.48-5.25-5.22-4.97-4.94-9.94-9.88-14.9-14.8-3.06-3.03-6.11-6.07-9.17-9.11-1.15-1.15-2.31-2.29-3.46-3.43-30.4-30-30.4-30-31.2-46.9 0.946-17 14.4-32.3 24-45.6 9.59-13.2 18.5-26.9 27.5-40.5 1.95-2.94 3.91-5.87 5.87-8.8 12.4-18.6 24.6-37.3 36.3-56.3 1.7-2.75 3.41-5.5 5.12-8.25 6.79-10.9 13.5-21.9 20.1-32.9 1.64-2.76 3.3-5.51 4.95-8.26 5.27-8.81 10.4-17.6 14.9-26.8 1.7-3.46 3.49-6.85 5.31-10.2 21.5-38.4 21.5-38.4 25.7-80.7-2.68-7.28-7.33-13.1-14.3-16.6-9.3-3.66-19.1-3.33-29-3.55-0.884-0.0208-1.77-0.0417-2.68-0.0632-20.4-0.462-40.8-0.485-61.2-0.497-2.6-0.00205-5.2-0.00581-7.8-0.00991-42.4-2.46-42.4-2.46-79.2 14.8-8.72 9.66-13.3 22.1-18.3 33.9-6.28 14.6-13.4 28.8-20.5 43-1.64 3.29-3.28 6.58-4.92 9.87-5.86 11.8-11.9 23.4-18.4 34.8-1.47 2.6-2.92 5.21-4.37 7.82-19.5 34.9-41 68.5-65.7 100-0.869 1.13-1.74 2.25-2.61 3.38-13 16.8-26.7 32.5-43.4 45.6-0.772 0.639-1.54 1.28-2.34 1.94-8.4 6.85-18.2 12.7-29.3 11.9-4.13-0.632-6.46-1.69-9.31-4.88-8.45-13.3-7.14-29.6-7.1-44.8 0.00192-1.9 0.00338-3.8 0.00443-5.7 0.00315-4.08 0.00941-8.16 0.0181-12.2 0.0136-6.5 0.0194-13 0.0241-19.5 0.012-15 0.0338-30 0.0562-45.1 0.0204-13.7 0.0384-27.4 0.0482-41.1 0.00409-5.38 0.0102-10.8 0.0217-16.1 0.0446-21.1 0.00606-42.3-0.398-63.4-0.037-1.95-0.0712-3.91-0.102-5.86-0.00748-20.7-0.00748-20.7-8.82-39-8.22-6.72-14.5-8.34-25.1-8.56-1.26-0.0307-1.26-0.0307-2.55-0.0621-2.84-0.0662-5.69-0.124-8.53-0.181-1.01-0.0209-2.01-0.0419-3.05-0.0634-29.3-0.595-58.6-0.533-88-0.51-6.23 0.00437-12.5 0.00122-18.7-0.00363-6.12-0.00456-12.2-0.00517-18.4-0.00256-3.61 0.00154-7.22 0.00183-10.8-0.00154-30.5-1.94-30.5-1.94-56.9 10.2-5.16 5.7-7 12.3-6.73 19.9 1.81 11.2 8.57 19.6 15.6 28.1 29.6 36.4 30.7 78.8 30.6 124-0.00893 4.62-0.00702 9.23-0.00664 13.8-9.3e-4 7.74-0.00953 15.5-0.0233 23.2-0.0157 8.9-0.021 17.8-0.0203 26.7 6.8e-4 9.55-0.00628 19.1-0.0154 28.7-0.00211 2.72-0.00284 5.44-0.00324 8.15-0.0179 62-0.0179 62-9.17 71.6-5.57 2.98-12.4 2.89-18.5 1.38-20.7-7.45-36.9-28.3-49.9-45.2-1.28-1.65-2.57-3.3-3.86-4.94-6.66-8.48-12.7-17.3-18.7-26.3-0.482-0.726-0.964-1.45-1.46-2.2-7-10.5-13.8-21.2-20.2-32.1-1.71-2.97-3.45-5.93-5.18-8.89-33.7-57.9-60.7-119-83.3-182-9.46-28.2-9.46-28.2-30-48.1-8.19-3.57-15.5-4.64-24.3-4.82-0.934-0.0209-1.87-0.0417-2.83-0.0632-3.13-0.067-6.26-0.126-9.39-0.183-1.63-0.0313-1.63-0.0313-3.29-0.0632-20.3-0.38-40.6-0.483-60.9-0.497-2.29-0.00204-4.58-0.0058-6.87-0.00991-19.8-0.0642-19.8-0.0642-39.6 0.566z" fill="#000002"/>
</svg>
