<?xml version="1.0" encoding="UTF-8"?>
<svg version="1.1" viewBox="0 0 1600 1600" width="1280" height="1280" xmlns="http://www.w3.org/2000/svg">
<path transform="translate(780 -.273)" d="m0 0c0.766-0.00626 1.53-0.0125 2.32-0.019 5.81-0.046 11.6-0.0695 17.4-0.0826 0.857-0.00215 1.71-0.00431 2.6-0.00653 28.8-0.0582 56.9 1.28 85.4 5.04 4.28 0.549 8.58 1.02 12.9 1.5 81.9 9.34 162 33.1 290 95.4 3.24 1.87 6.51 3.66 9.79 5.45 7.06 3.86 13.9 7.91 20.6 12.3 3.3 2.18 6.64 4.29 9.98 6.41 11 6.97 21.9 14 32.2 21.9 2.81 2.1 5.68 4.13 8.53 6.16 8.47 6.04 16.7 12.3 24.7 18.9 2.22 1.81 4.48 3.58 6.72 5.36 8.76 7.02 17.3 14.3 25.6 21.9 2.21 2 4.43 3.98 6.66 5.95 0.606 0.534 1.21 1.07 1.84 1.62 1.82 1.58 1.82 1.58 4.02 3.08 0.585 0.472 1.17 0.944 1.77 1.43v2c0.579 0.254 1.16 0.508 1.75 0.77 2.5 1.37 4.16 2.9 6.17 4.91 1.14 1.13 1.14 1.13 2.3 2.29 0.81 0.818 1.62 1.64 2.46 2.48 1.27 1.27 1.27 1.27 2.56 2.56 1.79 1.79 3.57 3.58 5.35 5.37 2.71 2.72 5.42 5.44 8.14 8.16 1.74 1.74 3.47 3.48 5.21 5.23 0.804 0.806 1.61 1.61 2.44 2.44 4.21 4.25 8.28 8.57 12.2 13.1 2.06 2.39 4.2 4.7 6.34 7.01 4.17 4.57 8.11 9.28 12 14.1 1.9 2.31 3.86 4.52 5.88 6.72 4.93 5.49 9.31 11.4 13.8 17.3 2.3 3.03 4.62 6.04 6.98 9.02 7.81 9.87 15.1 20 22.1 30.4 2 2.96 4.06 5.88 6.12 8.81 4.63 6.67 8.91 13.5 13.2 20.5 1 1.62 2.02 3.24 3.03 4.85 13.2 21.1 25 42.8 36.1 65 0.559 1.11 1.12 2.23 1.69 3.38 25.6 51.2 44.4 105 58.3 161 0.266 1.06 0.532 2.11 0.807 3.2 10.4 41.9 16.2 84.7 20 128 0.222 2.43 0.466 4.86 0.707 7.29 1.55 16.2 1.89 32.4 1.86 48.7-9.19e-5 0.678-1.84e-4 1.36-2.78e-4 2.05-0.00473 27.2-1.45 54.1-4.37 81.1-0.099 0.916-0.198 1.83-0.3 2.78-1.36 12.4-2.95 24.8-4.7 37.2-0.0948 0.681-0.19 1.36-0.287 2.06-12.6 90.3-43.7 177-146 352l-1.59 2.15c-5.54 7.51-11.2 14.9-17.1 22.1-2.15 2.62-4.23 5.28-6.31 7.96-4.62 5.97-9.43 11.6-14.6 17.2-2.39 2.64-4.61 5.36-6.83 8.14-3.96 4.91-8.26 9.33-12.8 13.7-2.04 2.06-3.9 4.09-5.77 6.29-4.93 5.69-10.3 11-15.6 16.3-1.81 1.8-3.61 3.61-5.42 5.42-5.31 5.32-10.6 10.6-16.4 15.4-1.73 1.51-3.32 3.11-4.91 4.76-3.7 3.77-7.77 7.01-11.9 10.3-2.62 2.16-5.13 4.39-7.62 6.69-4.97 4.52-10.2 8.63-15.5 12.7-2.45 1.9-4.88 3.83-7.29 5.79-8.82 7.17-17.9 13.9-27.2 20.5-2.16 1.53-4.31 3.08-6.46 4.62-9.91 7.09-20 13.8-30.3 20.4-2.4 1.53-4.78 3.08-7.17 4.62-11.4 7.32-23.1 14-34.9 20.6-2.99 1.68-5.94 3.43-8.89 5.19-12.3 7.23-25.4 13.1-38.4 19.2-1.92 0.904-3.84 1.82-5.75 2.74-75.9 36.1-159 58.7-287 73.1-1.56 0.147-3.11 0.305-4.66 0.471-7.77 0.793-15.5 0.952-23.3 1.01-0.7 0.00626-1.4 0.0125-2.12 0.019-5.35 0.0463-10.7 0.0696-16 0.0826-1.18 0.00323-1.18 0.00323-2.39 0.00653-28.5 0.0627-56.5-1.5-84.9-5.03-2.78-0.343-5.56-0.672-8.35-0.995-52.4-6.09-104-17.1-154-33.3-2.74-0.885-5.49-1.75-8.24-2.6-84.9-26.7-165-72.1-265-151-2.41-2.08-4.84-4.14-7.27-6.2-6.45-5.44-12.6-11-18.5-17.1-1.76-1.93-1.76-1.93-3.89-2.86v-2l-1.63-0.65c-3.22-1.83-5.64-4.34-8.23-6.94-0.549-0.547-1.1-1.09-1.66-1.66-1.16-1.15-2.31-2.31-3.46-3.47-1.77-1.78-3.55-3.55-5.33-5.31-1.12-1.12-2.24-2.25-3.36-3.37-0.534-0.53-1.07-1.06-1.62-1.61-3.71-3.76-3.71-3.76-3.71-5.99-0.99-0.33-1.98-0.66-3-1-1.58-1.6-1.58-1.6-3.25-3.62-2.28-2.69-4.58-5.24-7.12-7.69-3.74-3.68-6.96-7.72-10.2-11.8-2.33-2.82-4.76-5.51-7.25-8.19-5.2-5.66-9.91-11.6-14.6-17.7-1.64-2.12-3.3-4.24-4.96-6.35-7.38-9.41-14.6-18.9-21.6-28.6-0.482-0.669-0.964-1.34-1.46-2.03-7-9.74-13.7-19.6-20.1-29.8-1.45-2.28-2.91-4.56-4.38-6.84-10.7-16.7-20.5-34-30-51.4-0.341-0.617-0.682-1.23-1.03-1.87-42.1-76.3-68.5-162-89.7-310-0.161-1.75-0.328-3.5-0.501-5.25-1.91-19.4-2.17-38.7-2.17-58.1-7.64e-4 -0.817-0.00153-1.63-0.00232-2.48-0.0223-28.9 1.43-57.3 5.1-86 0.331-2.62 0.647-5.23 0.956-7.85 10.1-84.9 33.9-167 95.4-294 0.534-0.943 1.07-1.89 1.62-2.86 12.9-22.7 26.9-44.9 42-66.2 0.501-0.707 1-1.41 1.52-2.14 9.75-13.7 19.8-27.1 30.5-40.1 1.82-2.22 3.6-4.48 5.37-6.73 8.09-10.1 16.8-19.8 25.6-29.3 2.02-2.2 3.98-4.43 5.91-6.7 3.72-4.31 7.8-8.25 11.8-12.2 2.88-2.92 5.53-5.95 8.12-9.13 1.7-1.73 3.32-2.6 5.54-3.56v-2c1.36-1.34 1.36-1.34 3.31-2.94 3.58-3.03 6.9-6.22 10.2-9.56 4.34-4.38 8.81-8.5 13.5-12.5 1.73-1.5 3.46-3 5.19-4.51 2.62-2.27 5.24-4.54 7.86-6.8 1.86-1.61 3.72-3.23 5.57-4.84 7.02-6.09 14.2-11.9 21.6-17.5 1.92-1.46 3.83-2.93 5.74-4.4 15.9-12.3 32.2-24 49-34.9l2.87-1.87c14.5-9.42 29.2-18.5 44.1-27.1l2.24-1.3c15.1-8.73 30.8-16.3 46.6-23.7 1.89-0.891 3.78-1.79 5.67-2.7 3.82-1.82 7.66-3.59 11.5-5.33 0.976-0.443 1.95-0.886 2.96-1.34 79-35.6 164-55.9 262-65.9 1.02-0.0996 1.02-0.0996 2.07-0.201 12.8-1.2 25.6-1.78 38.4-1.87zm332 494c-2.21 0.866-4.41 1.73-6.62 2.6-4.34 1.7-8.67 3.41-13 5.11-7.13 2.81-14.3 5.59-21.4 8.35-1.18 0.455-2.35 0.911-3.56 1.38-12.5 4.83-25 9.61-37.5 14.4-24.5 9.39-49.1 18.9-73.6 28.4-14.3 5.55-28.7 11.1-43 16.6-10.7 4.13-21.5 8.27-32.2 12.4-1.18 0.454-2.35 0.908-3.56 1.38-2.42 0.934-4.84 1.87-7.25 2.8-18.9 7.29-37.8 14.6-56.7 21.8-19.4 7.43-38.8 14.9-58.2 22.5-0.988 0.384-1.98 0.767-2.99 1.16-0.965 0.375-1.93 0.75-2.92 1.14-7.9 3.07-15.8 6.11-23.7 9.15-6.99 2.68-14 5.38-20.9 8.09-0.989 0.384-1.98 0.768-3 1.16-1.01 0.394-2.03 0.787-3.07 1.19-18.6 7.24-37.3 14.4-56 21.6-15 5.72-29.9 11.5-44.9 17.2-16.2 6.27-32.4 12.5-48.6 18.8-1.1 0.425-2.21 0.849-3.35 1.29-9.24 3.55-18.5 7.11-27.7 10.7-20 7.68-39.9 15.4-59.9 23.1-10.1 3.92-20.3 7.83-30.4 11.7-3.79 1.46-7.59 2.92-11.4 4.39-3.07 1.18-6.13 2.36-9.2 3.54-12.5 4.81-25 9.64-37.4 14.6-1.53 0.603-1.53 0.603-3.08 1.22-14.9 5.96-31.3 13.1-39.2 27.9-2.19 5.28-2.72 10-1.09 15.5 4.88 10.8 15.7 15.6 26.1 19.9 3.64 1.34 7.31 2.56 11 3.77 1.57 0.517 1.57 0.517 3.16 1.04 10.5 3.43 21 6.69 31.5 9.92 5.95 1.82 11.9 3.65 17.8 5.49 1.25 0.385 2.5 0.769 3.78 1.17 14.3 4.41 28.6 8.88 42.8 13.4 28.8 9.03 28.8 9.03 57.7 17.9 6.02 1.82 12 3.68 18 5.7 1.04 0.346 2.07 0.693 3.14 1.05 1.85 0.623 3.69 1.26 5.52 1.92 3.76 1.27 5.87 1.88 9.84 1.07 2.34-1.16 4.43-2.31 6.55-3.82 4.1-2.83 8.27-5.5 12.5-8.12 5.89-3.66 11.8-7.35 17.6-11.1 7.25-4.59 14.5-9.14 21.8-13.7 8.67-5.41 17.3-10.9 25.9-16.4 6.67-4.25 13.4-8.46 20.1-12.6 8.33-5.19 16.6-10.4 24.9-15.8 9.56-6.14 19.2-12.2 28.9-18.1 4.2-2.59 8.37-5.22 12.5-7.88 9.37-5.99 18.7-11.9 28.2-17.7 7.76-4.75 15.4-9.66 23.1-14.6 13.2-8.41 26.4-16.7 39.7-25 6.91-4.32 13.8-8.66 20.7-13 6.33-4 12.7-7.97 19-11.9 7.75-4.84 15.5-9.71 23.2-14.6 8.71-5.56 17.5-11.1 26.2-16.5 9.28-5.79 18.5-11.6 27.8-17.5 11.3-7.18 22.7-14.3 34.1-21.4 6.25-3.9 12.5-7.82 18.7-11.8 1.14-0.716 1.14-0.716 2.3-1.45 4-2.52 7.97-5.06 11.9-7.63 1.26-0.811 1.26-0.811 2.54-1.64 1.59-1.02 3.17-2.05 4.74-3.09 7.32-4.7 14.7-8.62 23.6-8.38 1.08 0.0129 2.16 0.0258 3.28 0.0391 2.79 0.336 2.79 0.336 5.79 2.34-0.219 6.26-3.25 8.89-7.56 12.9-0.642 0.621-1.28 1.24-1.95 1.88-3.7 3.56-7.46 7.03-11.4 10.4-2.89 2.5-5.69 5.1-8.49 7.7-4.07 3.77-8.14 7.53-12.2 11.2-1.16 1.06-1.16 1.06-2.35 2.13-2.02 1.74-2.02 1.74-5.02 3.74v2c-0.59 0.268-1.18 0.536-1.79 0.812-2.23 1.2-3.77 2.45-5.6 4.2-0.623 0.589-1.25 1.18-1.89 1.79-0.651 0.624-1.3 1.25-1.97 1.89-1.36 1.28-2.71 2.57-4.07 3.85-0.644 0.609-1.29 1.22-1.95 1.84-2.49 2.33-5.06 4.56-7.64 6.78-2.91 2.56-5.74 5.2-8.59 7.84-4.09 3.79-8.21 7.52-12.4 11.2-4.25 3.73-8.38 7.59-12.5 11.4-11 10.1-11 10.1-16.3 14.7-3.81 3.31-7.5 6.75-11.2 10.2-4.3 4.01-8.61 7.97-13.1 11.8-3.3 2.87-6.51 5.83-9.74 8.77-2.2 1.92-2.2 1.92-5.2 3.92v2c-0.59 0.268-1.18 0.536-1.79 0.812-2.23 1.2-3.77 2.45-5.6 4.2-0.934 0.884-0.934 0.884-1.89 1.79-0.651 0.624-1.3 1.25-1.97 1.89-1.35 1.28-2.71 2.56-4.07 3.84-0.965 0.913-0.965 0.913-1.95 1.84-2.52 2.36-5.11 4.61-7.72 6.86-2.67 2.34-5.28 4.74-7.89 7.14-5.34 4.91-10.7 9.78-16.1 14.6-1.65 1.48-3.29 2.96-4.94 4.44-0.813 0.731-1.63 1.46-2.46 2.21-1.87 1.69-3.74 3.39-5.6 5.1-0.5 0.458-0.999 0.915-1.51 1.39-1.41 1.3-2.82 2.59-4.23 3.89-2.25 1.97-2.25 1.97-4.25 2.97v2c-0.592 0.269-1.18 0.539-1.79 0.816-2.21 1.18-3.72 2.4-5.53 4.13-0.919 0.869-0.919 0.869-1.86 1.76-0.643 0.616-1.29 1.23-1.95 1.87-1.35 1.27-2.69 2.55-4.04 3.82-0.655 0.62-1.31 1.24-1.99 1.88-5.11 4.81-10.4 9.45-15.7 14-4.17 3.63-8.21 7.38-12.3 11.1-4.93 4.57-9.92 9.07-14.9 13.6-5.4 4.84-10.8 9.71-16.1 14.6-3.87 3.56-7.78 7.06-11.8 10.5-2.7 2.38-5.35 4.81-7.99 7.24-3.91 3.59-7.82 7.18-11.8 10.8-0.797 0.724-1.59 1.45-2.41 2.2-1.96 1.68-1.96 1.68-3.96 2.68v2c-0.59 0.268-1.18 0.536-1.79 0.812-2.23 1.2-3.77 2.45-5.6 4.2-0.628 0.594-1.26 1.19-1.9 1.8-0.646 0.619-1.29 1.24-1.96 1.88-1.27 1.21-2.55 2.43-3.83 3.64-0.842 0.806-0.842 0.806-1.7 1.63-2.22 2.05-2.22 2.05-4.18 3.2-4.01 2.68-5.77 4.76-6.97 9.5-0.671 4.82-0.896 9.66-1.14 14.5-0.123 1.87-0.25 3.74-0.379 5.61-0.343 5.08-0.641 10.2-0.93 15.2-0.312 5.33-0.667 10.7-1.02 16-0.514 7.84-1.02 15.7-1.5 23.5-0.947 15.3-2 30.5-3.1 45.8-0.165 2.31-0.331 4.62-0.496 6.94-0.244 3.41-0.488 6.82-0.732 10.2-0.772 10.8-1.54 21.5-2.29 32.3-0.134 1.92-0.269 3.84-0.406 5.75-0.187 2.63-0.37 5.25-0.552 7.88-0.0545 0.756-0.109 1.51-0.165 2.29-0.326 4.77-0.412 9.49-0.366 14.3 5.04 2.52 14.7-1.34 20-3 12.1-5.58 21.4-16.3 30.6-25.7 2.83-2.87 5.65-5.62 8.81-8.14 0.84-0.717 1.68-1.43 2.55-2.17v-2c0.581-0.255 1.16-0.509 1.76-0.771 2.48-1.36 4.09-2.87 6.06-4.89 1.05-1.07 1.05-1.07 2.12-2.15 0.721-0.742 1.44-1.48 2.18-2.25 1.44-1.47 2.88-2.94 4.32-4.41 0.634-0.652 1.27-1.3 1.92-1.98 1.63-1.55 1.63-1.55 3.63-2.55v-2c1.32-0.66 2.64-1.32 4-2v-2c0.558-0.232 1.12-0.464 1.69-0.702 2.91-1.64 4.89-3.67 7.23-6.06 0.464-0.469 0.927-0.938 1.41-1.42 1.48-1.5 2.95-3 4.42-4.5 1.93-1.97 3.86-3.93 5.8-5.89 0.471-0.477 0.942-0.953 1.43-1.44 3.27-3.28 6.66-6.34 10.2-9.35 3.88-3.44 7.38-7.29 10.9-11.1 0.874-0.905 0.874-0.905 1.77-1.83 0.515-0.547 1.03-1.09 1.56-1.66 1.61-1.06 1.61-1.06 3.61-0.872 3.44 1.39 6.22 3.8 9.13 6.06 1.44 1.1 2.88 2.2 4.32 3.3 0.748 0.57 1.5 1.14 2.27 1.73 3.72 2.8 7.5 5.51 11.3 8.22 6.38 4.58 12.7 9.25 19 14 4.97 3.74 9.99 7.39 15 11 6.35 4.57 12.6 9.2 18.9 13.9 7.52 5.66 15.1 11.2 22.7 16.8 3.98 2.92 7.95 5.85 11.9 8.78 4.83 3.56 9.66 7.12 14.5 10.7 7.63 5.61 15.2 11.2 22.8 16.9 4.88 3.65 9.79 7.26 14.7 10.9 4.17 3.07 8.34 6.14 12.5 9.25 18.2 13.6 35.2 25.8 59 24.3 8.22-1.64 16.4-7.26 21.5-13.8 11.7-17.6 14.9-39 19.1-59.3 0.707-3.4 1.42-6.8 2.14-10.2 1.36-6.46 2.71-12.9 4.05-19.4 2.52-12.1 5.06-24.2 7.6-36.3 0.583-2.78 1.17-5.56 1.75-8.35 4.12-19.7 8.31-39.3 12.6-59 2.51-11.5 4.95-22.9 7.34-34.4 0.398-1.91 0.796-3.82 1.19-5.73 0.249-1.2 0.249-1.2 0.503-2.42 3.43-16.5 6.95-32.9 10.5-49.3 4.77-22.3 9.53-44.6 14.2-67 5.59-26.7 11.3-53.3 16.9-79.9 2.35-11 4.69-22.1 7.04-33.1 0.265-1.25 0.53-2.5 0.803-3.78 5.86-27.6 11.7-55.2 17.6-82.8 1.06-5.02 2.13-10 3.19-15.1 0.254-1.2 0.508-2.4 0.77-3.63 0.505-2.38 1.01-4.76 1.51-7.14 1.21-5.72 2.42-11.4 3.63-17.1 0.462-2.19 0.925-4.39 1.39-6.58 0.225-1.07 0.449-2.13 0.681-3.23 1.32-6.27 2.67-12.5 4.04-18.8 0.854-3.91 1.7-7.83 2.54-11.7 0.387-1.79 0.779-3.57 1.18-5.35 4.4-19.8 7.67-41.1-2.74-59.6-6.01-8.35-12.8-14-22.9-16.3-19.3-3.05-37 5.33-54.6 12.3z" fill="#000002"/>
</svg>
