<svg width="93" height="88" viewBox="0 0 93 88" fill="none" xmlns="http://www.w3.org/2000/svg">
<path d="M0 33.5916L24.1431 30.0992C24.9708 28.1692 25.8906 26.3311 26.7643 24.6768L27.6841 22.9765L29.5695 22.6548C31.409 22.3332 33.4324 22.0574 35.5478 21.8736L46.3087 0L57.1156 21.8277C59.231 22.0574 61.2544 22.2872 63.0939 22.6089L64.9794 22.9305L65.8991 24.6308C66.7728 26.2851 67.6466 28.1232 68.5203 30.0533L92.6174 33.5457L75.1424 50.5483C75.6023 52.6162 75.9702 54.5922 76.2001 56.4762L76.4761 58.4063L75.1424 59.7849C73.8548 61.1175 72.3832 62.542 70.7737 63.9206L74.9125 87.9081L53.3447 76.6496C51.5052 77.7065 49.7117 78.6715 48.0562 79.4987L46.3087 80.3259L44.5612 79.4987C42.9057 78.6715 41.1122 77.7065 39.2727 76.6496L17.7049 88L21.8437 64.0125C20.2342 62.588 18.8086 61.2094 17.475 59.8768L16.1414 58.4982L16.4173 56.5681C16.6932 54.73 17.0611 52.7081 17.475 50.6402" fill="white"/>
<path d="M53.2989 75.133C50.9996 76.5116 48.7002 77.7063 46.3089 78.8552C43.9176 77.7063 41.6183 76.4656 39.3189 75.087L19.4526 85.5183L23.2695 63.415C21.2461 61.6687 19.4066 59.8306 17.5212 57.9006C17.8891 55.2353 18.3029 52.7079 18.9008 50.0886L2.85138 34.5565L25.063 31.3398C26.1207 28.8583 27.2704 26.5607 28.512 24.217C31.1333 23.7575 33.7085 23.3899 36.3758 23.1142L46.3089 3.03271L56.2421 23.1142C58.9093 23.3439 61.4845 23.7116 64.1058 24.217C65.3474 26.5607 66.4971 28.9043 67.5548 31.3398L89.7664 34.5565L73.717 50.1805C74.3149 52.7998 74.7287 55.3272 75.0966 57.9925C73.2572 59.9225 71.3717 61.7147 69.3943 63.5069L73.1652 85.6103L53.2989 75.133Z" fill="#101820"/>
<path d="M55.3221 73.2492L69.624 80.7855L60.0127 67.551L55.3221 73.2492Z" fill="white"/>
<path d="M66.9109 64.9778L60.0129 67.5512L69.6241 80.7856L66.9109 64.9778Z" fill="#B78B1E"/>
<path d="M68.5205 41.4496L72.6134 47.5614L84.0641 36.3948L68.5205 41.4496Z" fill="#B78B1E"/>
<path d="M32.5588 67.551L22.9476 80.7855L37.3414 73.2032L32.5588 67.551Z" fill="#B78B1E"/>
<path d="M46.3088 27.2959V8.96069L37.0654 27.6636C40.0086 27.4338 43.1357 27.2959 46.3088 27.2959Z" fill="white"/>
<path d="M29.2477 33.3618L8.55365 36.3488L26.0286 42.001C26.9484 39.06 28.0521 36.119 29.2477 33.3618Z" fill="white"/>
<path d="M26.5805 59.6472L22.9476 80.7396L33.9844 65.5752C31.3632 63.6911 28.8799 61.6691 26.5805 59.6472Z" fill="white"/>
<path d="M63.6456 33.408C64.7952 36.1192 65.8529 39.0142 66.8187 41.9552L84.0637 36.349L63.6456 33.408Z" fill="white"/>
<path d="M46.3087 27.02C49.4358 27.02 52.5169 27.1579 55.4141 27.3877L46.3087 8.91455V27.02Z" fill="#B78B1E"/>
<path d="M25.7525 42.001L8.50745 36.3948L23.3152 50.824C24.005 47.929 24.8328 44.942 25.7525 42.001Z" fill="#B78B1E"/>
<path d="M46.3088 27.9396C51.4134 27.9396 56.4259 28.3073 60.6567 28.9506L62.4042 26.561C52.9309 24.9067 39.7787 24.9067 30.2594 26.561C25.7527 35.0623 21.6599 47.5616 20.3263 57.0738L23.1315 56.1548C24.5111 47.5156 28.0521 36.7167 32.0069 28.9046C36.1917 28.3073 41.2043 27.9396 46.3088 27.9396Z" fill="white"/>
<path d="M62.3582 26.5608L60.6107 28.9503C64.5656 36.7624 68.0606 47.5613 69.4862 56.2005C63.278 62.3582 54.0806 69.0214 46.3088 73.0193C38.5371 69.0214 29.3397 62.3582 23.1315 56.2005L20.3263 57.1195C27.0404 64.0584 37.6633 71.7785 46.3088 76.0062C54.9544 71.7785 65.6233 64.0584 72.2914 57.1195C70.9578 47.5613 66.8649 35.0621 62.3582 26.5608Z" fill="#B78B1E"/>
<path d="M56.5177 59.0955C53.4826 63.5989 49.8496 62.496 46.2627 67.0454C42.6757 62.496 39.0428 63.5989 36.0076 59.0955L34.582 60.1524C32.8345 57.3493 32.6046 52.1106 35.2258 49.3994C35.8237 52.1566 37.2952 56.1085 40.7902 56.8438C42.3998 57.1655 43.0896 56.3843 43.1816 54.3623L43.6414 43.8391L37.2493 43.3336V39.9331H44.1473L44.2393 38.4166C42.9516 37.6814 42.1699 36.3028 42.1699 34.8323C42.1699 32.5347 44.0093 30.6965 46.3087 30.6965C48.608 30.6965 50.4475 32.5347 50.4475 34.8323C50.4475 36.3028 49.6657 37.6814 48.3781 38.4166L48.47 39.9331H55.2761V43.3336L48.8839 43.8391L49.3438 54.3623C49.4358 56.3843 50.1256 57.1655 51.7351 56.8438C55.2301 56.1085 56.7017 52.1566 57.2995 49.3994C59.9208 52.1106 59.7368 57.3493 57.9433 60.1524L56.5177 59.0955Z" fill="#B78B1E"/>
<path d="M56.7016 57.1657C57.0235 57.6253 57.3454 58.2226 57.5753 58.7741L56.3337 57.855C56.4716 57.6712 56.6096 57.3955 56.7016 57.1657ZM49.8035 59.4634C54.3103 58.9119 57.7593 55.5574 57.6673 51.3757C56.9775 54.4545 54.7701 57.1657 51.5051 57.9469C51.1831 58.3605 50.4014 59.0958 49.8035 59.4634ZM46.3085 65.667C43.0895 61.5772 38.8127 63.0018 35.9155 57.2117C35.5936 57.6712 35.2717 58.2226 35.0418 58.82C34.1221 57.1657 33.8921 53.6273 34.9498 51.4216C36.3294 55.9709 38.8587 57.2576 40.7901 57.7172C42.7676 58.1767 44.0092 57.3036 44.1472 54.6843L44.745 41.9093L38.8587 41.7255L38.2609 42.5986V40.8984H45.0209L45.1589 37.9574C43.9172 37.4978 43.0895 36.3031 43.0895 34.9245C43.0895 33.1323 44.5611 31.7078 46.3085 31.7078C48.102 31.7078 49.5276 33.1783 49.5276 34.9245C49.5276 36.3031 48.6539 37.4978 47.4582 37.9574L46.3085 37.2221V41.9553L47.5962 40.8984H54.3562L53.7584 41.6796L46.3085 41.9553C46.3085 46.9182 46.3085 65.667 46.3085 65.667ZM44.607 34.9245C44.607 35.8895 45.3888 36.6247 46.3085 36.6247C47.2743 36.6247 48.0101 35.8435 48.0101 34.9245C48.0101 33.9595 47.2283 33.2242 46.3085 33.2242C45.3428 33.1783 44.607 33.9595 44.607 34.9245Z" fill="white"/>
<path d="M45.5729 52.4324L44.3312 51.927L43.6414 51.1458L41.8939 51.3296L40.5143 51.3755L39.4107 52.8001L38.6749 54.0408L38.9048 55.3734L39.0887 56.6142L40.8362 59.0956L43.2735 59.9228L44.5152 59.5551L45.8948 59.739L46.6306 59.5092L48.0102 59.6471L48.792 59.4632L49.9416 59.6011L50.8614 59.4173L52.8848 59.7849L54.3564 60.9797L52.287 61.669L52.7928 62.4502L53.9885 62.8638L55.598 62.3583L56.0119 61.0716L55.598 59.8309L52.9308 57.9008H51.9191L43.7334 58.0387L42.9516 58.0847L41.71 57.6251L40.5143 55.5572L40.6063 53.9489L41.3421 52.9839L42.8137 52.846L44.4232 53.9029L45.5729 52.4324Z" fill="white"/>
<path d="M56.1039 60.3361C56.0579 60.1982 55.9659 60.0604 55.874 59.8765C55.736 59.6927 55.598 59.5089 55.4601 59.417C55.4141 59.3711 55.3681 59.3251 55.3221 59.2791C55.0462 59.0034 54.7243 58.8196 54.4484 58.7737C54.4024 58.6358 54.3104 58.452 54.1724 58.3141C54.0345 58.1763 53.8505 58.0384 53.5746 57.9006C53.1607 57.7167 52.5629 57.5789 51.8271 57.7627C51.3673 57.5329 50.5855 57.487 49.6198 57.8546C49.1599 57.6248 48.4701 57.487 47.5044 57.9006C46.9985 57.6248 46.3087 57.5329 45.343 57.9465C44.8371 57.6708 44.1473 57.5329 43.1816 57.9925C43.0436 57.8546 42.9057 57.7167 42.7217 57.6708C42.5378 57.5789 42.3079 57.5329 41.894 57.441C41.802 56.9815 41.6181 56.5679 40.9283 55.9705C40.9742 55.7408 41.0202 55.511 40.9742 55.2353C40.9742 54.9596 40.8823 54.7298 40.7443 54.3622C40.9283 54.2243 41.0662 54.0865 41.1582 53.9486C41.2961 53.8107 41.3421 53.581 41.4801 53.2593C41.664 53.3053 41.848 53.3512 42.0319 53.3512C42.2159 53.3512 42.4918 53.2593 42.9057 53.1674C43.1816 53.535 43.5495 53.8107 44.4692 54.0405L44.8371 53.6269C44.7911 53.3972 44.7911 53.1214 44.7911 52.8917V52.8457C44.7911 52.7538 44.7911 52.7079 44.7911 52.616C44.7911 52.5241 44.7911 52.3862 44.7452 52.2483C45.159 52.3402 45.435 52.524 45.6189 52.6619L45.9408 52.2943C45.6189 52.0645 45.205 51.7888 44.5612 51.6969C44.4692 51.559 44.3773 51.4212 44.1933 51.2833C44.0554 51.1455 43.8254 51.0536 43.5495 50.9616C43.1356 50.8238 42.4918 50.8238 41.802 51.0995C41.4801 50.9616 40.9742 50.9616 40.4224 51.2374C39.9625 51.4671 39.5027 51.9726 39.3187 52.6619C38.9968 52.8457 38.6749 53.2133 38.5369 53.7648C38.445 54.2243 38.491 54.8217 38.7669 55.465C38.6289 55.7867 38.6289 56.2003 38.8129 56.7058C38.9968 57.0734 39.2727 57.5329 39.7786 57.9006C39.7786 58.0844 39.8246 58.2682 39.9165 58.452C40.0085 58.6358 40.1465 58.8196 40.3304 59.0034C40.6523 59.3251 41.2042 59.6008 41.94 59.6468C42.1699 59.9225 42.5838 60.1523 43.1816 60.1523H43.2276C43.5495 60.1063 43.9634 60.0144 44.3773 59.8306C44.6072 59.9684 44.9291 60.1063 45.343 60.0603C45.6649 60.0603 46.0788 59.9684 46.5846 59.7387C46.8146 59.8765 47.1365 60.0144 47.5044 59.9684C47.8263 59.9684 48.1942 59.8306 48.654 59.6468C48.884 59.7846 49.1599 59.9225 49.5738 59.8765C49.8957 59.8765 50.3096 59.7846 50.7694 59.5549C50.9994 59.6927 51.3673 59.8765 51.7351 59.8306C51.9191 59.8306 52.149 59.7846 52.5169 59.7846C52.7469 60.1523 53.2067 60.5199 53.9425 60.8875C53.7586 60.8875 53.6666 60.9335 53.5286 60.9335C53.4367 60.9794 53.2987 60.9794 53.2067 61.0254C53.1607 61.0254 53.0688 61.0713 53.0228 61.0713C52.8388 61.1173 51.8271 61.2551 51.8271 61.2551L52.0111 61.6228C52.4709 62.4959 53.0688 62.8175 53.6206 62.8635C53.7586 62.8635 53.9425 62.9094 54.1265 62.8635C54.3564 62.8175 54.5863 62.7716 54.7243 62.7256C54.7703 62.7256 54.8622 62.6797 54.9542 62.6797C55.2301 62.5878 55.3221 62.5418 55.4141 62.4499C55.4601 62.404 55.5521 62.358 55.598 62.3121C55.598 62.3121 55.644 62.312 55.644 62.2661C56.3338 61.8066 56.2878 60.7956 56.1039 60.3361ZM43.8714 51.6969C44.1473 51.9726 44.1933 52.2943 44.2393 52.57C44.2393 52.6619 44.2393 52.7079 44.2853 52.7998V52.8457C44.2853 53.0295 44.3313 53.2593 44.3313 53.4891C43.7334 53.3053 43.4115 53.1214 43.1816 52.7998C42.9517 52.5241 42.8137 52.2024 42.6298 51.9267C42.5838 51.8807 42.5378 51.7888 42.4918 51.7428C42.4458 51.6509 42.3538 51.559 42.2619 51.4671C43.0896 51.1914 43.5955 51.4671 43.8714 51.6969ZM40.6063 51.6509C40.9742 51.4671 41.2962 51.4671 41.5261 51.559C41.756 51.6509 41.94 51.8348 42.0779 51.9726C42.1239 52.0186 42.1699 52.1105 42.2159 52.1564C42.3079 52.2943 42.4458 52.4781 42.5838 52.6619C42.2159 52.7538 41.986 52.7998 41.802 52.7998C41.5721 52.7998 41.3881 52.7538 41.1582 52.6619C40.9283 52.616 40.6983 52.524 40.4684 52.4781H40.4224C40.3304 52.4781 40.2844 52.4781 40.1925 52.4321C40.0545 52.4321 39.9625 52.4321 39.8246 52.4321C40.0545 52.0645 40.3304 51.7888 40.6063 51.6509ZM39.2267 53.3512C39.5027 53.0295 39.8246 52.9836 40.1465 52.9836C40.2385 52.9836 40.3304 52.9836 40.3764 52.9836C40.5604 52.9836 40.7903 53.0295 40.9742 53.0755C40.7443 53.535 40.6063 53.7648 40.3304 53.9945C40.0545 54.2243 39.7326 54.4081 39.5027 54.5919C39.4567 54.6379 39.3647 54.6838 39.3187 54.7298C39.2267 54.8217 39.1348 54.8677 39.0428 54.9596C38.7669 54.2243 38.9508 53.6269 39.2267 53.3512ZM40.0085 56.7977C39.9625 56.8436 39.9625 56.9355 39.9165 56.9815C39.8706 57.0734 39.8246 57.2113 39.7786 57.3032C39.4567 57.0274 39.2727 56.7058 39.1808 56.476C38.9508 55.8327 39.2727 55.4191 39.5946 55.0974C39.6406 55.0515 39.7326 55.0055 39.7786 54.9596C39.9165 54.8217 40.1005 54.7298 40.2844 54.546C40.5144 55.2353 40.4684 55.6489 40.2844 56.1084C40.1925 56.3382 40.1005 56.6139 40.0085 56.7977ZM40.2844 58.1763C40.1465 57.8087 40.2385 57.487 40.3304 57.2113C40.3764 57.1194 40.3764 57.0734 40.4224 56.9815C40.4684 56.7977 40.5604 56.6139 40.6523 56.3841C41.1122 56.7977 41.2961 57.1194 41.3881 57.487C41.4801 57.8546 41.4341 58.2222 41.4801 58.4979V58.5439C41.4801 58.6358 41.4801 58.6818 41.5261 58.7737C41.5261 58.9115 41.5721 59.0034 41.6181 59.1413C40.7903 58.9575 40.4224 58.5439 40.2844 58.1763ZM54.4484 59.8765C54.4484 59.7846 54.4484 59.6927 54.4944 59.6468C54.4944 59.5549 54.5403 59.3711 54.5403 59.2791C54.6323 59.2791 54.9082 59.5089 55.0002 59.5549C55.0462 59.6008 55.0922 59.6468 55.1382 59.6927C55.5521 60.1063 56.1499 60.7496 55.5521 61.8525C55.4141 61.6687 55.2761 61.4849 55.1382 61.393C55.0922 61.347 55.0462 61.3011 55.0002 61.2551C54.7703 61.0254 54.5403 60.8875 54.4484 60.6118C54.4024 60.3361 54.4024 60.1063 54.4484 59.8765ZM43.1816 59.6927C42.7677 59.6927 42.4918 59.5549 42.3538 59.3711C42.1699 59.1872 42.0779 58.9575 42.0319 58.7277C42.0319 58.6358 41.986 58.5439 41.986 58.4979C41.94 58.3141 41.94 58.0844 41.894 57.8546C42.2619 57.9465 42.4918 57.9925 42.6758 58.1303C42.8597 58.2222 42.9977 58.3601 43.1816 58.4979C43.3656 58.6358 43.5495 58.9115 43.6875 59.0494C43.7334 59.0953 43.7794 59.1413 43.8254 59.2332C43.8714 59.3251 43.9634 59.417 44.0554 59.5089C43.6875 59.6008 43.4115 59.6468 43.1816 59.6927ZM44.1933 58.9575C44.1473 58.9115 44.1013 58.8196 44.0554 58.7737C43.9634 58.6358 43.7794 58.452 43.5955 58.3141C44.8831 57.8546 45.435 58.5439 45.8488 59.0034C45.8948 59.0494 45.9408 59.0953 45.9868 59.1872C46.0328 59.2791 46.1248 59.3711 46.2167 59.463C44.9291 59.8765 44.5612 59.417 44.1933 58.9575ZM47.4584 59.5089C46.8605 59.5089 46.5846 59.1872 46.3547 58.8656C46.3087 58.8196 46.2627 58.7277 46.2167 58.6818C46.1248 58.5439 45.9408 58.3601 45.7569 58.2222C46.5846 57.9465 47.0905 58.1303 47.5044 58.406C47.6883 58.5439 47.8723 58.7737 47.9642 58.9115C48.0102 58.9575 48.0562 59.0034 48.1022 59.0494C48.1482 59.1413 48.2402 59.2332 48.2861 59.3251C47.9642 59.463 47.6883 59.5089 47.4584 59.5089ZM48.4701 58.8196C48.4241 58.7737 48.3781 58.6818 48.3321 58.6358C48.2402 58.4979 48.1022 58.3601 47.9182 58.1763C49.1599 57.7167 49.7117 58.406 50.0796 58.8196C50.1256 58.8656 50.1716 58.9115 50.2176 58.9575C50.2636 59.0494 50.3555 59.1413 50.4475 59.2332C49.2059 59.7387 48.838 59.2791 48.4701 58.8196ZM51.7811 59.417C51.7351 59.417 51.6432 59.417 51.5972 59.417C51.1373 59.3711 50.8154 59.0494 50.5855 58.7737C50.5395 58.7277 50.4935 58.6358 50.4475 58.5899C50.3555 58.452 50.2176 58.3141 50.0336 58.1303C50.8154 57.8546 51.2753 57.9465 51.6432 58.2222C51.7811 58.3141 51.8731 58.4979 51.9651 58.5899C52.0111 58.6818 52.0571 58.7277 52.103 58.8196C52.195 58.9575 52.287 59.1872 52.379 59.3711C52.103 59.417 51.9191 59.417 51.7811 59.417ZM53.9425 60.3361C53.9425 60.382 53.9425 60.382 53.9425 60.428C53.3907 60.1523 53.1148 59.9225 52.9308 59.6008C52.7469 59.2791 52.6549 58.9115 52.5169 58.6358C52.4709 58.5899 52.4709 58.4979 52.4249 58.406C52.379 58.3141 52.333 58.1763 52.241 58.0844C53.0688 57.9925 53.5746 58.3141 53.7586 58.5899C53.9885 58.8656 53.9885 59.2332 53.9885 59.5089C53.9885 59.6008 53.9885 59.6927 53.9885 59.7387V59.7846C53.9885 59.8765 53.9885 59.9684 53.9885 60.0603C53.9425 60.1982 53.9425 60.2901 53.9425 60.3361ZM54.8622 62.358C54.8163 62.358 54.7243 62.404 54.6783 62.404C54.1265 62.5418 53.2527 62.7716 52.5629 61.7147C52.7928 61.6687 53.0228 61.6228 53.1607 61.5768C53.2067 61.5768 53.2987 61.5308 53.3907 61.5308C53.9425 61.347 54.5403 61.1632 55.1842 62.2661C55.0462 62.312 54.9542 62.312 54.8622 62.358Z" fill="#B78B1E"/>
<path d="M47.0903 34.7404L46.1706 34.2809L45.5268 33.4997L43.9632 33.3159L42.9055 33.1321L41.8478 33.8673L41.4799 34.5107L40.7901 35.0162L40.6982 36.6705L40.6062 37.6355L41.296 39.06L41.4799 39.8872L42.4457 40.7603L42.9515 41.6793L43.9172 42.2767L44.2851 43.1039L45.2969 43.7932L45.5728 44.5744L46.7224 45.3096L46.9064 45.9989L48.0101 46.7342L48.378 47.5613L49.5276 48.2966L49.7116 49.0318L50.8153 49.7211L51.0452 50.4564L51.689 51.2376L51.3671 52.1566L51.2292 52.754L50.6313 53.2595L50.3554 53.719H49.6196L48.8838 53.9028L48.148 55.3733L49.0678 55.4652L49.8036 55.1895L50.5853 55.3274L51.4591 54.8678L52.0109 53.9947L52.6547 53.3974L52.9307 52.2485L53.2526 51.1457L52.9766 50.2266L52.3788 49.5373L51.919 48.5263L51.0452 48.0209L50.6313 47.1018L49.6196 46.4125L48.9298 45.3096L48.286 44.942L47.8721 44.0229L46.9524 43.6094L46.4005 42.5065L45.5728 42.0929L45.1589 41.2198L44.1012 40.4386L43.6413 39.5195L42.9975 39.106L42.7676 38.0491L42.2617 37.4517L42.3997 36.5326L42.4457 35.6595L43.1355 34.9242L43.3654 34.6945L44.3311 34.8323H44.837L45.6647 35.7514L46.1246 35.9352L47.0903 34.7404Z" fill="white"/>
<path d="M53.0225 52.2485C53.2065 51.9728 53.3904 51.5592 53.2985 51.0078C53.2065 50.5942 52.9766 50.0888 52.5167 49.6752C52.5167 49.3995 52.3787 49.0318 52.1028 48.7102C51.8729 48.4344 51.551 48.1587 51.0911 47.929C50.9531 47.4235 50.6312 46.872 49.7115 46.4125C49.5735 45.907 49.2516 45.3556 48.3319 44.942C48.1939 44.4365 47.826 43.8851 46.9523 43.4256C46.8143 42.9201 46.4924 42.3686 45.5727 41.9091C45.4347 41.4036 45.0668 40.8522 44.1931 40.3927L43.8252 40.7603C43.8252 40.9901 43.8252 41.2198 43.7792 41.4036C43.7792 41.4496 43.7332 41.5415 43.7332 41.5874C43.7332 41.6794 43.6872 41.7713 43.6872 41.9091C43.3653 41.7713 43.1814 41.5874 43.0434 41.4496C42.6755 41.036 42.7215 40.5765 42.8135 40.2089C42.8135 40.117 42.8595 40.071 42.8595 39.9791C42.9054 39.8412 42.9514 39.6115 42.9974 39.3817C43.3193 39.6115 43.5033 39.7953 43.6412 40.025C43.7792 40.2548 43.8252 40.4846 43.8252 40.7143L44.1931 40.3467C44.1471 40.071 44.0091 39.7953 43.8252 39.5655C43.7332 39.4277 43.6412 39.3358 43.5033 39.1979C43.3653 39.06 43.2274 38.9681 43.0434 38.8303C43.0434 38.3248 42.9054 37.8653 42.3536 37.2679C42.4456 37.0381 42.4916 36.8543 42.5376 36.6245C42.5376 36.3948 42.4916 36.119 42.4456 35.7974C42.6295 35.7055 42.7675 35.6136 42.9055 35.4757C43.0434 35.3378 43.1354 35.2 43.3193 34.9243C43.5033 34.9702 43.6412 35.0621 43.8252 35.0621C44.0091 35.0621 44.2391 35.0621 44.607 35.0162C44.8369 35.3838 45.2508 35.7055 46.0785 36.0731L46.4924 35.7514C46.4924 35.5217 46.5844 35.8433 46.6304 35.6595V35.4757C46.6304 35.4297 46.8603 35.3378 46.8603 35.2919C46.8603 35.2 46.9983 35.2 46.9983 35.0621C47.3202 35.2 47.1362 34.8324 47.3202 35.0162L47.6421 34.7404C47.4122 34.4647 47.0443 34.189 46.4924 34.0052C46.4464 33.8673 46.3545 33.7295 46.2165 33.5916C46.0785 33.4538 45.8946 33.3159 45.6647 33.224C45.2968 33.0402 44.561 32.9023 43.9172 33.0861C43.6412 32.9023 43.1814 32.8104 42.6295 32.9942C42.2156 33.1321 41.7098 33.5457 41.4339 34.0971C41.112 34.235 40.7901 34.5107 40.5601 35.0162C40.3762 35.4297 40.3302 35.9812 40.5141 36.5786C40.3762 36.8543 40.2382 37.2219 40.3762 37.6814C40.4681 38.0491 40.6521 38.5086 41.066 38.8762C41.02 39.1519 41.066 39.5196 41.2959 39.8872C41.4799 40.2089 41.8018 40.5305 42.3076 40.8062C42.3076 40.9441 42.3536 41.082 42.4456 41.2658C42.4916 41.4036 42.5835 41.5415 42.7215 41.6794C42.9514 41.9091 43.2274 42.1389 43.6872 42.3227C43.7332 42.5984 43.8252 42.8741 44.1011 43.1498C44.331 43.3796 44.6529 43.6094 45.0668 43.8391C45.1128 44.1149 45.2048 44.3906 45.4807 44.6663C45.7106 44.8961 46.0326 45.1258 46.4464 45.3556C46.4924 45.6313 46.5844 45.907 46.8603 46.1827C47.0902 46.4125 47.4122 46.6423 47.826 46.872C47.872 47.1478 47.918 47.4235 48.2399 47.6992C48.5158 47.9749 48.7918 48.1587 49.2056 48.3425C49.2516 48.6183 49.3436 48.894 49.6195 49.1697C49.8495 49.3995 50.1714 49.6292 50.5852 49.859C50.5852 49.9049 50.6312 49.9968 50.6312 50.0888C50.6772 50.2726 50.7232 50.4104 50.8152 50.5942C50.9072 50.824 51.0911 51.0078 51.321 51.2835C51.2291 51.4673 51.1371 51.6052 51.0911 51.789C51.0451 51.9728 51.0451 52.1566 51.0451 52.4783C50.8612 52.5702 50.6772 52.7081 50.5393 52.8459C50.3553 53.0297 50.2633 53.2136 50.0334 53.5352C49.8495 53.4893 49.6655 53.4893 49.4816 53.4893C49.2976 53.4893 49.1137 53.5812 48.7918 53.6731L48.6078 54.1786C48.6998 54.3624 48.7918 54.5921 48.8837 54.776C48.9297 54.8219 48.9757 54.9138 48.9757 54.9598C49.0217 55.0517 49.0217 55.1436 49.1137 55.2355C48.6998 55.3274 48.4239 55.3274 48.1479 55.1895L48.01 55.6031C48.4239 55.7869 49.0677 55.7869 49.6655 55.5112C49.9874 55.6031 50.4473 55.6491 50.9072 55.3733C51.275 55.1895 51.6889 54.776 51.9648 54.2245C52.2408 54.1326 52.5627 53.8569 52.7926 53.4433C52.9766 53.1676 53.0685 52.754 53.0225 52.2485ZM45.8486 34.0052C46.0785 34.2809 46.0785 34.6026 46.0325 34.8783C46.0325 34.9702 46.0325 35.0162 46.0325 35.1081C46.0325 35.2919 45.9866 35.4757 45.9866 35.7055C45.4807 35.4297 45.0668 35.2 44.8829 34.9243C44.7449 34.6485 44.607 34.3269 44.515 34.0512C44.469 34.0052 44.469 33.9133 44.423 33.8673C44.377 33.7754 44.331 33.6835 44.2391 33.5916C45.0668 33.4078 45.6647 33.7295 45.8486 34.0052ZM42.7215 33.4538C43.0894 33.3159 43.3653 33.4078 43.5953 33.4997C43.7792 33.5916 43.9172 33.7754 44.0551 33.9592C44.1011 34.0052 44.1471 34.0971 44.1471 34.1431C44.2391 34.2809 44.2851 34.4647 44.377 34.6485C44.0551 34.6485 43.8252 34.6945 43.6412 34.6485C43.4573 34.6026 43.2733 34.5107 43.0894 34.4647C42.9054 34.3728 42.6755 34.2809 42.4916 34.235C42.4456 34.235 42.3536 34.189 42.3076 34.189C42.2156 34.1431 42.0777 34.1431 41.9857 34.1431C42.1697 33.7754 42.4916 33.5457 42.7215 33.4538ZM41.2499 34.7864C41.5258 34.5566 41.8478 34.5566 42.1237 34.6026C42.2156 34.6026 42.2616 34.6485 42.3536 34.6485C42.4916 34.6945 42.7215 34.7405 42.9055 34.8324C42.6295 35.2459 42.4456 35.3838 42.1697 35.5676C41.8937 35.7055 41.5718 35.8433 41.3419 35.9812C41.2959 36.0271 41.2039 36.0271 41.158 36.0731C41.066 36.119 40.974 36.165 40.882 36.2569C40.6981 35.5217 40.974 35.0162 41.2499 34.7864ZM41.3419 38.1869C41.2959 38.2788 41.2499 38.3707 41.158 38.4626C40.928 38.1869 40.7901 37.9112 40.7441 37.6355C40.6061 36.9921 40.974 36.6705 41.2959 36.4407C41.3419 36.3948 41.4339 36.3488 41.4799 36.3029C41.6178 36.2109 41.8018 36.119 41.9857 36.0271C42.0777 36.6705 41.9857 37.0381 41.7558 37.4057C41.6178 37.5895 41.5258 37.7733 41.3879 37.9572C41.3879 38.095 41.3879 38.141 41.3419 38.1869ZM42.3996 39.8872C42.3996 39.9791 42.3536 40.025 42.3536 40.117C42.3076 40.2089 42.3076 40.3008 42.2616 40.4386C41.7098 40.071 41.4799 39.6574 41.4339 39.3357C41.3879 39.0141 41.5258 38.7384 41.6638 38.5086C41.7098 38.4626 41.7558 38.3707 41.7558 38.3248C41.8478 38.1869 41.9397 38.0031 42.0777 37.8193C42.4456 38.2788 42.5376 38.6005 42.5376 38.9681C42.5835 39.2438 42.4916 39.6115 42.3996 39.8872ZM45.1128 42.966C45.1128 43.0579 45.0668 43.1039 45.0668 43.1958C45.0668 43.2877 45.0208 43.3796 45.0208 43.5175C43.9172 42.9201 44.0091 42.3686 44.1011 41.8172C44.1011 41.7253 44.1471 41.6794 44.1471 41.5874C44.1931 41.4496 44.1931 41.2198 44.1931 40.9901C45.3427 41.5415 45.2048 42.3686 45.1128 42.966ZM46.4924 44.4365C46.4924 44.5284 46.4464 44.5744 46.4464 44.6663C46.4464 44.7582 46.4004 44.8501 46.4004 44.988C46.0785 44.8501 45.8946 44.6663 45.7566 44.5284C45.3887 44.1149 45.4347 43.7013 45.5267 43.2877C45.5267 43.1958 45.5727 43.1498 45.5727 43.0579C45.6187 42.8741 45.6187 42.6903 45.6187 42.4606C46.3545 42.8741 46.5384 43.3796 46.5384 43.7932C46.5844 44.023 46.5384 44.2527 46.4924 44.4365ZM47.872 45.953C47.872 46.0449 47.826 46.0908 47.826 46.1827C47.826 46.2747 47.78 46.3666 47.78 46.5044C46.6764 45.907 46.7683 45.3556 46.8603 44.8042C46.8603 44.7123 46.9063 44.6663 46.9063 44.5744C46.9523 44.4365 46.9523 44.2068 46.9523 43.977C48.102 44.5744 47.964 45.4015 47.872 45.953ZM49.2516 47.4235C49.2516 47.5154 49.2056 47.5613 49.2056 47.6532C49.2056 47.7451 49.1597 47.8371 49.1597 47.9749C48.8377 47.8371 48.6538 47.6532 48.5158 47.5154C48.1479 47.1018 48.2399 46.6882 48.2859 46.3206C48.2859 46.2287 48.3319 46.1827 48.3319 46.0908C48.3779 45.907 48.3779 45.7232 48.3779 45.4935C49.0677 45.907 49.2976 46.8261 49.2976 46.8261C49.2976 47.0099 49.2976 47.2397 49.2516 47.4235ZM50.6312 48.9399C50.6312 49.0318 50.5852 49.0778 50.5852 49.1697C50.5852 49.2616 50.5393 49.3535 50.5393 49.4914C49.4356 48.894 49.5275 48.3425 49.6195 47.7911C49.6195 47.6992 49.6655 47.6532 49.6655 47.5613C49.7115 47.3775 49.7115 47.1937 49.7115 46.9639C50.8612 47.5613 50.7232 48.3885 50.6312 48.9399ZM50.9531 49.7211C50.9531 49.5833 50.9991 49.4454 51.0451 49.2616C51.0451 49.1697 51.0911 49.1237 51.0911 49.0318C51.1371 48.848 51.1371 48.6642 51.1371 48.4344C51.413 48.5723 51.597 48.7561 51.7349 48.9399C51.7349 48.9399 51.7349 48.9859 51.7809 48.9859C51.9189 49.1697 52.0108 49.3995 52.0568 49.5833C52.0568 49.813 52.0108 50.0888 51.9189 50.2726C51.8729 50.3185 51.8729 50.4104 51.8269 50.4564C51.7809 50.5942 51.6429 50.778 51.551 50.9619C51.0911 50.5023 50.9531 50.1347 50.9531 49.7211ZM50.2173 55.2355C49.8495 55.2355 49.6195 55.0057 49.4356 54.8219C49.3896 54.776 49.3436 54.6841 49.2976 54.6381C49.2056 54.5002 49.1137 54.3164 48.9757 54.1786C49.4356 54.0407 49.6655 54.0407 49.9874 54.0867C50.3093 54.1326 50.6312 54.2705 50.9072 54.3164C50.9531 54.3164 51.0451 54.3624 51.0911 54.3624C51.1831 54.4083 51.321 54.4083 51.413 54.4083C51.0911 55.0057 50.5852 55.2355 50.2173 55.2355ZM52.4247 53.3514C52.1028 53.9029 51.6429 53.9488 51.275 53.9029C51.1831 53.9029 51.1371 53.9029 51.0451 53.8569C50.9072 53.8569 50.6772 53.765 50.4933 53.765C50.8152 53.2136 51.1371 53.0757 51.505 52.8919C51.7349 52.8459 51.9189 52.8459 52.1028 52.8C52.1488 52.8 52.2408 52.754 52.2868 52.754C52.3787 52.7081 52.5167 52.7081 52.6087 52.6162C52.6087 52.8919 52.5167 53.1217 52.4247 53.3514ZM52.8386 51.6512C52.7006 52.0188 52.4247 52.1566 52.1948 52.2945C52.1488 52.3405 52.0568 52.3405 52.0108 52.3864C51.8729 52.4324 51.6429 52.4783 51.459 52.5243C51.459 52.0647 51.551 51.789 51.6889 51.5133C51.8269 51.2376 52.0568 50.9619 52.1948 50.7321C52.2408 50.6861 52.2868 50.5942 52.2868 50.5483C52.3327 50.4564 52.3787 50.3645 52.4247 50.2266C52.8846 50.778 52.9766 51.3295 52.8386 51.6512Z" fill="#B78B1E"/>
</svg>
