<svg viewBox="0 0 143 80" fill="none" xmlns="http://www.w3.org/2000/svg">
<g clip-path="url(#clip0_2195_13330)">
<path d="M71.5 2.2804L4.07498 40.0028L71.5 77.7196L138.919 40.0028L71.5 2.2804Z" fill="white"/>
<path d="M71.5 0L0 40.0028L71.5 80.0057L143 40.0028L71.5 0ZM8.15557 40.0028L71.5 4.56079L134.844 39.9972L71.5 75.4336L8.15557 40.0028Z" fill="#E31024"/>
<path d="M108.293 29.7072L68.3947 52.0313C66.8757 51.5911 65.3231 50.8629 63.9554 49.6663C61.3602 47.3972 60.0486 43.9653 60.0486 39.461C60.0486 38.2135 60.1327 37.0677 60.2784 35.9896L76.0739 27.1559C77.6489 28.1775 78.77 29.7806 78.7924 31.9312L78.8148 33.743H86.2529V21.4605L89.8963 19.4229L71.5 9.13287L16.3112 40.0028L34.7074 50.2928L49.1072 42.2381C49.6846 46.6973 51.7024 50.75 54.9478 53.8432C56.2651 55.102 57.7841 56.1688 59.4432 57.038L53.1037 60.5885L71.5 70.8784L126.689 40.0028L108.293 29.7128V29.7072ZM70.9451 57.9073C58.6361 57.9581 50.7495 49.655 50.7495 39.5626C50.7495 29.4701 58.5352 20.9525 69.6783 20.8961C74.7622 20.8961 77.8395 22.4314 80.6141 24.2941V21.7033H84.4368V31.8973H80.6141C80.5636 27.7429 77.0548 24.0232 71.5617 24.0232C66.276 24.0796 58.2325 26.2923 58.2325 39.4497C58.2325 50.3493 65.4576 54.4529 72.834 54.4529C77.1613 54.4529 80.5692 52.9401 84.2294 50.1856L86.5164 52.8837C82.9627 55.3108 77.6713 57.9017 70.9507 57.9017" fill="#E31024"/>
</g>
<defs>
<clipPath id="clip0_2195_13330">
<rect width="143" height="80" fill="white"/>
</clipPath>
</defs>
</svg>
