<svg width="364" height="147" viewBox="0 0 364 147" fill="none" xmlns="http://www.w3.org/2000/svg">
<path d="M0.166992 0.550921V28.0098H364V0.550921H0.166992Z" fill="#EB222C"/>
<path d="M0 146.551H364V119.093H0V146.551Z" fill="#EB222C"/>
<path fill-rule="evenodd" clip-rule="evenodd" d="M354.894 8.90277H349.827V11.8575H352.104C353.021 11.8575 353.716 12.1068 354.215 12.6299C354.657 12.9946 355 13.5633 355.233 14.3814C355.444 15.1537 355.55 16.0409 355.55 17.0631C355.55 17.9727 355.444 18.7682 355.221 19.4728C355 20.2009 354.671 20.7457 354.227 21.1549C353.808 21.6792 353.099 21.9285 352.104 21.9504H347.613V5.74114H354.894V8.90277ZM351.658 14.8362H349.827V18.9956H351.619C352.13 18.9956 352.498 18.8836 352.719 18.6329C353.087 18.3592 353.271 17.8149 353.285 16.9948C353.308 16.1768 353.14 15.5847 352.76 15.1756C352.549 14.9482 352.181 14.8362 351.658 14.8362V14.8362ZM324.292 5.74114L326.349 13.6754L327.935 5.74114H330.331L327.293 18.6329C326.925 20.177 326.52 21.1549 326.061 21.5877C325.603 22.0199 325.053 22.2241 324.397 22.2017C323.9 22.2017 323.428 22.134 322.984 21.9504V18.8364C323.534 18.9956 323.849 19.0638 323.924 19.0878C324.212 19.0195 324.448 18.8836 324.66 18.6767C324.869 18.4732 325.014 18.088 325.104 17.4953L321.658 5.74114H324.292ZM294.963 21.9504V18.8364C295.58 18.9956 296.052 18.8364 296.406 18.3154C296.864 17.6552 297.113 16.0634 297.152 13.5177L297.218 5.74114H304.132V21.9504H301.919V8.90277H299.26L299.209 14.585C299.209 15.6318 299.167 16.542 299.09 17.3363C299.024 18.1099 298.893 18.7921 298.697 19.4286C298.501 20.065 298.213 20.6099 297.82 21.0666C297.138 21.8828 296.195 22.1778 294.963 21.9504ZM272.398 12.6538H272.436L275.672 5.74114H278.252L274.507 13.1543L278.462 21.9504H275.762L272.436 13.9486H272.398L272.436 21.9504H270.222V5.74114H272.436L272.398 12.6538ZM224.875 5.74114V16.2225L228.568 5.74114H230.81V21.9504H228.568V11.381L224.875 21.9504H222.636V5.74114H224.875ZM224.063 1.78472H225.594C225.594 2.24007 225.688 2.60479 225.884 2.89976C226.054 3.17164 226.33 3.30877 226.708 3.33134C227.444 3.33134 227.836 2.83221 227.889 1.78472H229.369C229.316 2.69491 229.081 3.44472 228.648 4.08115C228.151 4.65004 227.507 4.92311 226.708 4.94704C225.868 4.94704 225.228 4.6738 224.758 4.08115C224.363 3.44472 224.14 2.69491 224.063 1.78472V1.78472ZM193.43 5.74114H195.671V11.6282H197.976C198.71 11.6282 199.364 11.8575 199.94 12.3582C200.386 12.7672 200.727 13.3797 200.989 14.2203C201.222 15.0178 201.329 15.9255 201.302 16.9948C201.302 18.9737 200.883 20.3825 200.047 21.2482C199.783 21.4757 199.509 21.6349 199.194 21.7708C198.853 21.8828 198.448 21.9285 197.976 21.9504H193.43V5.74114ZM202.024 21.9504V5.74114H204.237V21.9504H202.024ZM197.453 14.8125H195.671V18.8364H197.504C197.845 18.8364 198.146 18.7225 198.434 18.4951C198.551 18.4274 198.669 18.2677 198.802 17.9727C198.906 17.6995 198.97 17.3363 198.999 16.837C198.999 15.9731 198.802 15.3825 198.408 15.0417C198.211 14.9039 197.896 14.8362 197.453 14.8125V14.8125ZM172.991 14.9722H169.584V21.9504H167.358V5.74114H169.584V11.8575H172.991V5.74114H175.191V21.9504H172.991V14.9722ZM143.081 5.74114V16.2225L146.776 5.74114H149.015V21.9504H146.776V11.381L143.081 21.9504H140.841V5.74114H143.081ZM142.269 1.78472H143.803C143.803 2.24007 143.894 2.60479 144.09 2.89976C144.26 3.17164 144.534 3.30877 144.916 3.33134C145.648 3.33134 146.041 2.83221 146.094 1.78472H147.574C147.522 2.69491 147.285 3.44472 146.854 4.08115C146.357 4.65004 145.714 4.92311 144.916 4.94704C144.078 4.94704 143.435 4.6738 142.964 4.08115C142.57 3.44472 142.349 2.69491 142.269 1.78472V1.78472ZM117.776 8.90277V12.199H122.334V15.1095H117.776V18.8364H123.068V21.9504H115.575V5.74114H122.976V8.90277H117.776ZM92.1553 12.6538H92.1944L95.4307 5.74114H98.0128L94.2656 13.1543L98.2206 21.9504H95.5226L92.1944 13.9486H92.1553L92.1944 21.9504H89.9802V5.74114H92.1944L92.1553 12.6538ZM66.5893 12.6538H66.6284L69.8646 5.74114H72.4451L68.6979 13.1543L72.6546 21.9504H69.9566L66.6284 13.9486H66.5893L66.6284 21.9504H64.4142V5.74114H66.6284L66.5893 12.6538ZM41.7148 22.3594C40.2483 22.3594 39.1343 21.7031 38.3491 20.3606C37.4328 18.7225 36.9729 16.5639 36.9729 13.8346C36.9729 11.1754 37.4328 9.03872 38.3491 7.37873C38.7681 6.60499 39.2655 6.08396 39.8429 5.76303C40.4186 5.46942 41.0352 5.33213 41.7148 5.31023C42.3569 5.31023 42.9735 5.44549 43.5764 5.76303C44.1266 6.08396 44.6239 6.60499 45.0685 7.37873C45.5011 8.12921 45.8299 9.06061 46.0785 10.1975C46.3136 11.2888 46.4311 12.494 46.4311 13.8346C46.4311 15.1312 46.3255 16.3379 46.0904 17.4953C45.8554 18.5886 45.513 19.5426 45.0685 20.3606C44.2697 21.6792 43.1574 22.3375 41.7148 22.3594V22.3594ZM41.7148 19.2456C42.069 19.2456 42.4097 19.1334 42.7623 18.9041C43.0791 18.7225 43.3669 18.2472 43.6292 17.4497C43.8898 16.542 44.021 15.3367 44.0346 13.8346C44.0346 12.382 43.9035 11.1973 43.6292 10.244C43.2358 9.06061 42.6056 8.46983 41.7148 8.44607C41.3486 8.44607 40.996 8.53823 40.6553 8.76565C40.3402 8.99103 40.0507 9.47166 39.7901 10.244C39.5022 11.1535 39.3574 12.3343 39.3438 13.8346C39.3438 15.3367 39.4886 16.542 39.7901 17.4497C40.0387 18.2239 40.3283 18.7006 40.6553 18.9281C40.996 19.1334 41.3486 19.223 41.7148 19.2456ZM17.1213 21.9504L15.1813 16.3584L13.2311 21.9504H10.4922L13.7676 13.5633L10.7409 5.74114H13.3605L15.1813 11.084L16.9629 5.74114H19.5979L16.5967 13.5633L19.8857 21.9504H17.1213" fill="white"/>
<path fill-rule="evenodd" clip-rule="evenodd" d="M347.1 140.58V125.733H351.776C352.536 125.733 353.125 125.92 353.571 126.295C353.965 126.627 354.252 127.084 354.447 127.69C354.632 128.252 354.711 128.856 354.697 129.543C354.683 130.334 354.527 130.979 354.227 131.522C353.939 132.021 353.571 132.376 353.125 132.585V132.686C353.348 132.729 353.571 132.832 353.82 133C354.055 133.167 354.266 133.394 354.476 133.686C354.683 133.978 354.843 134.353 354.971 134.831C355.089 135.332 355.143 135.852 355.155 136.415C355.155 137.372 355.012 138.165 354.724 138.789C354.436 139.412 354.055 139.872 353.571 140.205C353.334 140.308 353.06 140.392 352.719 140.477C352.352 140.538 351.973 140.559 351.553 140.58H347.1ZM351.003 128.481H349.299V131.646H351.12C351.502 131.646 351.789 131.541 351.987 131.334C352.273 131.084 352.418 130.667 352.432 130.044C352.432 129.355 352.248 128.919 351.881 128.689C351.725 128.566 351.437 128.501 351.003 128.481V128.481ZM351.331 134.31H349.299V137.873H351.318C351.738 137.873 352.038 137.79 352.236 137.601C352.616 137.289 352.8 136.768 352.81 136.04C352.81 135.332 352.626 134.831 352.236 134.499C352.077 134.373 351.776 134.31 351.331 134.31ZM321.434 135V125.733H323.619V134.436C323.619 135.478 323.711 136.226 323.897 136.705C324.142 137.622 324.655 138.08 325.454 138.08C326.2 138.08 326.738 137.664 327.079 136.789C327.235 136.332 327.314 135.561 327.314 134.436V125.733H329.502V135C329.502 135.872 329.451 136.665 329.344 137.394C329.24 138.102 328.952 138.81 328.479 139.519C328.191 139.935 327.813 140.268 327.341 140.517C326.869 140.766 326.239 140.892 325.454 140.913C324.091 140.913 323.108 140.454 322.481 139.519C322.178 139.081 321.957 138.58 321.788 138.019C321.628 137.518 321.538 137.019 321.485 136.496C321.458 136.103 321.446 135.602 321.434 135ZM300.307 137.727H304.657V140.58H298.092V125.733H300.307V137.727ZM278.845 135.332H281.021C281.021 135.833 280.954 136.415 280.809 137.08C280.666 137.768 280.455 138.372 280.154 138.893C279.46 140.225 278.346 140.935 276.8 141.059C275.4 141.059 274.311 140.496 273.54 139.329C272.663 138.059 272.23 136.103 272.216 133.416C272.216 130.667 272.663 128.566 273.579 127.106C274.286 126.003 275.32 125.419 276.71 125.336C278.123 125.336 279.186 125.879 279.907 127.003C280.496 127.939 280.837 129.188 280.94 130.752H278.765C278.726 130.105 278.571 129.521 278.27 128.982C277.967 128.46 277.483 128.211 276.815 128.211C276.107 128.211 275.543 128.689 275.125 129.647C274.914 130.146 274.771 130.709 274.693 131.334C274.613 131.916 274.589 132.562 274.601 133.292C274.601 134.728 274.783 135.894 275.177 136.789C275.584 137.727 276.161 138.183 276.905 138.204C277.561 138.204 278.033 137.914 278.334 137.31C278.622 136.705 278.793 136.061 278.845 135.332V135.332ZM229.241 125.733L231.232 132.167L233.21 125.733H235.661L232.305 135V140.58H230.079V135L226.739 125.733H229.241ZM205.389 128.627V131.646H209.947V134.31H205.389V137.727H210.681V140.58H203.188V125.733H210.587V128.627H205.389ZM179.904 125.733V131.792L183.481 125.733H186.242L182.485 131.895L186.53 140.58H183.742L180.966 134.186L179.904 135.894V140.58H177.69V125.733H179.904ZM158.402 135.332H160.576C160.576 135.833 160.511 136.415 160.368 137.08C160.223 137.768 160.014 138.372 159.712 138.893C159.019 140.225 157.905 140.935 156.358 141.059C154.957 141.059 153.87 140.496 153.097 139.329C152.22 138.059 151.787 136.103 151.773 133.416C151.773 130.667 152.22 128.566 153.136 127.106C153.843 126.003 154.878 125.419 156.267 125.336C157.682 125.336 158.743 125.879 159.464 127.003C160.053 127.939 160.394 129.188 160.497 130.752H158.322C158.285 130.105 158.126 129.521 157.825 128.982C157.525 128.46 157.04 128.211 156.372 128.211C155.664 128.211 155.101 128.689 154.682 129.647C154.473 130.146 154.328 130.709 154.25 131.334C154.17 131.916 154.144 132.562 154.158 133.292C154.158 134.728 154.342 135.894 154.734 136.789C155.141 137.727 155.716 138.183 156.464 138.204C157.118 138.204 157.59 137.914 157.891 137.31C158.179 136.705 158.35 136.061 158.402 135.332V135.332ZM130.162 140.953C128.694 140.953 127.582 140.351 126.795 139.122C125.879 137.622 125.42 135.644 125.42 133.146C125.42 130.709 125.879 128.751 126.795 127.23C127.214 126.524 127.713 126.043 128.289 125.754C128.864 125.482 129.481 125.358 130.162 125.336C130.804 125.336 131.419 125.46 132.022 125.754C132.571 126.043 133.07 126.524 133.514 127.23C133.947 127.919 134.276 128.773 134.524 129.813C134.759 130.813 134.879 131.916 134.879 133.146C134.879 134.332 134.773 135.435 134.538 136.496C134.301 137.498 133.961 138.372 133.514 139.122C132.717 140.329 131.603 140.935 130.162 140.953ZM130.162 138.102C130.517 138.102 130.855 137.997 131.21 137.79C131.525 137.622 131.811 137.186 132.075 136.456C132.336 135.624 132.467 134.519 132.482 133.146C132.482 131.814 132.349 130.73 132.075 129.854C131.682 128.773 131.051 128.231 130.162 128.211C129.796 128.211 129.442 128.292 129.101 128.501C128.786 128.71 128.498 129.148 128.236 129.854C127.946 130.687 127.803 131.771 127.791 133.146C127.791 134.519 127.934 135.624 128.236 136.456C128.485 137.165 128.772 137.601 129.101 137.81C129.442 137.997 129.796 138.08 130.162 138.102V138.102ZM105.947 134.186H102.542V140.58H100.316V125.733H102.542V131.334H105.947V125.733H108.149V140.58H105.947V134.186ZM57.4737 128.627V131.646H62.0334V134.31H57.4737V137.727H62.7657V140.58H55.2731V125.733H62.6755V128.627H57.4737ZM35.9597 135.332H38.1331C38.1331 135.833 38.0684 136.415 37.9236 137.08C37.7805 137.768 37.5693 138.372 37.2696 138.893C36.5746 140.225 35.4624 140.935 33.9158 141.059C32.514 141.059 31.4274 140.496 30.6541 139.329C29.7769 138.059 29.3443 136.103 29.3307 133.416C29.3307 130.667 29.7769 128.566 30.6933 127.106C31.4001 126.003 32.4357 125.419 33.8239 125.336C35.2393 125.336 36.3004 125.879 37.0209 127.003C37.6085 127.939 37.9509 129.188 38.0548 130.752H35.8814C35.8422 130.105 35.6838 129.521 35.3823 128.982C35.0809 128.46 34.5971 128.211 33.9278 128.211C33.2209 128.211 32.6588 128.689 32.2398 129.647C32.0286 130.146 31.8838 130.709 31.8072 131.334C31.7288 131.916 31.7016 132.562 31.7152 133.292C31.7152 134.728 31.8975 135.894 32.2909 136.789C32.698 137.727 33.2737 138.183 34.0197 138.204C34.6755 138.204 35.1473 137.914 35.4488 137.31C35.7366 136.705 35.9069 136.061 35.9597 135.332V135.332ZM9.72266 140.58V125.733H11.9369V140.58H9.72266Z" fill="white"/>
<path d="M141.596 80.1291C139.874 86.0466 138.251 91.6307 136.626 97.2161C136.682 97.2446 136.738 97.275 136.794 97.3055C138.876 94.2983 140.877 91.2316 143.054 88.2953C153.384 74.3482 164.915 61.5226 178.593 50.7139C185.499 45.2571 194.516 46.4266 199.127 53.5394C200.268 55.3042 201.03 57.3646 201.68 59.3813C205.739 71.9522 209.715 84.5497 213.721 97.1379C213.927 97.7875 214.157 98.4292 214.71 99.057C215.582 95.4626 216.405 91.8548 217.339 88.2755C218.655 83.2344 220.077 78.2178 221.401 73.1808C221.699 72.0505 222.191 71.5685 223.452 71.5007C226.236 71.3529 229.009 70.969 232.027 70.6569C231.903 71.2628 231.833 71.7501 231.702 72.2181C229.685 79.4092 227.693 86.6055 225.623 93.7773C224.887 96.323 225.104 98.6162 227.025 100.529C228.955 102.451 231.264 102.557 233.813 101.887C246.022 98.6673 257.03 93.1594 266.691 85.0184C270.38 81.9111 271.756 77.2453 270.199 72.8359C268.687 68.5428 264.619 65.5673 260.029 65.4129C253.427 65.1888 246.819 64.695 240.224 64.8341C233.09 64.9833 225.971 65.7285 218.846 66.2124C218.5 66.2356 218.153 66.2548 217.505 66.292C218.234 63.8635 218.863 61.6075 219.592 59.3859C220.367 57.0219 221.27 54.7002 222.053 52.3395C223.186 48.9319 225.598 47.2466 229.115 47.0968C244.899 46.4179 260.664 46.5625 276.418 47.9474C281.451 48.389 286.173 49.3608 290.179 52.6397C297.458 58.6057 299.789 68.257 296.028 76.9198C295.939 77.1246 295.902 77.3507 296.087 77.751C297.22 76.4597 298.351 75.1683 299.485 73.8768C306.557 65.8253 314.173 58.3405 322.549 51.6202C327.283 47.8215 332.336 46.6335 337.989 49.1639C341.287 50.641 343.573 53.1847 344.864 56.5299C350.779 71.8687 355.724 87.5197 359.755 103.45C361.491 110.318 355.964 115.576 349.023 113.872C336.06 110.688 323.457 106.447 311.231 101.096C310.695 100.86 310.173 100.586 309.381 100.206C311.221 97.6623 312.934 95.1841 314.801 92.8306C315.072 92.4892 316.172 92.5184 316.743 92.7437C322.713 95.1013 328.65 97.535 334.6 99.9434C336.671 100.781 338.684 100.851 340.449 99.2691C342.263 97.6404 342.389 95.6236 341.738 93.3922C339.895 87.0788 338.151 80.7384 336.298 74.4283C334.799 69.3282 330.853 68.3014 327.037 71.9656C320.536 78.2059 314.871 85.1695 309.725 92.5217C305.13 99.0809 300.867 105.873 296.515 112.597C295.953 113.468 295.472 113.685 294.505 113.334C290.427 111.852 286.297 110.516 282.245 108.972C278.535 107.558 277.379 104.044 279.535 100.727C282.928 95.5082 286.45 90.3711 289.969 85.1218C289.673 85.3134 289.347 85.4612 289.104 85.6939C274.187 100.016 256.411 108.554 235.988 111.664C232.876 112.137 229.709 112.256 226.565 112.492C222.155 112.821 218.665 111.194 216.185 107.509C216.051 107.312 215.983 107.069 215.736 106.513C214.295 111.188 211.602 113.712 207.158 113.651C205.179 113.625 203.19 112.969 201.239 112.463C189.247 109.343 177.603 105.23 166.283 100.203C166.024 100.087 165.784 99.9281 165.27 99.6425C167.211 96.907 169.087 94.2646 171.052 91.4968C172.655 92.2061 174.14 92.9121 175.66 93.528C180.616 95.5408 185.586 97.5163 190.548 99.5105C192.547 100.317 194.442 100.142 196.046 98.6938C197.712 97.1901 197.996 95.31 197.366 93.1594C195.448 86.6221 193.649 80.0509 191.721 73.5148C190.366 68.9139 186.31 67.8685 182.829 71.1932C176.051 77.665 170.184 84.9215 164.852 92.5793C160.346 99.0558 156.186 105.769 151.872 112.376C151.713 112.619 151.54 112.852 151.247 113.27C146.656 111.63 142.066 110.024 137.505 108.346C135.563 107.631 134.541 106.07 134.074 103.499C133.499 104.515 133.165 105.074 132.86 105.647C131.433 108.33 129.358 110.146 126.214 110.401C117.44 111.115 108.675 112.137 99.8881 112.395C88.168 112.74 76.4103 112.919 64.7072 112.351C54.0941 111.835 43.5237 110.309 32.9532 109.054C28.5315 108.531 24.115 107.748 19.7852 106.715C16.9357 106.034 14.0623 105.018 11.5159 103.589C5.30919 100.104 3.35044 94.1744 4.1135 87.6238C5.95303 71.8588 10.1226 56.5824 14.6755 41.4113C15.0314 40.2306 15.5765 39.6619 16.825 39.504C20.998 38.983 25.1591 38.3619 29.3252 37.7797C29.3934 37.9461 29.4615 38.1125 29.5296 38.275C28.4702 39.8044 27.3801 41.3132 26.3513 42.8625C23.449 47.238 21.6316 52.0219 21.044 57.2394C20.3439 63.4545 23.0334 68.3047 27.4125 72.3831C33.7026 78.2417 41.4218 81.4782 49.4953 83.9543C59.5548 87.0418 69.8817 88.7554 80.3908 89.0438C88.1782 89.2579 95.9979 89.3886 103.766 88.9351C115.466 88.2529 126.796 85.5023 137.808 81.4987C138.953 81.0824 140.099 80.6702 141.596 80.1291" fill="#127BCA"/>
<path d="M85.0048 34.8424C84.2418 34.8424 83.8347 34.8185 83.4293 34.8458C74.5059 35.4398 65.6796 36.6363 57.1087 39.2769C50.42 41.3393 44.0311 43.9904 38.7952 48.8546C33.4742 53.8015 32.9854 60.0094 37.9129 65.3402C39.8138 67.3973 42.1592 69.188 44.5999 70.5861C55.741 76.9711 68.088 79.0753 80.6632 80.136C88.8644 80.8288 97.0725 80.6862 105.267 79.8039C115.374 78.716 125.251 76.735 134.498 72.3549C138.879 70.2792 143.004 67.7892 145.81 63.6603C148.559 59.6156 148.56 55.1068 145.551 51.261C144.108 49.4174 142.332 47.7547 140.451 46.3473C136.321 43.2606 131.572 41.344 126.691 39.7489C117.757 36.8299 108.542 35.4398 99.1981 34.8955C95.4748 34.6779 91.7293 34.8609 88.0281 34.8609C87.1441 37.8363 87.3008 37.7004 89.0807 39.7589C90.0533 40.8846 90.7721 42.5134 90.9441 43.9918C91.3597 47.6016 89.9443 50.852 88.161 53.9201C86.1034 57.4557 83.4021 60.4152 79.8252 63.1425C81.5898 53.5111 83.2709 44.3214 85.0048 34.8424V34.8424ZM90.348 32.8177C103.386 32.8582 117.21 34.1549 130.617 38.4151C136.992 40.443 143.115 43.0364 148.283 47.4305C150.865 49.625 152.916 52.1979 153.617 55.6273C154.384 59.3782 153.067 62.5505 150.69 65.315C146.329 70.3878 140.485 73.1968 134.369 75.4761C123.752 79.4339 112.702 81.2325 101.424 81.9472C87.3826 82.8362 73.4686 82.0811 59.725 78.9804C52.8608 77.4311 46.1056 75.435 40.0437 71.7967C37.0238 69.9854 34.0533 67.8282 31.6807 65.2626C27.1687 60.378 27.4975 54.312 32.0264 49.4094C36.7769 44.2703 42.9563 41.4951 49.3844 39.2192C62.319 34.6409 75.7697 33.1724 90.348 32.8177" fill="#127BCA"/>
<path d="M104.708 38.7695C115.534 40.4667 126.016 42.3673 134.628 49.3629C140.698 54.2931 140.676 60.5561 134.803 65.7172C134.047 66.3821 133.241 67.0019 132.407 67.5668C126.484 71.5737 119.774 73.5698 112.872 75.021C102.484 77.2047 91.9694 77.6637 81.4228 76.7606C72.3819 75.9882 63.455 74.4336 55.1976 70.4519C52.3378 69.0723 49.57 67.3261 47.1241 65.3082C41.9683 61.0546 41.89 54.9295 46.6591 50.2696C50.3143 46.6983 54.8416 44.5789 59.5614 42.8817C66.1956 40.4952 73.104 39.3024 80.0925 38.5369C80.2629 38.5182 80.44 38.5626 80.876 38.603C80.2816 41.9298 79.6991 45.2206 79.1029 48.5109C78.1747 53.6416 77.2072 58.7689 76.3198 63.906C75.865 66.53 77.3332 68.1899 80.0125 68.0269C85.3062 67.7007 90.1043 65.8716 94.48 62.9388C95.5037 62.2512 96.34 61.4451 97.442 62.8519C98.4452 64.132 98.7058 65.6423 97.5629 66.691C96.4967 67.6689 95.209 68.5426 93.8634 69.0506C87.4813 71.4617 80.9374 71.3682 74.3542 69.9754C73.7206 69.8408 73.1006 69.6446 72.2507 69.4131C72.0327 70.2975 71.83 71.1136 71.549 72.2526C74.3525 72.7193 76.9534 73.2589 79.5798 73.5679C85.5004 74.2693 91.4584 74.8474 97.3705 73.7481C99.8402 73.288 102.339 72.4395 104.551 71.2601C107.834 69.51 107.728 66.6778 104.616 64.6207C103.586 63.9384 102.625 63.1523 101.634 62.4143C101.715 62.1771 101.799 61.9424 101.881 61.7049C103.007 61.6486 104.134 61.5943 105.352 61.532C105.638 60.2366 105.415 59.4072 103.804 59.3355C102.465 59.276 101.135 59.02 99.5387 58.8198C104.582 52.9507 107.665 46.7886 104.708 38.7695" fill="#127BCA"/>
</svg>