<svg xmlns="http://www.w3.org/2000/svg" width="36" height="24" fill="none" viewBox="0 0 36 24">
  <path fill="#FDB016" d="M1.17 9.49a29.95 29.95 0 015.06-2.83 29.68 29.68 0 015.28-1.79 7.7 7.7 0 01.44-4.25l.17-.4.26.34c.45.6 1.05 1.1 1.71 1.54.67.45 1.4.82 2.1 1.16.3.16.61.3.93.48.28.15.56.32.83.5-.08-.39-.1-.82-.09-1.25.03-.7.15-1.4.3-1.91l.13-.44.3.34c.38.42 1.32.89 2.38 1.41a41 41 0 011.66.86 13.93 13.93 0 013.59 2.69c1.1.48 2.07 1.01 3.13 1.59l.13.07.21.12-.1.21a8.4 8.4 0 01-.34.66 20.1 20.1 0 013.31 2.26 22.7 22.7 0 013.14 3.2l.15.19-.16.16a8.26 8.26 0 01-.88.76l.77.92.24.29-.36.12c-3.45 1.12-6.95 2.36-10.45 3.6-2.01.72-4.02 1.43-5.98 2.1a323.76 323.76 0 01-4.14 1.4l-.24.09-.08-.24A18.9 18.9 0 009.35 15c-2.3-2.1-5.19-3.58-8.64-4.69l-.47-.15.4-.3a15.39 15.39 0 01.5-.35l.03-.03z"/>
  <path fill="#041E42" d="M1.28 9.73A30.49 30.49 0 0111.8 5.07a7.35 7.35 0 01.37-4.35c.94 1.24 2.49 2.09 3.9 2.77.62.3 1.23.61 1.81 1.02l.4.02c-.33-1-.15-2.49.11-3.38.61.68 2.49 1.42 4.11 2.32 1.54.85 2.56 1.64 3.57 2.68 1.15.5 2.16 1.06 3.28 1.68a4 4 0 01-.48.83l-.01.02a21.17 21.17 0 016.64 5.54c-.35.35-.7.64-1.07.9l.95 1.12c-5.43 1.77-10.97 3.83-16.44 5.72-1.39.48-2.77.95-4.14 1.4C12.43 16.05 7.76 12.32.79 10.08l.52-.38-.03.03z"/>
  <path fill="#041E42" d="M.79 10.08A30.32 30.32 0 0111.8 5.07a7.35 7.35 0 01.37-4.35c.94 1.24 2.49 2.09 3.9 2.77.62.3 1.23.61 1.81 1.02l.4.02c-.33-1-.15-2.49.11-3.38.61.68 2.49 1.42 4.11 2.32 1.54.85 2.56 1.64 3.57 2.68 1.15.5 2.16 1.06 3.28 1.68a4 4 0 01-.48.83l-.01.02a21.17 21.17 0 016.64 5.54A5.94 5.94 0 0130.13 16l-.14-.11-.36.5-10.86 3.42c-2.12.6-3.82-.15-4.49-1.9a5.4 5.4 0 01-.27-1.7l-.59.4c.05-.72.13-1.3.28-1.94A26.35 26.35 0 00.79 10.08z"/>
  <path fill="#FEFEFE" fill-rule="evenodd" d="M13.87 13.96A25.92 25.92 0 002.6 9.62a34.83 34.83 0 018.13-3.6l1.25-.3a11.77 11.77 0 002.9 4.86c-.46.84-.85 1.8-1.2 2.62l.55-.27a12.52 12.52 0 00-.36 1.03z" clip-rule="evenodd"/>
  <path fill="#fff" fill-rule="evenodd" d="M14.9 12.09l.51-.25a13.13 13.13 0 00-1.19 3.62l.5-.34c-.41 2.53.76 4.8 3.85 4.04l10.64-3.35.25-.35a14 14 0 00-.58-.37l-.24.1-9.95 1.78c-.01-1.13.38-3.22.76-4.24l-.64-.64c3.7-.1 8.46.84 11.58 3.26 1.2.13 2.4-.1 3.25-.53a3 3 0 01-1.75-.66l.54-.2a6.42 6.42 0 011.26-.3c.18-.02.36-.02.52 0-2-2.16-4.06-3.59-5.94-4.52l-.09.03c-.49.15-1.06.03-1.67-.17l.44-.57c.59.17 1.12.3 1.42-.16l.08-.16c-.84-.48-1.7-.93-2.58-1.33a21.81 21.81 0 00-4.52-1.52l.35.46a17.8 17.8 0 00-3-.48c.1.17.18.35.24.54.08.27.16.77.12 1.03a5.42 5.42 0 00-2.38-2.25l-.9-.45a17.5 17.5 0 01-2.24-1.26c.06.28.13.56.21.7a4.85 4.85 0 01-1.36-1.1l-.05.45-.11-.12c-.19 2.58 1.3 5.88 3.34 7.54l.16.14c-.35.57-.56 1.02-.83 1.63z" clip-rule="evenodd"/>
  <path fill="#FDB016" fill-rule="evenodd" d="M3.81 9.81c2.2.4 4.46 1.14 6.48 2.08 1.22-.52 3.54-1.2 4.6-1.3 0-.02-.71-.76-.78-.84a11.77 11.77 0 01-1.96-3.5l-.03-.07-1.27.3c-1.28.36-2.65.88-3.96 1.46A41.24 41.24 0 003.3 9.72l.5.1z" clip-rule="evenodd"/>
  <path fill="#FDB016" fill-rule="evenodd" d="M27.33 11.88l-.35-.54c1.6.58 3.74 1.93 4.9 2.82.49-.19 1.1-.43 1.82-.5a23.78 23.78 0 00-6.33-4.45 4.9 4.9 0 01-.86-.21v-.32h.44v-.26l.35.1.25-.31c-1.4-.8-3.27-1.58-5.17-2.18l.35.53c-1.17-.43-2.7-.68-3.79-.78.06.2.15.61.12 1.03-1.44-1.45-3.27-2.06-5.18-3.18a4.5 4.5 0 01-1.59-1.47c-.14.79-.09 1.8.1 2.69.46 2.16 1.76 4.4 3.35 5.6 2.22-.33 7.44-.37 11.59 1.43z" clip-rule="evenodd"/>
  <path fill="#FEFEFE" fill-rule="evenodd" d="M24.26 5.42a11.28 11.28 0 00-.17-.13c-.55-.42-1.17-.81-1.9-1.22-.54-.3-1.08-.58-1.6-.84-.37-.19-.6-.3-.93-.49.08.22.18.44.36.66-.17-.09-.86-.45-1.2-.69-.09.52-.03 1.4.2 1.87.38.02.88.08 1.24.14l-.42-.52c1.69.36 3.06.73 4.42 1.22z" clip-rule="evenodd"/>
  <path fill="#FDB016" fill-rule="evenodd" d="M18.8 2.64c-.08.53 0 1.47.22 1.94.38.03.88.08 1.24.14l-.43-.52c1.2.25 2.1.48 3.07.78-.93-.6-1.9-1.07-2.88-1.58a6.97 6.97 0 01-1.21-.76z" clip-rule="evenodd"/>
  <path fill="#FEFEFE" fill-rule="evenodd" d="M34.62 14.09c-.29.24-1.18.24-1.73.09.36-.14 1.35-.38 1.73-.1z" clip-rule="evenodd"/>
  <path fill="#041E42" fill-rule="evenodd" d="M17.57 8.91l-1.23.83c1.2-.14 2.25-.19 3.23-.14-1.66-2.44-5.04-4.26-6.85-6.06.8 1.6 4.16 4.17 4.85 5.37z" clip-rule="evenodd"/>
  <path fill="#041E42" fill-rule="evenodd" d="M22.83 9.97c-.46-.21-.8-.66-.76-1.66l.4.1.05-.48.65.17c.5.1.8.33 1.25.43.2.05.5.08.56.09l1.5.05-1.07.79c-.65.48-1.79.89-2.58.51z" clip-rule="evenodd"/>
  <path fill="#FEFEFE" fill-rule="evenodd" d="M23.14 8.58c-.12 1.5 1.36.78 1.88.4-.6-.14-1.21-.28-1.88-.4z" clip-rule="evenodd"/>
  <path fill="#E3000F" fill-rule="evenodd" d="M16.28 22.15l-1.04.35A19.67 19.67 0 004.19 10.67c5.96 1.6 9.99 6.62 12.1 11.48z" clip-rule="evenodd"/>
  <path fill="#fff" d="M19.4 16.15l8.61-1.5a19.85 19.85 0 00-7.85-1.88c-.17.38-.3.84-.42 1.32l1.61-.69.5.79 1.33-.62.52.77 1-.4 2.3.56-2.13-.21-1.35.62-.45-.67-1.53.74-.43-.69-1.56.76c-.06.39-.1.77-.14 1.1z"/>
  <path fill="#041E42" d="M27.42 8.7c-.5.8-1.3.63-1.99.46-1.29-.33-2.68-.56-4.35-.87l.75-.89c1.48.24 3.08.76 3.95 1.04.51.12.95.27 1.18-.25l-.04-.03.04.03.01-.02-1.15-.84c.7.32 1.27.6 1.86.89-.07.16-.16.33-.26.47z"/>
  <path fill="#041E42" d="M14.8 23.36C12.44 16.05 7.77 12.32.8 10.08c.67.05 1.7.14 3.1.44 2.26.99 4.23 2.1 6.08 3.8a19.5 19.5 0 015.26 8.18 221.7 221.7 0 003.5-1.19c2.08-.71 4.02-1.4 5.97-2.1 3.19-1.13 6.37-2.25 9.53-3.3l-.38-.44c.2-.1.4-.23.59-.36l.95 1.13c-5.43 1.77-10.97 3.83-16.44 5.72l-4.14 1.4z"/>
  <path fill="#E3000F" fill-rule="evenodd" d="M15.24 22.5l18.99-6.59-2.72.81-16.14 4.83-.13.95z" clip-rule="evenodd"/>
</svg>
