<?xml version="1.0" encoding="UTF-8"?>
<!DOCTYPE svg PUBLIC "-//W3C//DTD SVG 1.1//EN" "http://www.w3.org/Graphics/SVG/1.1/DTD/svg11.dtd">
<!-- Creator: CorelDRAW -->
<svg xmlns="http://www.w3.org/2000/svg" xml:space="preserve" width="143px" height="219px" style="shape-rendering:geometricPrecision; text-rendering:geometricPrecision; image-rendering:optimizeQuality; fill-rule:evenodd; clip-rule:evenodd"
viewBox="0 0 15.4915 23.7434"
 xmlns:xlink="http://www.w3.org/1999/xlink">
 <defs>
  <style type="text/css">
   <![CDATA[
    .fil0 {fill:#FEFEFE;fill-rule:nonzero}
    .fil1 {fill:#092247;fill-rule:nonzero}
    .fil3 {fill:#FFAE0D;fill-rule:nonzero}
    .fil2 {fill:white;fill-rule:nonzero}
   ]]>
  </style>
 </defs>
 <g id="Layer_x0020_1">
  <metadata id="CorelCorpID_0Corel-Layer"/>
  <g id="_196171024">
   <path id="_196172896" class="fil0" d="M5.08718 15.8764c-0.0783073,0.116202 -0.162726,0.22184 -0.245424,0.326004 -0.151271,0.189565 -0.296309,0.371545 -0.407567,0.62173 0.24177,-0.0871207 0.512468,-0.145191 0.811356,-0.173474 0.135856,-0.107573 0.394147,-0.312646 0.710048,-0.569003 -0.321582,-0.0215268 -0.620317,-0.10226 -0.868413,-0.205257zm3.11553 7.71247c-0.257524,-0.217694 -0.452831,-0.444509 -0.584265,-0.6174 -0.0967326,0.0184253 -0.208328,0.0315993 -0.328522,0.0315993 -0.0925255,0 -0.182594,-0.00758506 -0.270606,-0.0227552 -0.181366,0.245087 -0.451357,0.55675 -0.72313,0.675501l-0.158549 0.0694018 -0.163186 -0.0573947c-0.550362,-0.194141 -0.980408,-0.704612 -1.19049,-1.39624 -0.0230009,-0.00549687 -0.045449,-0.0117615 -0.0673136,-0.0185788l-0.253286 0.524137 -0.325052 -0.0550301c-0.536083,-0.0907444 -1.10294,-0.615711 -1.37824,-1.27681 -0.194294,-0.466835 -0.405202,-1.39298 0.28424,-2.4711 -0.0181796,-0.310343 0.00865987,-0.93806 0.428387,-1.47445 0.029204,-0.0376182 0.0601277,-0.0738546 0.0917271,-0.108955 -0.177681,-0.0648569 -0.375445,-0.177681 -0.53163,-0.35659 -0.00611104,0.000184253 -0.0120993,0.000184253 -0.0184253,0.000184253 -0.145774,0 -0.287987,-0.021189 -0.422092,-0.0622159 -0.169881,0.133583 -0.277177,0.246776 -0.278621,0.248434l-0.243828 0.257769 -0.304324 -0.18373c-0.0421324,-0.0256725 -0.358955,-0.228657 -0.535069,-0.641905 -0.0358064,-0.011915 -0.0733939,-0.0257646 -0.111258,-0.0420403l-0.203077 0.351032 -0.380881 -0.223498c-0.280801,-0.164445 -0.446413,-0.606713 -0.503624,-0.935297 -0.0916349,-0.530647 0.0175961,-1.04029 0.30807,-1.45268 0.0271773,-0.285069 0.139264,-0.533657 0.328154,-0.725556 0.265569,-0.269899 0.627472,-0.371545 0.900104,-0.408334 0.119089,-0.612455 0.100172,-1.26317 0.0799963,-1.9462 -0.0266859,-0.901425 -0.0537096,-1.83147 0.242108,-2.74751 -0.235106,-0.464439 -0.540505,-1.32352 -0.141967,-2.14019l0.0635671 -0.130451 0.12867 -0.066638c0.372866,-0.193649 0.761147,-0.246254 1.01185,-0.257524 0.184222,-0.259765 0.542747,-0.684283 1.09474,-1.00826 -0.480531,-0.0235843 -0.887237,-0.113008 -1.23827,-0.271128 -0.729241,-0.328737 -1.09425,-1.00927 -1.0016,-1.86682 0.195983,-1.80672 1.88285,-2.78163 3.37032,-2.78163 0.141844,0 0.281446,0.00899767 0.415152,0.0270237 0.561571,0.0756357 0.980224,0.438153 1.14854,0.99478 0.0851247,0.281446 0.11267,0.665889 -0.0557057,0.906093 0.761731,-0.116263 1.62213,-0.217418 2.53424,-0.217418 1.17264,0 2.19003,0.16681 3.1108,0.510472l-0.000184253 0.000153544c0.492046,0.174487 0.936801,0.39731 1.32327,0.663432 0.934621,0.283135 1.6544,1.14261 1.72494,2.07413l0.00119764 0.0164292 0 0.0165213c0,0.384382 -0.185051,0.833988 -0.398968,1.35438 -0.211092,0.512713 -0.445185,1.08122 -0.520237,1.63189 0.318757,0.0580396 0.59228,0.157536 0.633491,0.173044l0.200989 0.0747451 0.0643041 0.204551c0.198716,0.631648 0.293023,1.81289 -0.612916,2.23412l-0.414568 0.192912 -0.126428 -0.303341c-0.0887176,0.167793 -0.221134,0.288662 -0.32321,0.364022 0.32407,0.665858 0.506848,1.22893 0.51821,1.26422l0.0230316 0.0707223 -0.00187323 0.0744687c-0.0470151,1.92854 -1.21984,3.39556 -2.07573,4.46671 -0.385548,0.482465 -0.782674,0.979425 -0.857818,1.28138 0.326925,0.551099 0.446352,1.11144 0.349097,1.63801 0.198409,0.455779 0.220243,0.95449 0.0612333,1.45209 -0.237287,0.743091 -0.827877,1.32069 -1.27598,1.54302l-0.185051 0.0915735 -0.18849 -0.0838963c-0.0638742,-0.0283749 -0.219905,-0.097746 -0.405386,-0.426575 -0.257524,0.805767 -0.858218,1.27045 -1.22884,1.38371l-0.228842 0.0699853 -0.182901 -0.154526z"/>
   <path id="_196172632" class="fil1" d="M14.9406 8.562c0,0 -0.542071,-0.202309 -0.943803,-0.185819 -0.0253654,-1.30408 0.943803,-2.67393 0.943803,-3.38457 -0.0606191,-0.801253 -0.721134,-1.50473 -1.47853,-1.7051 -0.367123,-0.261884 -0.805951,-0.484891 -1.28599,-0.65425l0.000675593 0c-3.53068,-1.31777 -7.72411,0.549226 -8.10149,-0.0855853 0.538662,-0.822534 1.77288,-0.448102 2.24097,-0.859815 0.131096,-0.115004 0.0747144,-1.10942 -0.782029,-1.22491 -1.28353,-0.172491 -3.101,0.617553 -3.29057,2.36685 -0.0640585,0.591819 0.123265,1.1389 0.745639,1.41942 1.69356,0.763758 4.60149,-0.594522 5.96468,-0.066116 -0.797169,0.281139 -1.93864,0.54158 -2.8814,0.746468 -1.9937,-0.210908 -2.88229,1.44018 -2.88229,1.44018 0,0 -0.548735,-0.0528805 -1.04763,0.206056 -0.364175,0.746837 0.029634,1.57379 0.225771,1.90889 -0.629222,1.67602 0.0136654,3.50943 -0.449607,5.15342 0,0 -1.16147,-0.0775703 -1.14654,0.870071 -0.621023,0.740972 -0.220305,1.73197 -0.0149245,1.85232 0.119027,-0.205564 0.305982,-0.328492 0.305982,-0.328492 0.129345,0.211061 0.509888,0.25 0.509888,0.25 0.085831,0.435112 0.420556,0.63865 0.420556,0.63865 0,0 0.217264,-0.232097 0.54161,-0.448256 0.344491,0.201664 0.716865,0.096579 0.716865,0.096579 0.17329,0.405908 0.648415,0.456424 0.648415,0.456424 0.236335,-0.894915 0.782828,-1.14344 1.00418,-1.73971 0.414752,0.286789 1.48062,0.665489 2.36688,-0.0339639 0.140523,-0.226477 0.271035,-0.429493 0.392888,-0.61221 0.389111,-0.268456 0.87348,-0.551898 1.07496,-0.435757 -0.783258,0.883 -3.32668,2.87495 -3.32668,2.87495 -2.25805,0.140493 -1.91604,2.00977 -1.91604,2.00977 -1.15646,1.64175 0.0158457,3.08359 0.714716,3.202l0.322749 -0.666841c0,0 0.236519,0.301007 0.597961,0.225095 0.144085,0.78034 0.56108,1.25537 0.987993,1.40582 0.310005,-0.135364 0.717541,-0.785069 0.717541,-0.785069 0.47445,0.218738 0.963149,-0.00654097 0.963149,-0.00654097 0,0 0.233509,0.409839 0.68502,0.79161 0.304969,-0.0933239 0.892519,-0.587858 1.0171,-1.43659 0.380942,0.0260103 0.515139,-0.225249 0.515139,-0.225249 0,0 0.219107,0.638988 0.408887,0.723468 0.617983,-0.306228 1.53793,-1.44961 0.947795,-2.54944 0.161712,-0.580856 -0.0426852,-1.1342 -0.338503,-1.58436 -0.0210048,-1.13239 2.87495,-2.945 2.94617,-5.86479 0,0 -0.400719,-1.24503 -1.07032,-2.20034l0.409839 0.0538632c0.0948901,0.1447 0.213641,0.449791 0.213641,0.449791 0,0 0.290474,-0.1482 0.324499,-0.403175l0.459772 -0.189197c0,0 0.155939,0.0345166 0.241094,0.239098 0.798612,-0.371545 0.37953,-1.70464 0.37953,-1.70464z"/>
   <g>
    <path id="_196172320" class="fil2" d="M6.76855 11.1953c-0.000153544,-0.00125906 -0.000337796,-0.00340867 -0.00049134,-0.00583466 0,-0.000337796 0,-0.000522049 0,-0.000522049 -0.00168898,-0.015078 -0.00620317,-0.0502702 -0.0145252,-0.100479l0 -0.000337796c-0.00165827,-0.00942759 -0.00359292,-0.0198686 -0.00549687,-0.0307702 0,-0.000337796 0,-0.000675593 0,-0.00116693 -0.74524,0.201664 -1.34578,-0.0131741 -1.34578,-0.0131741 -0.103059,-0.560588 0.104103,-0.936034 0.104103,-0.936034 -0.158212,0.126336 -0.32453,0.589762 -0.3592,0.690271 -0.0244442,0.133092 -0.0348544,0.232404 -0.0348544,0.232404 0,0 -0.573701,0.231452 -1.20176,-0.0367584 0.0221717,0.0174426 0.0456025,0.0347009 0.0698931,0.0516214 0.00205749,0.0017504 0.00472915,0.00325513 0.00681734,0.00485198 0.0241064,0.0164906 0.0487348,0.0324284 0.0748372,0.0482742l0.000214961 0.00024567c0.0257646,0.0156615 0.0531569,0.0310158 0.0810097,0.0456025 0.00423781,0.00251812 0.00832207,0.0045756 0.012652,0.00669451 0.0271158,0.0141567 0.0548151,0.0278528 0.0840806,0.0412726 0.000644884,0.000429923 0.00184253,0.000767719 0.00233387,0.00125906 0.029419,0.0133276 0.0600356,0.0264095 0.0913278,0.0389387 0.00647955,0.00242599 0.0132662,0.00515907 0.0195922,0.00749294 0.0305859,0.0118536 0.0618781,0.023615 0.0943373,0.0345166 0.00122835,0.000522049 0.00254883,0.00101339 0.00399214,0.00144331 0.0330733,0.0110859 0.0676207,0.0216804 0.102813,0.0317529 0.0084142,0.00251812 0.016767,0.00494411 0.0256725,0.0073701 0.03553,0.00991893 0.072227,0.0195922 0.110367,0.0284977 -0.975402,0.0257032 -1.5644,-0.453016 -1.5644,-0.453016 0.467479,0.736242 1.587,0.875937 1.587,0.875937 0,0 -0.569125,0.0602813 -1.05957,-0.116601 -0.142028,-0.0511301 -0.277699,-0.122344 -0.390708,-0.220919 0.134689,0.202985 0.330764,0.345166 0.536666,0.444847 0.452494,0.218677 0.952217,0.231513 0.952217,0.231513 0,0 -0.45102,0.0882263 -0.817559,0.00107481 -0.0330119,-0.0080764 -0.0657782,-0.0174119 -0.0972239,-0.0282828 0.0396143,0.0257032 0.0798121,0.0498096 0.12044,0.0723191 0.0278221,0.0152623 0.0555214,0.0297568 0.083405,0.0436371 0.846118,0.415889 1.34732,-0.148385 1.34732,-0.148385 0,0 -0.337827,-0.495977 -0.29462,-0.8479 0.0292654,0.0155079 0.0581317,0.0294497 0.0861381,0.0432072 0.0568726,0.0263481 0.111933,0.0492876 0.164538,0.0685419 0.289584,0.106928 0.509305,0.113254 0.5702,0.112425 0.0110859,0 0.0168284,-0.000399214 0.0168284,-0.000399214l0 0c0,0 0.00568112,0.000399214 0.0169205,0.000399214 0.0719813,0.000829136 0.365803,-0.00792286 0.734246,-0.180967 0.0284977,-0.0137575 0.0570262,-0.0276993 0.0862302,-0.0432072 0,0.00049134 0,0 0,-0.00101339 0,-0.000337796 0,-0.00049134 0,-0.000644884z"/>
    <path id="_196172728" class="fil2" d="M6.36749 14.5647l-0.345781 0.0252733 0.000276379 0.211246c0,0 0.131157,-0.00783073 0.345504,-0.0628608 0,0 0.0996499,0.0957192 0.184038,0.0768947 0,0 0.308684,-0.233602 0.0729947,-0.753501 -0.0918192,0.357696 -0.257032,0.502948 -0.257032,0.502948z"/>
    <path id="_196172800" class="fil2" d="M5.41902 14.0618c-0.235659,0.519899 0.0733018,0.753501 0.0733018,0.753501 0.0842341,0.0188245 0.183884,-0.0768947 0.183884,-0.0768947 0.214163,0.0550301 0.345504,0.0628608 0.345504,0.0628608l0 -0.211246 -0.345504 -0.0252733c0,0 -0.165275,-0.145252 -0.257186,-0.502948z"/>
    <path id="_196172776" class="fil2" d="M7.17277 11.7677c0.0779081,0.162541 1.10809,0.334818 1.42691,-0.339516 -0.456086,0.397126 -1.27705,0.351523 -1.42691,0.339516z"/>
    <path id="_196171744" class="fil2" d="M7.17562 12.1153c0.166779,0.179308 0.672,0.17636 0.849374,-0.037956 -0.298397,0.10444 -0.695185,0.0612026 -0.849374,0.037956z"/>
    <path id="_196171696" class="fil2" d="M7.17243 11.3428c-0.00549687,0.00190394 1.0417,0.447334 1.56335,-0.453016 0,0 -0.588441,0.478381 -1.56335,0.453016z"/>
    <path id="_196171600" class="fil2" d="M6.82358 12.95c0,0 0.0941531,0.294374 0.00224174,0.747052 0.282643,-0.127104 0.466558,-0.409901 0.416841,-0.961399 -0.280156,-0.00291733 -0.419082,0.214347 -0.419082,0.214347z"/>
    <path id="_196171504" class="fil2" d="M0.797844 15.7935c0.0169205,-0.0425316 0.182379,-0.456823 0.377533,-0.505558 0.125752,-0.112578 0.119611,-0.322411 0.0843877,-0.347408 -0.348759,-0.0351922 -0.605423,0.544988 -0.461921,0.852966z"/>
    <path id="_196171480" class="fil2" d="M7.93186 9.41457c0.0643041,-0.0144945 0.231913,0.0521128 0.231913,0.0521128 -0.159624,-0.276717 -0.478872,-0.263021 -0.684099,-0.0736396 0.0182717,0.0459403 0.029204,0.102659 0.029204,0.165213 0,0.150934 -0.139971,0.273461 -0.139971,0.273461 0,0 -0.0972239,-0.0859845 -0.129161,-0.202494 -0.166964,0.1642 -0.322503,0.314427 -0.322503,0.314427 0.252948,0.0887176 0.948809,0.0838963 1.01462,-0.529081z"/>
    <path id="_196172152" class="fil2" d="M2.41739 15.4192c-0.384443,-0.00976539 -0.617615,0.647003 -0.435235,0.972239 0.0153544,-0.047875 0.162388,-0.515232 0.371699,-0.58494 0.128516,-0.133522 0.104072,-0.362701 0.0635364,-0.387299z"/>
    <path id="_196172056" class="fil2" d="M6.14258 12.7357c0,0 -1.34412,-0.0327048 -1.38272,0 -0.0497175,0.551499 0.134197,0.834296 0.416994,0.961399 -0.0919113,-0.452678 0.00190394,-0.747052 0.00190394,-0.747052 0,0 0.968063,-0.185143 0.963825,-0.214347z"/>
    <path id="_196171960" class="fil2" d="M3.77518 15.5749c-0.322995,0.113837 -0.308961,0.735168 -0.0536175,0.948317 -0.00257954,-0.0446505 -0.0282521,-0.480807 0.12434,-0.605638 0.0641506,-0.152131 -0.0290198,-0.33534 -0.0707223,-0.342679z"/>
    <path id="_196171936" class="fil2" d="M3.93054 9.41457c0.0654097,0.612978 0.761362,0.617799 1.01422,0.529081 0,0 -0.155786,-0.150381 -0.322596,-0.314427 -0.0319985,0.116509 -0.129161,0.202494 -0.129161,0.202494 0,0 -0.139848,-0.122528 -0.139848,-0.273461 0,-0.0625537 0.0112394,-0.11958 0.0290812,-0.165551 -0.205227,-0.189043 -0.524137,-0.202739 -0.684099,0.0739774 0,0 0.167608,-0.0666073 0.232404,-0.0521128z"/>
    <path id="_196172176" class="fil2" d="M10.3961 19.5174c-0.0886562,0.0193465 -0.272724,0.418898 -0.122681,0.739467 0.336322,0.254361 0.316147,1.18947 0.314212,1.28547 0.529173,-0.476784 0.509673,-1.80703 -0.191531,-2.02494z"/>
    <path id="_196171888" class="fil2" d="M4.13954 19.5152c-0.695523,0.236028 -0.68069,1.56627 -0.13908,2.02939 -0.00485198,-0.0959342 -0.0490726,-1.0304 0.280371,-1.29351 0.142028,-0.323885 -0.0524506,-0.718616 -0.141291,-0.735874z"/>
    <path id="_196171864" class="fil2" d="M6.4317 21.24c-0.125107,0.404066 -0.278559,1.00095 -0.342587,1.47264 -0.240941,-0.347285 -0.396481,-0.979732 -0.383706,-1.49208 0.00651026,-0.265078 0.176207,-0.532705 0.423504,-0.488607 0.236826,0.0421938 0.307272,0.242691 0.302788,0.508046z"/>
    <path id="_196171816" class="fil2" d="M8.24306 21.2416c0.125937,0.404312 0.280248,1.00126 0.344859,1.47295 0.240265,-0.346579 0.394638,-0.979057 0.381311,-1.49131 -0.00669451,-0.265354 -0.177404,-0.532981 -0.424579,-0.489344 -0.236672,0.041856 -0.306719,0.242446 -0.301591,0.507708z"/>
    <path id="_196172032" class="fil2" d="M5.79597 12.0517c0,0 0.0703231,0.100479 0.13518,0.100479 0.0649797,0 0.134873,-0.100479 0.134873,-0.100479 0,0 -0.0456332,-0.255528 0.28338,-0.264709 0.0850326,-0.0677128 0.110582,-0.245793 0.110582,-0.245793 -0.161037,0.0545695 -0.353765,0.0946751 -0.528836,0.102936 -0.175132,-0.00826066 -0.367922,-0.0483663 -0.528897,-0.102936 0,0 0.025519,0.17808 0.110766,0.245793 0.328829,0.00918192 0.28295,0.264709 0.28295,0.264709z"/>
   </g>
   <g>
    <path id="_196171120" class="fil3" d="M5.98345 10.0443c-0.033104,0 -0.052297,0.00144331 -0.052297,0.00144331l0 0c0,0 -0.0191008,-0.00144331 -0.0524506,-0.00144331 -0.0596364,0 -0.165213,0.00552758 -0.28814,0.0374647 -0.0273308,0.0070016 -0.0558592,0.0154158 -0.0842034,0.0252733 0,0 -0.207161,0.375445 -0.104103,0.936034 0,0 0.60054,0.214838 1.34578,0.0131741 -0.0384474,-0.211092 -0.141445,-0.619887 -0.392304,-0.949208 -0.0286206,-0.00985751 -0.056627,-0.0182717 -0.0839577,-0.0252733 -0.123204,-0.0319371 -0.22878,-0.0374647 -0.288325,-0.0374647z"/>
    <path id="_196171048" class="fil3" d="M5.1123 11.0297c0,0 0.0104103,-0.0993121 0.0348544,-0.232404 -0.00436064,0.012652 -0.00703231,0.0205135 -0.00703231,0.0205135 0,0 -0.0830365,-0.4064 0.0948286,-0.66116 -0.168683,0.107634 -1.30322,0.391445 -1.73864,0.0360214 -0.0014126,0.265017 0.113745,0.562584 0.41506,0.800424 0.627748,0.26778 1.20093,0.0366048 1.20093,0.0366048z"/>
    <path id="_196170904" class="fil3" d="M2.84498 13.6452c-0.100817,-0.132355 0.0446198,-0.216067 0.196229,-0.201818 0.0640585,0.00626459 0.129345,0.0296954 0.17722,0.0748065 0.0432072,0.0406891 0.0466159,0.0820538 0.0259489,0.117246 -0.0563813,0.0967633 -0.294067,0.147617 -0.399398,0.00976539zm0.585524 0.30807c-0.0014126,-0.0531262 -0.00451419,-0.105577 -0.00924334,-0.158212 -0.0403513,-0.449331 -0.194816,-0.873326 -0.353274,-1.20464 -0.0542931,0.00224174 -0.105577,-0.0152008 -0.14126,-0.0622467 -0.0521435,-0.068112 -0.0382938,-0.138926 0.00832207,-0.195123 -0.0462781,-0.083405 -0.0899152,-0.156031 -0.127687,-0.216681 -0.0804569,-0.128178 -0.135333,-0.20148 -0.135333,-0.20148 0.053034,0.316177 0.0647955,0.6174 0.0531876,0.890493 0.0155386,-0.00049134 0.0309544,0.000184253 0.0461246,0.0024567 0.0456332,0.00638742 0.0895774,0.0247513 0.124923,0.0583466 0.10702,0.10051 -0.0221717,0.23569 -0.163033,0.260287 -0.0109323,0.0020882 -0.0221717,0.00325513 -0.033104,0.00393072 -0.0683884,0.608187 -0.234185,1.01277 -0.234185,1.01277 -0.848974,-0.149214 -1.03077,0.333251 -1.03077,0.333251 -0.00810711,0.307395 0.424825,0.366171 0.424825,0.366171 0.21272,-0.40296 0.859569,-0.240419 0.859569,-0.240419 -0.297752,0.163524 -0.366386,0.431151 -0.366386,0.431151 0.225771,0.33276 0.680875,0.194663 0.680875,0.194663 0.233909,-0.306719 0.348268,-0.637237 0.384627,-0.966405 -0.10917,0.0153544 -0.216497,0 -0.267965,-0.0676207 -0.0908979,-0.119181 0.0923105,-0.220857 0.279787,-0.240695z"/>
    <path id="_196170736" class="fil3" d="M13.1557 3.81397c0.198962,1.08543 0.0899152,2.06409 0.0221103,2.49033 -0.0227859,0.14427 -0.0410576,0.225433 -0.0410576,0.225433 0,0 0.103089,-0.153974 0.215852,-0.401149 0.122681,-0.268947 0.255528,-0.647832 0.278221,-1.05948 0,0 0.235321,-0.0924641 0.494196,-0.101247 -0.124678,-0.562922 -0.446997,-0.922092 -0.969322,-1.15388z"/>
    <path id="_196171456" class="fil3" d="M5.6814 1.1482c0,0 -0.014126,-0.129499 -0.0940916,-0.237839 -0.0539553,-0.0726262 -0.136685,-0.136009 -0.266337,-0.143778 -0.289307,-0.0177497 -2.78221,0.309145 -2.64344,2.50497 0.388128,-1.98676 2.79428,-2.09876 3.00387,-2.12336z"/>
    <path id="_196170952" class="fil3" d="M7.53796 5.32195c0.0584695,-0.155448 0.550577,-0.286052 0.626489,-0.151548 0.0815625,0.145037 0.0692175,0.269807 -0.117952,0.322503 -0.186801,0.052297 -0.566669,-0.0157229 -0.508537,-0.170956zm1.14771 -0.134842c0.126244,-0.0713979 0.446413,0.125107 0.397893,0.25995 -0.0516214,0.145774 -0.260287,0.150289 -0.383368,0.0776317 -0.123541,-0.072964 -0.140462,-0.266276 -0.0145252,-0.337581zm0.99478 -0.393041c0.104809,-0.0594829 0.369826,0.0471994 0.329659,0.160115 -0.0433915,0.12133 -0.294221,0.0890861 -0.39731,0.0282828 -0.102936,-0.0607112 -0.037434,-0.1287 0.0676514,-0.188398zm0.703415 -0.403329c0.0928326,-0.0387545 0.343846,0.0814089 0.317344,0.170986 -0.0281906,0.0961491 -0.259213,0.039123 -0.36178,-0.021619 -0.103089,-0.0609569 -0.0488576,-0.110552 0.0444356,-0.149367zm-6.39743 1.96416c0,0 1.06139,-0.844644 3.32419,-0.146696 0,0 1.01569,-0.524045 2.04222,-0.566177 1.10742,0.379806 1.97841,1.17482 1.97841,1.17482 -0.265876,-1.06013 -0.96966,-1.71125 -0.96966,-1.71125 0,0 0.896204,-0.52905 1.0714,-1.40665 -0.699177,0.398753 -1.51449,0.718155 -2.25688,0.960846 0.0210355,0.0267473 0.0319371,0.0551836 0.0271773,0.0842034 -0.0260717,0.152131 -0.230131,0.192759 -0.364667,0.142212 -0.0447734,-0.0169205 -0.0799963,-0.0493797 -0.103089,-0.0881648 -1.01093,0.303832 -1.79404,0.451419 -1.79404,0.451419 0.212597,0.137452 0.339086,0.268548 0.339086,0.268548 -2.33583,-0.521373 -3.29416,0.836875 -3.29416,0.836875z"/>
    <path id="_196171192" class="fil3" d="M5.18659 8.41982c0.037956,-0.201173 -0.035008,-0.598637 -0.035008,-0.598637 0,0 0.408641,0.421078 0.291395,1.29499 0,0 -0.291395,-0.610214 -1.12145,-0.99785 0,0 0.513082,0.00049134 0.865066,0.301499zm-0.830549 -0.844583c0.0278528,-0.194141 0.156891,-0.247083 0.3046,-0.119058 0.130819,0.112885 0.0354993,0.41896 -0.0744073,0.433485 -0.109999,0.0146788 -0.256449,-0.131188 -0.230193,-0.314427zm0.93806 -0.391506c0.159133,0.0109016 0.260441,0.301806 0.187293,0.377011 -0.0726262,0.0754821 -0.185358,-0.0107481 -0.345504,-0.107665 -0.160392,-0.0969168 -0.0227552,-0.281292 0.158212,-0.269347zm0.436003 0.708175c0.0977153,0.0798121 0.0557057,0.393717 -0.0257032,0.408549 -0.0816239,0.0149245 -0.140953,-0.17203 -0.19973,-0.30807 -0.058623,-0.135825 0.115004,-0.191377 0.225433,-0.100479zm0.388865 0c0.11092,-0.0908979 0.283872,-0.0353458 0.225249,0.100479 -0.058623,0.13604 -0.117922,0.322995 -0.199576,0.30807 -0.0815625,-0.0148323 -0.123418,-0.328737 -0.0256725,-0.408549zm0.436156 -0.708175c0.180629,-0.0119457 0.318419,0.17243 0.158304,0.269347 -0.160545,0.0969168 -0.272632,0.183147 -0.345934,0.107665 -0.0731483,-0.0752057 0.0283442,-0.36611 0.187631,-0.377011zm-3.02211 1.54864c0.00810711,-0.00826066 0.0163985,-0.0165827 0.0252426,-0.0245977 0.00485198,-0.00432993 0.00976539,-0.008752 0.0148016,-0.0131741 0.00958113,-0.00767719 0.0194079,-0.0150166 0.0291733,-0.0220182 0.00500553,-0.00325513 0.00973468,-0.00681734 0.0144945,-0.0101032 0.0154465,-0.00924334 0.031108,-0.0181796 0.0480285,-0.0254883 0.0222946,-0.00976539 0.0443127,-0.017289 0.0664845,-0.0233694 0.000675593,-0.000337796 0.00125906,-0.000429923 0.00190394,-0.000583466 0.0215268,-0.00558899 0.0428694,-0.00951972 0.0642427,-0.0120685 0.00122835,0 0.00242599,-0.000522049 0.00356222,-0.000522049 0.0210355,-0.0020882 0.0417025,-0.00276379 0.0622159,-0.00193465 0.00144331,0 0.00343938,0 0.00518978,0 0.0201757,0.000921263 0.0402899,0.00343938 0.0599435,0.00703231 0.00224174,0.000153544 0.00442206,0.000644884 0.00684805,0.000890554 0.0193465,0.00377718 0.0386316,0.00869058 0.0584695,0.0146788 0.00248741,0.000859845 0.00509765,0.00150473 0.00767719,0.00251812 0.0189166,0.00598821 0.0379253,0.0133583 0.0568726,0.0214347 0.00291733,0.00132048 0.00598821,0.00251812 0.008752,0.00374647 0.0187631,0.00816853 0.0370962,0.0174426 0.0555521,0.0275458 0.00322442,0.00162756 0.0066638,0.00356222 0.00991893,0.00522049 0.0180875,0.0101032 0.0362056,0.0210355 0.0542931,0.0324592 0.00359292,0.00242599 0.00733939,0.00451419 0.0109937,0.00709372 0.0174426,0.0115772 0.0352229,0.0236765 0.0526348,0.0363592 0.00442206,0.00307088 0.00835278,0.00614175 0.0125906,0.00924334 0.0169205,0.0125906 0.0336875,0.0257646 0.0507923,0.0392765 0.00472915,0.00374647 0.00942759,0.00752365 0.0144945,0.0116079 0.0157843,0.0131741 0.0321214,0.0268395 0.0483663,0.0408426 0.00568112,0.00500553 0.0114237,0.00991893 0.0169512,0.0150166 0.0151701,0.0133583 0.0304324,0.0268395 0.0452954,0.0405356 0.00730868,0.0066638 0.0144945,0.0135119 0.0216804,0.0202064 0.0131433,0.0120685 0.0265017,0.024567 0.03943,0.0370041 0.0106866,0.0101032 0.0210969,0.0203599 0.0315379,0.0304631 0.000307088,0.00049134 0.000798428,0.000829136 0.00113622,0.0014126 0.160484,0.15511 0.320415,0.326219 0.484308,0.456916l0 0c0.0124985,0.0101032 0.0250891,0.0196843 0.0377718,0.0292654 0,0 0.000153544,0 0.000153544,0.000184253 0.214347,0.162112 0.435696,0.247083 0.672522,0.13085 0.000675593,-0.000184253 0.00150473,-0.000675593 0.00218032,-0.00119764 0.012652,-0.00617246 0.025519,-0.0129898 0.0384167,-0.0208512 0.000921263,-0.00049134 0.00193465,-0.000829136 0.00310158,-0.00132048l-0.000337796 0c0.0193465,-0.0115158 0.0389387,-0.0241064 0.0586537,-0.0382631l0.1018 -0.443834 0.101431 0.443834c0.253347,0.184713 0.488208,0.127748 0.714777,-0.0258568 0.000337796,-0.000337796 0.000675593,-0.00049134 0.000675593,-0.000675593 0.0110244,-0.00767719 0.0221103,-0.0154158 0.0333497,-0.0234308 0.00049134,-0.000337796 0.00116693,-0.000829136 0.0017504,-0.00135119 0.0110859,-0.0080764 0.0221717,-0.0159071 0.0326127,-0.0245977 0.00101339,-0.000153544 0.00165827,-0.000921263 0.00227245,-0.0014126 0.0109016,-0.00832207 0.0216804,-0.0166749 0.0324284,-0.0252733 0.000829136,-0.000829136 0.00165827,-0.00147402 0.00257954,-0.00224174 0.0107481,-0.00850633 0.0211583,-0.0172583 0.0319371,-0.0261024 0.000829136,-0.000829136 0.00184253,-0.00159686 0.00257954,-0.0020882 0.0105945,-0.00915121 0.0213733,-0.0182717 0.0319371,-0.0273308 0.00101339,-0.0010441 0.00168898,-0.00168898 0.00242599,-0.00236457 0.0107481,-0.00924334 0.0213426,-0.0186709 0.0319371,-0.0283442 0.000859845,-0.000583466 0.00150473,-0.00107481 0.00251812,-0.0020882 0.0105638,-0.00942759 0.0214347,-0.0191623 0.0320292,-0.0291733 0.00049134,-0.000276379 0.00098268,-0.000767719 0.00113622,-0.00125906 0.0791672,-0.0733018 0.158058,-0.152131 0.236703,-0.230346 0.0193465,-0.019193 0.039123,-0.0389694 0.0587766,-0.0581317 0.00119764,-0.00168898 0.00261024,-0.00291733 0.00408426,-0.00423781 0.019715,-0.0196843 0.0400442,-0.0389387 0.0598207,-0.0581317 0.00122835,-0.00135119 0.00257954,-0.00251812 0.00390001,-0.00377718 0.0198686,-0.0190701 0.0397064,-0.0377718 0.0595443,-0.056197 0.00135119,-0.00135119 0.00251812,-0.00224174 0.00408426,-0.00374647 0.0197764,-0.0181182 0.0394608,-0.0362056 0.0591451,-0.0534639 0.00165827,-0.00122835 0.00310158,-0.00257954 0.00472915,-0.00383859 0.0193772,-0.0172583 0.039123,-0.0339332 0.0589608,-0.049871 0.00193465,-0.00150473 0.00343938,-0.00239528 0.00485198,-0.00390001 0.0195922,-0.0156308 0.0393072,-0.0309544 0.0589608,-0.0456332 0.00202678,-0.00110552 0.00359292,-0.00224174 0.0052512,-0.00390001 0.0196843,-0.0141874 0.0394608,-0.0276993 0.0588073,-0.0407198 0.00224174,-0.00098268 0.00374647,-0.0020882 0.00565041,-0.00340867 0.0194386,-0.0126827 0.039123,-0.0242599 0.0588073,-0.0353458 0.00218032,-0.00101339 0.00374647,-0.00193465 0.00577325,-0.00294804 0.0196536,-0.0105945 0.0393379,-0.0205135 0.0592679,-0.0293576 0.0017504,-0.00073701 0.00377718,-0.00156615 0.00583466,-0.00257954 0.019715,-0.00822995 0.0397986,-0.0159378 0.0594829,-0.0222638 0.00193465,-0.000675593 0.00359292,-0.00116693 0.00565041,-0.00184253 0.01993,-0.00617246 0.0397986,-0.0112394 0.0601585,-0.0150166 0.00165827,-0.00024567 0.00359292,-0.000399214 0.00549687,-0.000890554 0.0200835,-0.00359292 0.0404434,-0.00611104 0.0607726,-0.00703231 0.0017504,0 0.00359292,0 0.00518978,0 0.0205749,-0.000829136 0.041119,-0.000153544 0.061786,0.00193465 0.00159686,0.000337796 0.00310158,0.000522049 0.00485198,0.000829136 0.0205135,0.00224174 0.0415182,0.00617246 0.0627073,0.0117615 0.00150473,0.000153544 0.00276379,0.000767719 0.00408426,0.00107481 0.00359292,0.00101339 0.00733939,0.00236457 0.0112701,0.00343938 0.0169205,0.00540474 0.0343324,0.0114237 0.0516214,0.0185788 0.000829136,0.000337796 0.00116693,0.000675593 0.00165827,0.000859845 0.0169205,0.00730868 0.0331962,0.0159071 0.0476907,0.0254883l0 0c0.015293,0.00967326 0.029941,0.0203599 0.0436371,0.0317836l0 -0.000337796c-0.545817,-0.663064 -1.42851,-0.213334 -1.86927,0.422245 -0.117092,-0.87391 0.291549,-1.29499 0.291549,-1.29499 0,0 -0.0731176,0.397463 -0.0353458,0.598637 0.272724,-0.233264 0.641813,-0.285899 0.794282,-0.297906l0 0c-0.00150473,-0.119764 -0.0128363,-0.22835 -0.0312922,-0.32757 -0.0476907,0.0648876 -0.116663,0.103243 -0.175439,0.09532 -0.110091,-0.0145252 -0.205257,-0.320599 -0.0747451,-0.433485 0.0400135,-0.0347009 0.0788294,-0.0555521 0.114513,-0.0644884 -0.249017,-0.476262 -0.688705,-0.574837 -0.688705,-0.574837 -0.253286,0 -0.682932,0.435235 -0.682932,0.719015 0,-0.287526 -0.429554,-0.719015 -0.683331,-0.719015 -0.877595,0 -1.49638,0.615864 -1.49638,0.615864 0.0210048,-0.222669 0.139571,-0.393963 0.139571,-0.393963 0,0 -0.822841,-0.33884 -1.42007,-0.156185l0 0c-0.0592986,0.740879 0.422737,1.24843 0.425163,1.25319 0,0 -0.0017504,-0.00752365 -0.00393072,-0.0210048 -0.00098268,-0.00601892 -0.00224174,-0.0130205 -0.00374647,-0.021189 -0.0205135,-0.122866 -0.0722884,-0.484891 -0.00776932,-0.715729 0.778682,0.273461 0.629315,0.719475 0.423167,1.37213 -0.0643656,0.204582 0.0376182,0.349865 0.0376182,0.349865 0,0 0.0135119,-0.0553986 0.04376,-0.128946 0.00543545,-0.0130819 0.0113008,-0.0269316 0.0179646,-0.0407812 0.00098268,-0.00242599 0.00214961,-0.00466773 0.00322442,-0.00718585 0.0056197,-0.0121607 0.0122835,-0.024567 0.0187631,-0.0370962 0.00159686,-0.00291733 0.00294804,-0.00601892 0.00469844,-0.00890554 0.00764648,-0.0140339 0.0156615,-0.0281906 0.024567,-0.0422245 0.000706301,-0.00113622 0.00119764,-0.00233387 0.00184253,-0.00307088 0.00961184,-0.0152008 0.0195308,-0.0298796 0.0304631,-0.0443742 0.00239528,-0.00359292 0.00540474,-0.00684805 0.00798428,-0.0102567 0.00792286,-0.0104103 0.0164292,-0.0208512 0.0253654,-0.0309237 0.00393072,-0.00451419 0.00869058,-0.0091205 0.0129284,-0.0136961z"/>
    <path id="_196171408" class="fil3" d="M12.0085 12.3736c-0.200559,0.0214961 -0.18588,-0.464378 0.0413954,-0.45492 0.227337,0.00973468 0.158949,0.433301 -0.0413954,0.45492zm-0.532981 0.675163c-0.113315,-0.177865 0.313567,-0.314335 0.441438,-0.170864 0.127687,0.143164 -0.327755,0.348575 -0.441438,0.170864zm-0.03553 0.610797c-0.264679,0.165551 -0.604778,0.129192 -0.539891,-0.0644577 0.0644577,-0.193834 0.796432,-0.0960877 0.539891,0.0644577zm-3.29726 2.87627c-0.137237,0.0413647 -0.350663,0.0280064 -0.506019,-0.0240142 -0.101492,-0.0337182 -0.178234,-0.0836507 -0.193404,-0.146051 -0.0195308,-0.0816239 0.0588994,-0.167271 0.182134,-0.212904 0.113991,-0.0426852 0.266613,-0.0512836 0.416319,0.00994964 0.298888,0.122651 0.280555,0.318726 0.10097,0.373019zm4.15876 -5.21539c-0.0434529,0.00325513 -0.0950743,-0.00254883 -0.157106,-0.0208205 -0.208267,-0.0614175 -0.197672,-0.405263 0.0215575,-0.449208 -0.135487,-0.35008 -0.32797,-0.637575 -0.529296,-0.867215 -0.0777239,0.106222 -0.215146,0.148845 -0.325482,-0.044282 -0.0434529,-0.0762498 -0.0133583,-0.170894 0.047445,-0.23701 -0.341942,-0.306566 -0.640155,-0.447949 -0.640155,-0.447949 0.336322,0.476293 0.49871,0.915275 0.553679,1.30617 0.103734,-0.0268395 0.219322,-0.0188552 0.290198,0.0560435 0.10051,0.106406 -0.076864,0.305061 -0.268087,0.30331 -0.0127134,0.642489 -0.302512,1.1201 -0.49438,1.37219 -0.0983294,0.129376 -0.170986,0.199576 -0.167393,0.202186 0,0 0.611442,-0.396788 0.973253,-0.736242 0.0413647,-0.0387852 0.0798121,-0.0765569 0.113315,-0.113254 -0.00733939,0.0196229 -0.0151701,0.0387852 -0.0229394,0.0581317 -0.30546,0.771343 -0.876336,1.48004 -1.56691,2.15566 0.104072,-0.00862916 0.207315,0.00780002 0.26385,0.0611104 0.155386,0.145928 -0.370624,0.35226 -0.539154,0.201142 -0.134412,0.12477 -0.27254,0.248526 -0.41291,0.371207 0.0452954,0.0291119 0.0595443,0.0773861 0.0258568,0.152438 -0.0569647,0.124923 -0.245424,0.18456 -0.441745,0.203415 -0.199822,0.168284 -0.403636,0.335248 -0.607726,0.501566 0.308347,0.0344859 0.626152,0.185542 0.399736,0.395959 -0.13042,0.120655 -0.56584,0.0401056 -0.758752,-0.103581 -0.156615,0.126827 -0.312738,0.254084 -0.466773,0.380604 -0.290136,0.238515 -0.57453,0.476631 -0.84489,0.716374 -0.0879499,0.0780617 -0.174794,0.156031 -0.259612,0.234615 0.297414,-0.0362056 0.550823,-0.00884412 0.449361,0.214992 -0.107511,0.237348 -0.610644,0.279941 -0.920802,0.241831 -0.0551836,0.0567191 -0.109415,0.113776 -0.162357,0.170741 0,0 -1.46121,-0.0101032 -1.74791,1.22291 0.612978,0.128178 0.899429,0.646819 0.96447,1.4329 0.00908979,-0.00307088 0.0860152,-0.149183 0.150811,-0.342802 0,-0.000184253 0.000153544,-0.000184253 0.000153544,-0.000368505 0.00908979,-0.027515 0.018241,-0.0558592 0.0266859,-0.0850633 0,-0.000337796 0.000184253,-0.000337796 0.000184253,-0.000829136 0.00933546,-0.032367 0.0183945,-0.0659624 0.0264095,-0.0999877 0.0208512,-0.0895774 0.0350387,-0.182042 0.0372804,-0.271189 0,-0.000859845 0,-0.0017504 0,-0.00227245 0.00049134,-0.0194386 0,-0.037956 -0.00049134,-0.0565348 -0.000337796,-0.00423781 -0.000337796,-0.00816853 -0.000522049,-0.0121607 -0.000890554,-0.0167056 -0.00273308,-0.0331348 -0.00482128,-0.0490726 -0.00049134,-0.00574254 -0.00116693,-0.0113929 -0.00184253,-0.0169205 -0.00242599,-0.0148323 -0.00515907,-0.0293576 -0.008752,-0.0438828 -0.00116693,-0.006326 -0.00267166,-0.0128363 -0.00423781,-0.0191623 -0.00343938,-0.0131741 -0.00801499,-0.0265938 -0.0123449,-0.0394608 -0.00135119,-0.00371576 -0.00251812,-0.00832207 -0.00408426,-0.0121607 0.000153544,0.000921263 0.000153544,0.00193465 0.000307088,0.00291733 -0.003163,-0.00884412 -0.00574254,-0.0180875 -0.00967326,-0.026778 0,0 0.462443,-0.782244 1.1026,-0.897433 0,0 -0.972731,1.10954 -0.758076,2.05967 0,0 1.02159,-0.591451 1.28031,0.613684 0.00423781,-0.012652 0.00715514,-0.0251505 0.0107481,-0.0375875 0.0354379,-0.12219 0.0439749,-0.238945 0.0384474,-0.344675 -0.000644884,-0.00961184 -0.000644884,-0.0193465 -0.00116693,-0.0286206 -0.0205135,-0.257677 -0.123326,-0.439964 -0.123326,-0.439964 0.0723805,-0.529173 0.209157,-1.00593 0.392857,-1.44119 0.0102567,-0.0241064 0.0213426,-0.0472301 0.0321214,-0.0713979 0.119242,-0.272295 0.256203,-0.529143 0.408549,-0.771435 0.0371269,-0.0590222 0.07539,-0.1174 0.114697,-0.175009 -0.0485505,-0.0239528 -0.0905908,-0.0538017 -0.123204,-0.0909286 -0.0553679,-0.0631986 -0.0820538,-0.14645 -0.0596057,-0.255681 0.00899767,-0.0420403 0.0254269,-0.0790751 0.048182,-0.111411 0.118935,-0.170556 0.409071,-0.219936 0.662357,-0.227767 0.494104,-0.571858 1.05445,-1.06541 1.59821,-1.53224 -0.136193,-0.0229394 -0.256879,-0.0765569 -0.274813,-0.150043 -0.0314151,-0.132263 0.240787,-0.27687 0.501382,-0.170219 0.036267,0.0146788 0.0662388,0.0309544 0.0915121,0.0479671 0.204582,-0.175808 0.404127,-0.348759 0.594337,-0.522571 -0.118567,-0.045756 -0.237409,-0.113346 -0.312062,-0.21275 -0.106068,-0.141537 0.36353,-0.191377 0.58187,-0.0678664 0.00583466,0.00340867 0.0109937,0.00749294 0.0162756,0.011178 0.734124,-0.716957 1.2656,-1.46671 1.27079,-2.44945 0.00098268,-0.196905 -0.0169205,-0.380635 -0.0485505,-0.553832 -0.00242599,-0.0133583 -0.00500553,-0.0271773 -0.00783073,-0.0406277z"/>
    <path id="_196170784" class="fil3" d="M8.20596 9.84406c-0.297384,0.486857 -0.925378,0.489436 -0.925378,0.489436 0.83666,0.160638 1.20259,-0.181366 1.36546,-0.386961 0,0 -0.187323,-0.159593 -0.440087,-0.102475z"/>
    <path id="_196171312" class="fil3" d="M8.31688 18.0274c-0.237839,0.235598 -0.473683,0.592311 -0.622374,0.962996 -0.00294804,0.00798428 -0.006326,0.0159993 -0.00927404,0.0239221 -0.117922,0.302481 -0.17636,0.612793 -0.12867,0.872098l0.158273 0.0679585 0.140431 0.0602199c-0.0198071,0.0452647 -0.191868,0.357081 -0.13432,0.85097 0.178971,-0.544098 0.510625,-0.730561 0.939105,-0.680414 0.270391,-0.306351 0.144055,-1.17547 -0.132846,-1.80006 -0.0599435,-0.13518 -0.130174,-0.257769 -0.210324,-0.357696z"/>
    <path id="_196171288" class="fil3" d="M9.48443 17.6769c-0.0949822,-0.0630451 -0.164353,-0.0895774 -0.172767,-0.0700467 -0.0420403,0.0694018 -0.0765876,0.140769 -0.104594,0.212904 -0.190394,0.486028 -0.0959956,0.996683 -0.0959956,0.996683l0.381372 0.137667c-0.171048,0.375906 0.175224,1.06882 0.195154,1.076 0.042286,-0.512898 0.179646,-0.910699 0.439596,-1.16174 0.0755435,-0.562584 -0.381311,-1.01766 -0.642765,-1.19147z"/>
    <path id="_196171360" class="fil3" d="M9.39114 6.88257c-0.597132,-0.182656 -1.41985,0.156185 -1.41985,0.156185 0,0 0.00598821,0.0087827 0.0151087,0.0241064 0.228842,0.154557 0.405294,0.360613 0.540812,0.585524 0.0914814,-0.104072 0.237102,-0.194141 0.454428,-0.270544 0.0781538,0.281476 -0.0155079,0.757923 -0.0155079,0.757923 0.00261024,-0.00475986 0.484124,-0.512314 0.425009,-1.25319z"/>
   </g>
  </g>
 </g>
</svg>
