<svg width="286" height="44" viewBox="0 0 286 44" fill="none" xmlns="http://www.w3.org/2000/svg">
<path d="M8.3901 32.5741C2.9531 32.5741 0 28.8176 0 24.1109C0 19.3544 3.47603 15.4624 9.18345 15.4624C10.6985 15.4624 12.0148 15.6528 13.1555 16.224V19.2909C12.0027 18.602 10.6675 18.2447 9.30881 18.2618C5.437 18.2618 4.00791 21.0062 4.00791 23.8742C4.00791 27.0835 5.8095 29.6273 8.96138 29.6273C10.3511 29.6273 11.4686 29.2585 12.8117 28.5689L13.777 31.0544C11.7676 32.2671 10.052 32.5758 8.3901 32.5758V32.5741ZM69.5277 32.5758C65.5073 32.5758 63.4388 29.7473 63.4388 26.3699C63.4388 22.5963 66.1699 20.0937 69.8196 20.0937C71.4314 20.0937 72.2767 20.4024 72.9464 20.7798V23.49C72.051 22.8725 71.3347 22.658 70.3408 22.658C68.2795 22.658 66.9543 24.1092 66.9543 26.2001C66.9543 28.0784 67.9822 29.9103 70.2906 29.9103C70.9353 29.9103 71.7896 29.6427 72.7083 29.1916L73.5679 31.4317C72.5238 32.0973 70.7867 32.5724 69.5206 32.5724L69.5277 32.5758ZM80.708 23.0388V32.334H77.1263V23.0406H73.6646V20.3304H84.6371L83.8616 23.0406L80.708 23.0388ZM97.9932 21.7318C97.9932 25.9154 97.8141 28.1024 97.0261 29.1075C96.6152 29.6085 96.0202 29.9404 95.3624 30.0355L96.3546 32.5793C97.1748 32.5553 98.4409 32.2225 99.3094 31.3906C100.452 30.3202 100.823 28.9652 100.996 27.538C101.156 26.2439 101.239 24.9423 101.245 23.6392V23.0457H104.048V32.3409H107.63V20.3338H98.0003L97.9932 21.7318ZM57.47 20.0937C56.0803 20.0937 55.0129 20.7369 54.0942 21.4265L53.6967 20.3321H50.6934V38.1883L54.2751 37.1419V32.075C55.0241 32.4254 55.8506 32.5967 56.6838 32.5741C60.3819 32.5741 62.6151 29.5552 62.6151 25.9891C62.6079 22.1846 60.3514 20.0937 57.47 20.0937ZM55.8081 30.1041C55.2556 30.1033 54.7171 29.9371 54.2679 29.629V23.9445C54.6906 23.327 55.8081 22.5894 56.75 22.5894C58.1827 22.5894 59.0334 23.4694 59.0334 25.9428C59.0334 27.984 58.24 30.1024 55.8081 30.1024V30.1041ZM89.775 20.0937C88.0862 20.0937 86.4512 20.3441 84.7356 21.4076L85.8101 23.4797C86.7838 22.9488 87.8845 22.6687 89.0049 22.6666C90.2442 22.6666 91.3527 23.1915 91.3527 24.4539V24.6581L89.1858 24.737C86.0232 24.8382 83.8867 26.1521 83.8867 28.6821C83.8867 31.0595 85.6775 32.5741 88.0522 32.5741C89.3605 32.6008 90.6284 32.1388 91.5873 31.2859L92.1425 32.3374H94.9398V24.5397C94.947 21.3802 93.1006 20.0937 89.775 20.0937ZM91.3599 29.3665C90.7683 29.7478 90.0669 29.9421 89.3541 29.9223C88.1382 29.9223 87.4541 29.3408 87.4541 28.4334C87.4541 27.526 88.1919 27.0183 89.7231 26.9669L91.3599 26.9171V29.3665ZM114.566 24.231H112.728V19.8072L109.147 20.7249V32.3374H113.719C117.044 32.3374 120.148 31.4798 120.148 28.1761C120.151 25.3716 117.644 24.2292 114.566 24.2292V24.231ZM113.969 29.9703H112.728V26.6118H113.921C115.185 26.6118 116.577 26.8022 116.577 28.2276C116.577 29.653 115.384 29.9686 113.969 29.9686V29.9703ZM34.6349 25.8005V25.7044C35.8008 25.4677 36.7696 24.7301 36.7696 23.1606C36.7696 21.2875 35.1274 20.6048 33.5139 20.3973C33.0196 20.3338 31.9361 20.3321 31.3326 20.3321H26.2233V32.3391H30.5213C30.9959 32.3391 31.7033 32.3391 32.2549 32.322C34.5113 32.2191 37.2979 31.4472 37.2979 28.653C37.2907 26.9394 36.3219 26.0835 34.6349 25.7987V25.8005ZM29.8677 22.6186H31.3398C32.8029 22.6186 33.3509 23.0474 33.3509 23.785C33.3509 24.7112 32.4555 24.996 30.9673 24.996H29.8749L29.8677 22.6186ZM31.2574 30.0612H29.7925V27.1109H31.0837C32.7957 27.1109 33.7144 27.4917 33.7144 28.5621C33.7144 29.6993 32.4984 30.0595 31.2574 30.0595V30.0612ZM25.0467 26.2293C25.0467 22.5191 22.6631 20.0937 19.2372 20.0937C15.489 20.0937 13.3794 22.9942 13.3794 26.3716C13.3794 29.5329 15.2168 32.5758 19.685 32.5758C21.4351 32.5844 23.1504 32.1078 24.6241 31.2036L23.829 29.0406C22.4142 29.6839 21.5009 29.8983 20.2795 29.8983C18.6158 29.8983 17.0273 28.9 16.9521 27.2825H25.0467V26.2293ZM16.8787 24.9222C16.8787 23.8279 17.6989 22.5911 19.137 22.5911C20.6538 22.5911 21.3218 23.7798 21.397 24.9222H16.8787ZM49.6708 26.2293C49.6708 22.5191 47.2872 20.0937 43.8613 20.0937C40.1131 20.0937 38.0035 22.9942 38.0035 26.3716C38.0035 29.5329 39.8409 32.5758 44.3091 32.5758C46.0592 32.5846 47.7746 32.108 49.2482 31.2036L48.4531 29.0406C47.0401 29.6839 46.125 29.8983 44.9036 29.8983C43.2417 29.8983 41.6532 28.9 41.578 27.2825H49.6708V26.2293ZM41.5028 24.9222C41.5028 23.8279 42.323 22.5911 43.7611 22.5911C45.2761 22.5911 45.9459 23.7798 46.0211 24.9222H41.5028Z" fill="#FCD51B"/>
<path d="M126.514 11.8493C126.322 11.9809 126.111 12.0838 125.887 12.1546C125.171 12.369 124.307 12.1718 123.523 11.8647C122.915 11.6225 122.327 11.3345 121.766 11.0037C122.118 10.1726 122.411 9.31991 122.644 8.45131C123.002 7.17667 123.212 5.86791 123.269 4.54902C123.295 3.90447 123.264 3.25896 123.177 2.61932C123.066 1.81485 122.81 0.996658 122.262 0.512946C122.076 0.358732 121.866 0.231591 121.641 0.135583C122.634 0.0284151 123.635 0.00717391 124.632 0.072117C125.554 0.14759 126.492 0.365432 127.04 0.880018C127.588 1.39461 127.83 2.2917 127.936 3.16993C128.026 4.12136 128.02 5.079 127.918 6.02932C127.792 7.22806 127.567 8.41533 127.244 9.57997C127.026 10.393 126.772 11.1752 126.514 11.8493ZM113.002 11.1838C112.98 10.9585 112.992 10.7314 113.039 10.5097C113.199 9.82354 113.813 9.19231 114.483 8.69488C115.009 8.31018 115.566 7.96604 116.148 7.6657C116.723 8.37553 117.347 9.04718 118.016 9.67602C118.992 10.6109 120.073 11.4393 121.24 12.146C121.81 12.4899 122.409 12.7877 123.031 13.0363C123.813 13.3467 124.682 13.5509 125.393 13.3279C125.626 13.2524 125.846 13.1424 126.045 13.002C125.647 13.8793 125.168 14.7204 124.612 15.5149C124.075 16.2422 123.417 16.9128 122.678 17.1084C121.938 17.3039 121.007 17.0586 120.171 16.6984C119.26 16.2996 118.392 15.817 117.579 15.2576C116.562 14.5526 115.604 13.772 114.714 12.9231C114.06 12.3364 113.485 11.7395 113.002 11.1838ZM120.344 0.303681C120.56 0.396622 120.759 0.520396 120.935 0.670753C121.481 1.15103 121.739 1.97266 121.854 2.77713C121.937 3.40271 121.968 4.03368 121.945 4.66395C121.018 4.78666 120.101 4.97006 119.2 5.21284C117.868 5.55252 116.58 6.03229 115.359 6.64339C114.763 6.94437 114.194 7.29265 113.659 7.68457C112.987 8.17858 112.375 8.80123 112.214 9.49763C112.166 9.72969 112.155 9.96753 112.183 10.2026C111.589 9.43287 111.069 8.61303 110.629 7.75318C110.237 6.94871 109.963 6.06191 110.154 5.35178C110.346 4.64165 111.037 3.98984 111.784 3.46496C112.6 2.90957 113.47 2.43106 114.383 2.03612C115.53 1.54226 116.716 1.13563 117.93 0.819983C118.767 0.607287 119.594 0.430613 120.344 0.303681Z" fill="#FCD51B"/>
<path d="M147.123 21H145.233L149.625 14.484L145.323 8.4H147.321L150.795 13.386L154.197 8.4H156.123L151.785 14.628L156.285 21H154.305L150.633 15.762L147.123 21ZM163.05 21.18C162.042 21.18 161.178 20.97 160.458 20.55C159.75 20.118 159.21 19.524 158.838 18.768C158.466 18 158.28 17.112 158.28 16.104C158.28 15.096 158.466 14.214 158.838 13.458C159.21 12.69 159.75 12.096 160.458 11.676C161.178 11.244 162.042 11.028 163.05 11.028C164.07 11.028 164.934 11.244 165.642 11.676C166.362 12.096 166.908 12.69 167.28 13.458C167.652 14.214 167.838 15.096 167.838 16.104C167.838 17.112 167.652 18 167.28 18.768C166.908 19.524 166.362 20.118 165.642 20.55C164.934 20.97 164.07 21.18 163.05 21.18ZM163.05 19.812C164.082 19.812 164.85 19.476 165.354 18.804C165.87 18.132 166.128 17.232 166.128 16.104C166.128 14.964 165.87 14.064 165.354 13.404C164.85 12.732 164.082 12.396 163.05 12.396C162.03 12.396 161.262 12.732 160.746 13.404C160.242 14.076 159.99 14.976 159.99 16.104C159.99 17.232 160.242 18.132 160.746 18.804C161.262 19.476 162.03 19.812 163.05 19.812ZM171.536 21V11.208H173.192V15.942L177.962 11.208H179.96L175.136 15.834L180.086 21H177.998L173.192 15.978V21H171.536ZM182.719 21V11.208H184.375V15.942L189.145 11.208H191.143L186.319 15.834L191.269 21H189.181L184.375 15.978V21H182.719ZM198.114 21.18C197.07 21.18 196.182 20.964 195.45 20.532C194.73 20.1 194.178 19.5 193.794 18.732C193.422 17.964 193.236 17.082 193.236 16.086C193.236 15.102 193.422 14.232 193.794 13.476C194.166 12.72 194.712 12.126 195.432 11.694C196.152 11.25 197.022 11.028 198.042 11.028C198.99 11.028 199.806 11.238 200.49 11.658C201.174 12.066 201.702 12.63 202.074 13.35C202.458 14.07 202.65 14.904 202.65 15.852C202.65 15.972 202.644 16.098 202.632 16.23C202.62 16.35 202.602 16.464 202.578 16.572H194.874C194.946 17.556 195.246 18.354 195.774 18.966C196.302 19.566 197.082 19.866 198.114 19.866C198.918 19.866 199.56 19.692 200.04 19.344C200.532 18.996 200.874 18.504 201.066 17.868L202.596 18.138C202.332 19.086 201.834 19.83 201.102 20.37C200.37 20.91 199.374 21.18 198.114 21.18ZM198.06 12.342C197.124 12.342 196.392 12.606 195.864 13.134C195.348 13.662 195.03 14.37 194.91 15.258H201.048C200.988 14.394 200.694 13.692 200.166 13.152C199.65 12.612 198.948 12.342 198.06 12.342ZM212.258 7.41H213.59C213.59 8.226 213.302 8.88 212.726 9.372C212.162 9.864 211.43 10.11 210.53 10.11C209.63 10.11 208.892 9.864 208.316 9.372C207.752 8.88 207.47 8.226 207.47 7.41H208.802C208.802 7.914 208.958 8.316 209.27 8.616C209.594 8.916 210.014 9.066 210.53 9.066C211.058 9.066 211.478 8.916 211.79 8.616C212.102 8.316 212.258 7.914 212.258 7.41ZM206.246 21V11.208H207.866V18.75L213.032 11.208H214.652V21H213.032V13.458L207.866 21H206.246ZM219.011 21V11.208H220.667V15.204H225.959V11.208H227.615V21H225.959V16.554H220.667V21H219.011ZM241.347 21V11.208H243.003V21H241.347ZM231.987 21V11.208H233.643V14.466H236.487C237.567 14.466 238.413 14.766 239.025 15.366C239.637 15.966 239.943 16.764 239.943 17.76C239.943 18.744 239.637 19.53 239.025 20.118C238.413 20.706 237.567 21 236.487 21H231.987ZM236.163 15.726H233.643V19.74H236.163C236.835 19.74 237.363 19.578 237.747 19.254C238.143 18.918 238.341 18.42 238.341 17.76C238.341 17.088 238.143 16.584 237.747 16.248C237.363 15.9 236.835 15.726 236.163 15.726ZM253.383 7.41H254.715C254.715 8.226 254.427 8.88 253.851 9.372C253.287 9.864 252.555 10.11 251.655 10.11C250.755 10.11 250.017 9.864 249.441 9.372C248.877 8.88 248.595 8.226 248.595 7.41H249.927C249.927 7.914 250.083 8.316 250.395 8.616C250.719 8.916 251.139 9.066 251.655 9.066C252.183 9.066 252.603 8.916 252.915 8.616C253.227 8.316 253.383 7.914 253.383 7.41ZM247.371 21V11.208H248.991V18.75L254.157 11.208H255.777V21H254.157V13.458L248.991 21H247.371ZM146.673 40V30.208H148.329V34.942L153.099 30.208H155.097L150.273 34.834L155.223 40H153.135L148.329 34.978V40H146.673ZM156.608 38.74C156.86 38.716 157.088 38.668 157.292 38.596C157.496 38.524 157.67 38.404 157.814 38.236C158.03 37.984 158.186 37.618 158.282 37.138C158.39 36.658 158.462 36.016 158.498 35.212C158.546 34.408 158.582 33.406 158.606 32.206L158.624 30.208H165.68V40H164.024V31.576H160.19L160.172 32.386C160.148 33.718 160.094 34.834 160.01 35.734C159.938 36.622 159.818 37.342 159.65 37.894C159.482 38.434 159.26 38.866 158.984 39.19C158.708 39.526 158.39 39.76 158.03 39.892C157.67 40.012 157.226 40.084 156.698 40.108L156.608 38.74ZM176.143 30.208H177.799L173.641 40.864C173.257 41.884 172.825 42.622 172.345 43.078C171.865 43.546 171.217 43.78 170.401 43.78C169.993 43.78 169.633 43.726 169.321 43.618L169.249 42.322C169.381 42.358 169.513 42.382 169.645 42.394C169.777 42.406 169.909 42.412 170.041 42.412C170.617 42.412 171.067 42.25 171.391 41.926C171.715 41.614 172.045 41.056 172.381 40.252L172.543 39.856L168.547 30.208H170.293L173.299 37.966L176.143 30.208ZM185.037 40.18C183.501 40.18 182.325 39.694 181.509 38.722C180.693 37.75 180.285 36.418 180.285 34.726V33.826C180.285 32.158 180.471 30.814 180.843 29.794C181.227 28.762 181.827 28 182.643 27.508C183.459 27.004 184.509 26.71 185.793 26.626L187.503 26.5C188.043 26.464 188.547 26.386 189.015 26.266L189.141 27.616C188.649 27.784 188.103 27.886 187.503 27.922L185.793 28.03C184.953 28.09 184.251 28.264 183.687 28.552C183.123 28.84 182.685 29.296 182.373 29.92C182.073 30.544 181.887 31.39 181.815 32.458C182.187 31.762 182.703 31.228 183.363 30.856C184.023 30.472 184.779 30.28 185.631 30.28C186.543 30.28 187.311 30.49 187.935 30.91C188.571 31.318 189.051 31.894 189.375 32.638C189.699 33.382 189.861 34.246 189.861 35.23C189.861 36.226 189.663 37.096 189.267 37.84C188.871 38.584 188.307 39.16 187.575 39.568C186.855 39.976 186.009 40.18 185.037 40.18ZM185.037 38.812C186.033 38.812 186.801 38.494 187.341 37.858C187.893 37.222 188.169 36.34 188.169 35.212C188.169 34.108 187.923 33.226 187.431 32.566C186.939 31.906 186.189 31.576 185.181 31.576C184.257 31.576 183.495 31.894 182.895 32.53C182.307 33.166 182.013 34.054 182.013 35.194C182.013 36.286 182.265 37.162 182.769 37.822C183.273 38.482 184.029 38.812 185.037 38.812Z" fill="white"/>
</svg>
