<svg width="64" height="64" viewBox="0 0 64 64" fill="none" xmlns="http://www.w3.org/2000/svg">
<g clip-path="url(#clip0_1_8781)">
<path fill-rule="evenodd" clip-rule="evenodd" d="M64 32.0001C64 49.6732 49.6728 64 32.0001 64C14.3268 64 0 49.6732 0 32.0003C0 14.3269 14.3268 0 32.0001 0C49.6728 0 64 14.3269 64 32.0001Z" fill="white"/>
<path fill-rule="evenodd" clip-rule="evenodd" d="M53.7757 53.7792C59.3492 48.2057 62.7968 40.5053 62.7968 32.0003H62.8015C62.8015 23.4982 59.352 15.7975 53.7757 10.2215C48.2023 4.64805 40.5021 1.2002 31.9969 1.2002C23.4917 1.2002 15.7915 4.64781 10.2181 10.2213C4.64464 15.7947 1.19727 23.4952 1.19727 32.0006C1.19727 40.5055 4.64464 48.2057 10.2181 53.7794C15.7915 59.3526 23.4917 62.8003 31.9969 62.8003C40.5021 62.8003 48.2023 59.3526 53.7757 53.7792ZM53.8516 32.0003C53.8516 38.0344 51.4059 43.4979 47.4511 47.4524C43.4971 51.4067 38.0339 53.8529 31.9995 53.8529C25.9652 53.8529 20.5022 51.4067 16.5477 47.4524C12.5934 43.4979 10.1472 38.0344 10.1472 32.0006C10.1472 25.9658 12.5932 20.5025 16.5474 16.5482C20.5017 12.5942 25.9649 10.148 31.9995 10.148C38.0341 10.148 43.4973 12.594 47.4516 16.548C51.4059 20.5023 53.8516 25.9658 53.8516 32.0003Z" fill="#002A59"/>
<path fill-rule="evenodd" clip-rule="evenodd" d="M59.15 32.8425C59.3568 32.6357 59.4847 32.35 59.4847 32.0343C59.4847 31.7189 59.3568 31.4332 59.15 31.2265C58.9431 31.0197 58.6574 30.8917 58.3419 30.8917C58.0259 30.8917 57.7401 31.0196 57.5333 31.2262C57.3266 31.4328 57.1989 31.7186 57.1989 32.0343C57.1989 32.3501 57.3267 32.636 57.5336 32.8428C57.7403 33.0495 58.026 33.1774 58.3419 33.1774C58.6574 33.1774 58.9432 33.0494 59.15 32.8425ZM6.7348 32.8425C6.94157 32.6357 7.06951 32.35 7.06951 32.0343C7.06951 31.7189 6.94155 31.4332 6.73475 31.2265C6.52791 31.0197 6.24216 30.8917 5.9267 30.8917C5.61061 30.8917 5.32475 31.0196 5.11795 31.2263C4.91123 31.4329 4.78344 31.7186 4.78344 32.0343C4.78344 32.3501 4.91132 32.6359 5.11818 32.8427C5.32499 33.0495 5.61079 33.1774 5.9267 33.1774C6.24218 33.1774 6.52796 33.0494 6.7348 32.8425ZM21.1632 58.7099L22.9426 56.4243L23.0754 56.4775L22.0568 59.0621L22.8943 59.3922L24.7923 54.5777L23.9384 54.2412L22.1528 56.565L22.0192 56.5126L23.0524 53.892L22.2288 53.5673L20.3313 58.3819L21.1632 58.7099ZM55.2442 47.4944L55.696 46.7894L56.6564 47.2147L57.1689 46.4157L52.2785 44.4551L51.6561 45.4261L55.4829 49.0453L55.9997 48.2395L55.2124 47.544L55.2442 47.4944ZM54.5136 46.9351L53.858 46.3878L52.9664 45.6725L53.0581 45.53L54.0807 46.0421L54.0808 46.0419L54.917 46.4493L54.5737 46.9852L54.5136 46.9351ZM46.4631 50.9235L49.8515 54.8355L50.769 54.0411C50.8454 53.9748 50.9139 53.9053 50.9745 53.8325C51.0348 53.7602 51.0876 53.6842 51.133 53.6045C51.1778 53.5259 51.2125 53.4445 51.2373 53.3605C51.2621 53.2765 51.277 53.1897 51.2822 53.1002C51.287 53.0106 51.2804 52.9181 51.2627 52.8232C51.2448 52.7274 51.2154 52.6286 51.1746 52.5272C51.1331 52.4251 51.0782 52.3212 51.01 52.2155C50.9411 52.1086 50.8588 51.9999 50.7633 51.8896C50.5896 51.6888 50.4167 51.5306 50.2446 51.4149C50.0751 51.3009 49.9065 51.2282 49.7386 51.1965C49.5743 51.1656 49.4048 51.1822 49.2301 51.2462C49.0514 51.3117 48.8671 51.4266 48.6773 51.5908L48.4232 51.811L47.7033 50.9801L48.7595 50.0652L48.1999 49.4194L46.4631 50.9235ZM50.3194 53.2355C50.2858 53.3069 50.2355 53.3716 50.1686 53.4295L49.9725 53.5995L48.9831 52.4571L49.1678 52.297C49.195 52.2732 49.2226 52.2516 49.2505 52.2319C49.2784 52.2122 49.3078 52.1937 49.3385 52.1762C49.3722 52.157 49.4077 52.1428 49.445 52.1336C49.4817 52.1246 49.5203 52.1204 49.5608 52.1211H49.5611C49.6023 52.122 49.6448 52.1296 49.6885 52.1437C49.7305 52.1574 49.774 52.1772 49.8189 52.2032C49.864 52.2295 49.9109 52.2645 49.9596 52.3082C50.0066 52.3504 50.0561 52.4016 50.1082 52.4619C50.1919 52.5584 50.2554 52.6509 50.2986 52.7392C50.3437 52.8312 50.3669 52.9191 50.3681 53.0026C50.3694 53.0861 50.3531 53.1638 50.3194 53.2355ZM53.7862 41.5897C53.6691 41.7168 53.5644 41.8824 53.4721 42.0865C53.379 42.2926 53.326 42.4837 53.3131 42.6599C53.3004 42.8332 53.3264 42.9923 53.3909 43.1372V43.1374C53.456 43.2839 53.5508 43.4149 53.675 43.53C53.8003 43.6462 53.9558 43.7462 54.1414 43.8302L56.5689 44.9277C56.7664 45.0169 56.9492 45.0708 57.1172 45.0893C57.2823 45.1075 57.4334 45.0916 57.5704 45.0416C57.7069 44.992 57.8328 44.9035 57.9479 44.7763C58.0656 44.6462 58.1723 44.4753 58.2678 44.2636C58.3536 44.0743 58.401 43.8955 58.4101 43.7273C58.4191 43.5609 58.3908 43.4042 58.3253 43.2571C58.2591 43.1082 58.164 42.9752 58.0401 42.8582C57.9273 42.7516 57.7906 42.6582 57.63 42.5778L57.1547 43.34C57.2122 43.3715 57.2626 43.4045 57.3059 43.4387C57.3682 43.4881 57.4158 43.5403 57.4488 43.5952C57.4829 43.6525 57.5026 43.7096 57.5075 43.7668C57.5124 43.825 57.502 43.8826 57.476 43.94C57.4452 44.0085 57.4104 44.0613 57.3718 44.0987C57.3275 44.1415 57.2783 44.1646 57.2243 44.1685H57.2237C57.1809 44.1712 57.1394 44.1692 57.0993 44.1623C57.0586 44.1552 57.0193 44.1432 56.9815 44.126L54.5117 43.0095C54.4929 43.0008 54.4733 42.9903 54.4531 42.9781C54.4336 42.9663 54.413 42.9526 54.3915 42.9371L54.3909 42.9365C54.368 42.9194 54.3471 42.9009 54.328 42.8813C54.3091 42.8618 54.2918 42.8409 54.2759 42.8188L54.2743 42.8166C54.2582 42.7924 54.245 42.7664 54.2347 42.7388C54.2242 42.7112 54.2168 42.6823 54.2122 42.6524C54.207 42.6202 54.2078 42.5858 54.2145 42.5497C54.2209 42.5148 54.2326 42.4788 54.2492 42.4422L54.2495 42.4423C54.2766 42.3822 54.316 42.3349 54.3679 42.3C54.4182 42.2661 54.479 42.2449 54.5503 42.236H54.5509C54.6179 42.2283 54.6879 42.2307 54.7611 42.2434C54.8096 42.2517 54.8598 42.2647 54.9114 42.2822L55.132 41.422C55.1279 41.4199 55.1238 41.4179 55.1198 41.4161L55.1197 41.4162L55.109 41.4113C55.0923 41.4038 55.0749 41.3959 55.0536 41.3861C54.8966 41.3152 54.7439 41.2749 54.5957 41.2654C54.4485 41.2559 54.3051 41.2766 54.1653 41.3276C54.0271 41.3779 53.9008 41.4654 53.7862 41.5897ZM30.6903 55.688C30.5308 55.6214 30.3393 55.5797 30.1159 55.5628C29.8903 55.5457 29.6925 55.5612 29.5225 55.6093C29.3557 55.6564 29.2152 55.7352 29.1008 55.8455C28.985 55.9572 28.8943 56.0909 28.8287 56.2465C28.7625 56.4037 28.7216 56.584 28.7061 56.7875L28.5042 59.4438C28.4878 59.6602 28.4996 59.8506 28.5397 60.0148C28.5789 60.1757 28.6453 60.312 28.7391 60.4238C28.8323 60.5351 28.9584 60.6231 29.1174 60.6878C29.2803 60.7542 29.4775 60.7961 29.7088 60.8137C29.9163 60.8296 30.1007 60.813 30.2619 60.7641C30.4209 60.7158 30.5585 60.6357 30.6745 60.5237C30.7917 60.4108 30.884 60.2762 30.9516 60.1196C31.013 59.9774 31.054 59.817 31.0746 59.6383L30.1963 59.4523C30.1863 59.5171 30.1725 59.5758 30.1552 59.6282C30.1302 59.7034 30.0975 59.7659 30.0572 59.8155V59.8158C30.0153 59.867 29.9683 59.9049 29.9159 59.9293C29.8625 59.9541 29.8048 59.9642 29.7422 59.9596H29.7416C29.667 59.9537 29.6057 59.9391 29.5576 59.9156C29.5025 59.8887 29.464 59.8503 29.4418 59.8003H29.4416C29.4244 59.7615 29.4122 59.7217 29.4048 59.6809C29.3974 59.6399 29.3952 59.599 29.3981 59.5583L29.604 56.8562C29.6055 56.8353 29.6085 56.8132 29.6131 56.7902C29.6173 56.7687 29.6234 56.7445 29.6312 56.7176V56.7174C29.6394 56.6898 29.6495 56.6637 29.6614 56.6389C29.6732 56.6145 29.6871 56.5909 29.7031 56.5681L29.7039 56.5667C29.7211 56.5432 29.741 56.5217 29.7636 56.5022C29.7855 56.4834 29.8097 56.4668 29.8363 56.4523C29.865 56.4361 29.8978 56.425 29.9343 56.4189C29.9688 56.4131 30.0064 56.4117 30.0469 56.4147H30.0471C30.1125 56.4196 30.1705 56.4406 30.2213 56.4776C30.2702 56.5133 30.3109 56.5632 30.3437 56.6273L30.3443 56.6281C30.3746 56.6889 30.3963 56.7558 30.4094 56.8289C30.418 56.877 30.4228 56.9282 30.4238 56.9824L31.3077 56.8958C31.3083 56.8914 31.3086 56.887 31.3089 56.8826C31.3089 56.8621 31.3127 56.8305 31.3142 56.8095C31.3273 56.6375 31.3132 56.4801 31.2715 56.3377C31.2303 56.1966 31.1619 56.0689 31.0661 55.9549C30.9716 55.8422 30.8463 55.7531 30.6903 55.688ZM48.1043 55.2737C48.063 55.1079 47.9825 54.9318 47.8629 54.7453L46.3926 52.451C46.2729 52.2643 46.1471 52.1171 46.0153 52.0098C45.8864 51.9048 45.7517 51.8378 45.6113 51.8089C45.4705 51.7799 45.3187 51.7874 45.1558 51.8314C44.9892 51.8763 44.8116 51.9592 44.6228 52.08L44.6229 52.0801C44.4511 52.1903 44.3125 52.3098 44.2073 52.4388C44.1035 52.5658 44.0317 52.7026 43.992 52.8492C43.9527 52.9936 43.952 53.1473 43.99 53.3101C44.0289 53.4766 44.108 53.6529 44.2273 53.839C44.4863 54.243 45.4684 55.9039 45.6983 56.1337C45.9294 56.4944 46.1909 56.7061 46.4825 56.7691C46.7742 56.8321 47.1016 56.7474 47.4644 56.515H47.4646L47.4651 56.5146L47.465 56.5145C47.6476 56.3974 47.793 56.2731 47.9012 56.1415C48.0074 56.0123 48.0781 55.8757 48.1129 55.7319C48.1476 55.589 48.1448 55.4363 48.1043 55.2737ZM45.4862 52.781C45.5269 52.813 45.5653 52.857 45.6011 52.9132L45.6012 52.9131L47.1171 55.2779C47.1541 55.3355 47.1788 55.3901 47.1913 55.4416C47.205 55.4979 47.2041 55.5504 47.1885 55.5988C47.1743 55.6432 47.1525 55.6835 47.1233 55.7198C47.0946 55.7554 47.0589 55.7868 47.0165 55.814C46.9739 55.8413 46.9302 55.8608 46.8853 55.8724C46.8398 55.8842 46.7937 55.8878 46.747 55.8831C46.6952 55.8779 46.646 55.8575 46.5997 55.8218C46.5575 55.7892 46.5177 55.744 46.4806 55.686L44.9647 53.321C44.9288 53.265 44.905 53.2112 44.8934 53.1596C44.8808 53.1039 44.8823 53.0513 44.8979 53.0017L44.8981 53.0014C44.9128 52.9556 44.9348 52.9139 44.9643 52.8767C44.9933 52.8401 45.0292 52.808 45.072 52.7806L45.0719 52.7805C45.1147 52.753 45.1588 52.7339 45.2038 52.7232C45.2496 52.7124 45.2961 52.7104 45.3431 52.7171H45.3433C45.3937 52.7246 45.4415 52.7458 45.4862 52.781ZM9.90375 49.4029C10.0677 49.3537 10.2398 49.2649 10.4201 49.1369L12.641 47.5578C12.8215 47.4293 12.9624 47.2966 13.0634 47.1597C13.1621 47.0257 13.2226 46.8879 13.2447 46.7464C13.2671 46.6044 13.2525 46.4531 13.2007 46.2926C13.1479 46.1288 13.0564 45.9553 12.9262 45.7723C12.8081 45.6061 12.682 45.4734 12.548 45.3742C12.4159 45.2766 12.2759 45.2114 12.128 45.1788C11.9821 45.1464 11.8286 45.1532 11.6675 45.1991C11.5027 45.246 11.3303 45.3335 11.1503 45.4614L8.93008 47.0402L8.92994 47.0404L8.9294 47.0407C8.58008 47.2891 8.38096 47.5605 8.3321 47.8548C8.2832 48.1493 8.38356 48.4724 8.63326 48.8237L8.63349 48.8239L8.63376 48.8243C8.7593 49.0008 8.89051 49.14 9.02726 49.2418C9.16143 49.3416 9.3012 49.4056 9.44642 49.4334C9.59091 49.4613 9.74335 49.451 9.90375 49.4028V49.4029ZM12.2679 46.6676C12.2375 46.7105 12.1955 46.7511 12.1416 46.7893L9.85196 48.4171C9.79594 48.457 9.74262 48.4843 9.69205 48.4993C9.63637 48.5157 9.58395 48.5173 9.53488 48.5041C9.49007 48.4921 9.44869 48.4722 9.41097 48.4446C9.3742 48.4178 9.34108 48.3836 9.31173 48.3423C9.28229 48.3008 9.26075 48.2582 9.24711 48.2144C9.23318 48.1696 9.22745 48.1237 9.22985 48.0765C9.23251 48.0243 9.2505 47.9743 9.2838 47.9265C9.31414 47.883 9.35753 47.8412 9.41392 47.8012L11.7034 46.1732C11.7577 46.1346 11.8103 46.1083 11.8611 46.0943C11.9161 46.0791 11.9687 46.0781 12.019 46.0913H12.0196C12.0662 46.1038 12.1089 46.1239 12.1474 46.1515C12.1848 46.1783 12.2184 46.2126 12.2482 46.2545L12.2483 46.2544C12.2776 46.2957 12.2988 46.3387 12.3117 46.3834C12.3249 46.4287 12.3292 46.475 12.3246 46.5221V46.5224C12.3195 46.5729 12.3006 46.6213 12.2679 46.6676ZM5.8699 42.3549C6.04136 42.3549 6.23183 42.3194 6.44133 42.2487L9.0224 41.3754C9.2326 41.3042 9.40573 41.2176 9.54165 41.1157C9.67462 41.0159 9.77223 40.9014 9.83432 40.7721C9.89651 40.6424 9.92595 40.4933 9.92256 40.3247C9.91909 40.1527 9.88138 39.9603 9.80941 39.7476C9.74399 39.5542 9.66142 39.3908 9.56173 39.2575C9.46332 39.126 9.34793 39.0232 9.21563 38.9492C9.08499 38.8762 8.93608 38.8386 8.76899 38.8362C8.59807 38.8337 8.40777 38.868 8.19818 38.9388L5.6171 39.8121C5.21067 39.9496 4.94171 40.1521 4.81021 40.4199C4.67862 40.6879 4.68199 41.0263 4.82036 41.4353V41.4355C4.88961 41.6405 4.97514 41.8114 5.07684 41.9483C5.17671 42.0827 5.29218 42.1842 5.42314 42.2527C5.55326 42.3208 5.70217 42.3549 5.8699 42.3549ZM8.92123 40.4155C8.87992 40.4478 8.828 40.4747 8.76542 40.4959L6.10426 41.3959C6.03942 41.4179 5.98047 41.4287 5.92752 41.4284C5.86948 41.4282 5.8188 41.4146 5.77559 41.3878C5.73584 41.3633 5.70194 41.3325 5.67392 41.2954C5.64653 41.2592 5.62468 41.2168 5.60835 41.1685C5.5921 41.1211 5.5838 41.0741 5.58331 41.0276C5.58283 40.9804 5.59045 40.9349 5.60611 40.8909L5.60639 40.8907C5.62397 40.8416 5.65566 40.7989 5.7016 40.7625C5.74336 40.7294 5.79688 40.7019 5.86217 40.68L8.52285 39.7794C8.58585 39.7581 8.64379 39.7481 8.69675 39.7493C8.75384 39.7507 8.80452 39.765 8.84883 39.7921C8.88995 39.8173 8.92502 39.8487 8.95408 39.8863C8.9827 39.9233 9.00515 39.9658 9.02151 40.0139V40.0141C9.03776 40.0622 9.0456 40.1094 9.04508 40.1556C9.04454 40.203 9.03524 40.2488 9.01723 40.2925C8.99782 40.3396 8.96583 40.3806 8.92123 40.4155ZM5.95493 37.362L3.85881 37.7362L4.01702 38.6225L9.11135 37.7131L8.95333 36.8267L6.87932 37.1969L6.73832 36.4073L8.81236 36.0371L8.65415 35.1508L3.55968 36.0602L3.71807 36.9465L5.88207 36.5602L6.02307 37.3498L5.95493 37.362ZM15.4611 48.8845C15.3872 48.7283 15.2729 48.5691 15.1181 48.4069C14.9623 48.2435 14.805 48.1227 14.6464 48.0445C14.4908 47.9679 14.3336 47.9323 14.1748 47.9378C14.014 47.9433 13.8569 47.982 13.7037 48.0538C13.5493 48.1263 13.3983 48.2329 13.2509 48.3738L11.323 50.2118C11.1664 50.3613 11.0479 50.5106 10.9676 50.6597C10.8888 50.8059 10.8469 50.9516 10.8419 51.0967V51.0969C10.8365 51.2422 10.8713 51.3921 10.9462 51.5468C11.0228 51.7051 11.1413 51.8682 11.3015 52.0362C11.4447 52.1864 11.5927 52.2974 11.7453 52.369C11.896 52.4398 12.052 52.4725 12.213 52.4671C12.3757 52.4615 12.5346 52.4231 12.6897 52.352C12.8302 52.2875 12.9679 52.1958 13.1027 52.077L12.5753 51.3505C12.5242 51.3922 12.4745 51.4267 12.4263 51.4541C12.3571 51.4934 12.2909 51.5178 12.2278 51.5273L12.2278 51.5271C12.1624 51.5375 12.1023 51.5344 12.0473 51.5175C11.9911 51.5001 11.9413 51.4687 11.8978 51.4228L11.8977 51.4229C11.846 51.3689 11.8102 51.317 11.7901 51.2671C11.7671 51.21 11.7641 51.1557 11.781 51.1043C11.7945 51.0634 11.812 51.0256 11.8335 50.991C11.8553 50.956 11.8811 50.9241 11.9109 50.8955L13.8722 49.0251C13.8871 49.0109 13.9043 48.9966 13.9236 48.9822C13.9427 48.968 13.9632 48.9541 13.9852 48.9404H13.9855C14.0105 48.9249 14.0356 48.9122 14.0607 48.9021C14.0862 48.8918 14.1123 48.8836 14.1389 48.8774L14.141 48.8772C14.1695 48.8714 14.1984 48.8688 14.2277 48.8694C14.2562 48.87 14.2851 48.8738 14.3143 48.8807L14.3143 48.8804C14.3469 48.8876 14.3788 48.9013 14.4098 48.921L14.4098 48.9211C14.4394 48.9398 14.4684 48.9641 14.4967 48.9934L14.4969 48.9937C14.5423 49.0415 14.5715 49.0959 14.5844 49.1571C14.597 49.2164 14.5939 49.2808 14.5753 49.3506L14.5751 49.3514C14.5567 49.4163 14.528 49.4805 14.4887 49.5437C14.4628 49.5853 14.4322 49.6267 14.3969 49.6677L15.1114 50.195C15.1148 50.192 15.1181 50.189 15.1213 50.1859L15.1377 50.1703C15.1505 50.1582 15.164 50.1453 15.175 50.1351C15.2993 50.0165 15.3938 49.8903 15.4582 49.7565C15.5222 49.6237 15.5568 49.4831 15.5618 49.3346C15.567 49.1874 15.5334 49.0373 15.461 48.8843L15.4611 48.8845ZM13.9851 54.4459L16.3449 52.7656L16.4566 52.8553L14.74 55.039L15.4478 55.5956L18.6459 51.5267L17.9245 50.96L15.548 52.6742L15.4347 52.5858L17.1753 50.371L16.4799 49.8242L13.2818 53.8929L13.9851 54.4459ZM54.6052 50.1327L50.6932 46.7447L49.1541 48.5217L51.3699 50.4408C51.4589 50.5178 51.539 50.5883 51.6101 50.6522C51.6834 50.7183 51.7517 50.7813 51.8148 50.8412C51.8777 50.901 51.9337 50.9609 51.9827 51.0208C52.032 51.0813 52.0741 51.1416 52.1089 51.2018L52.1091 51.202C52.1441 51.2631 52.1726 51.3272 52.1944 51.3942C52.216 51.4606 52.231 51.5296 52.2391 51.6013C52.2471 51.673 52.2478 51.751 52.2411 51.8353C52.2359 51.9004 52.2263 51.9696 52.2123 52.0427L52.9154 52.2557C52.9552 52.1503 52.9869 52.0497 53.0104 51.9539V51.9537C53.038 51.8412 53.0542 51.7358 53.0592 51.6373V51.637C53.0642 51.5391 53.058 51.4431 53.0405 51.3492C53.0231 51.2557 52.9944 51.1635 52.9545 51.0728C52.914 50.9811 52.8616 50.8882 52.7973 50.7943C52.7329 50.7002 52.6564 50.6049 52.5678 50.5085C52.4773 50.4102 52.3752 50.3067 52.2615 50.1982C52.1475 50.0894 52.0221 49.9757 51.8853 49.8571L50.3098 48.4928L50.7597 47.9732L54.0256 50.802L54.6052 50.1327ZM59.7349 40.4455L55.6423 39.0605L55.9044 38.2866L55.095 38.0127L54.2825 40.4129L55.0919 40.6868L55.3537 39.9135L59.4462 41.2984L59.7349 40.4455ZM33.9028 55.6277L33.3043 57.3188L33.1375 57.332L33.013 55.6951L32.1153 55.7634L32.5078 60.9235L33.4056 60.8554L33.2916 59.359C33.3592 59.1313 33.4266 58.9035 33.494 58.6757L34.4433 60.7764L35.3679 60.7062L33.944 57.7565L34.8504 55.5555L33.9028 55.6277ZM9.18827 44.8451C9.1911 44.7916 9.18804 44.7356 9.17891 44.6773L9.17118 44.6279L9.29323 44.5657L9.32856 44.5994C9.36398 44.6332 9.40149 44.6623 9.44103 44.6865C9.48045 44.7107 9.52211 44.7303 9.56593 44.7452C9.61121 44.7607 9.65663 44.7722 9.7022 44.7795C9.7484 44.787 9.79518 44.7905 9.84248 44.7899H9.84276C9.89043 44.7897 9.93875 44.786 9.98766 44.7793C10.0363 44.7726 10.085 44.7628 10.1338 44.7502C10.1825 44.7373 10.2309 44.7217 10.2788 44.7033C10.3273 44.6847 10.3738 44.6641 10.4181 44.6414C10.6287 44.5335 10.8001 44.4136 10.9323 44.2817C11.0619 44.1524 11.1536 44.0116 11.2073 43.8592C11.2606 43.7075 11.2753 43.5439 11.2514 43.3685C11.227 43.1898 11.1627 42.9987 11.0585 42.7951L10.5432 41.7896L5.93717 44.1495L6.4421 45.1346C6.55091 45.3472 6.67443 45.5181 6.81259 45.6474C6.94835 45.7744 7.099 45.8615 7.26444 45.9087C7.43003 45.9558 7.61493 45.9604 7.81907 45.9224C8.02718 45.8837 8.25505 45.8009 8.50263 45.6741C8.55395 45.6479 8.60484 45.619 8.65523 45.5875C8.70418 45.557 8.75164 45.5243 8.79756 45.4897C8.84301 45.4553 8.88468 45.4194 8.92247 45.3819C8.96054 45.3442 8.99501 45.3048 9.02577 45.2637C9.05596 45.2234 9.08266 45.1806 9.10583 45.1351C9.12902 45.0896 9.14793 45.043 9.1625 44.9953C9.1768 44.9482 9.18544 44.898 9.18827 44.8451ZM10.2343 43.7399C10.1767 43.7926 10.0988 43.8442 10.0006 43.8945C9.82697 43.9834 9.67495 44.0123 9.5445 43.981C9.4099 43.9488 9.30297 43.8552 9.22368 43.7005L9.13335 43.5242L10.1932 42.981L10.2735 43.1375C10.3145 43.2178 10.3419 43.2921 10.3557 43.3605C10.3703 43.4331 10.3698 43.4993 10.3541 43.5591V43.5597C10.3374 43.6219 10.2975 43.682 10.2343 43.7399ZM8.41578 44.7248C8.35305 44.7791 8.27119 44.8322 8.17043 44.8837L8.17049 44.8838C8.12539 44.9071 8.0803 44.9287 8.03574 44.9486C7.99069 44.9687 7.94646 44.9868 7.90355 45.0027C7.85936 45.0193 7.81553 45.032 7.77246 45.0406C7.72918 45.0494 7.68673 45.054 7.64547 45.0544C7.60229 45.0547 7.56071 45.0501 7.52124 45.0404C7.48119 45.0305 7.44325 45.0155 7.40792 44.9953V44.995C7.37065 44.9736 7.33641 44.9449 7.30522 44.909C7.27556 44.8748 7.24838 44.8336 7.22374 44.7854L7.10882 44.5613L8.39956 43.9001L8.51813 44.1309C8.55574 44.2045 8.57803 44.2751 8.58471 44.3428C8.59169 44.4136 8.58181 44.4809 8.55479 44.5445C8.52894 44.6068 8.48257 44.667 8.41578 44.7248ZM19.3907 52.0028L16.8109 56.4895L17.8628 57.0945L17.8629 57.0942C17.9509 57.1447 18.0392 57.1866 18.1279 57.2199C18.2163 57.2531 18.3054 57.278 18.395 57.2945C18.4838 57.311 18.5719 57.3172 18.6593 57.3131C18.7465 57.309 18.8336 57.2945 18.9204 57.2697L18.9204 57.2698C19.0061 57.245 19.0911 57.2084 19.1753 57.1602C19.2606 57.1113 19.3441 57.051 19.4258 56.9795C19.5084 56.9071 19.5885 56.8213 19.666 56.7223C19.7445 56.622 19.8203 56.5084 19.8931 56.3818C20.0253 56.1517 20.1178 55.9363 20.1705 55.7355V55.7352C20.2223 55.5379 20.2355 55.3547 20.2103 55.1855C20.1851 55.0201 20.1137 54.8655 19.9959 54.7218C19.8753 54.5747 19.7063 54.4385 19.4888 54.3134L19.1975 54.1461L19.7454 53.1927L20.9566 53.8893L21.3827 53.1482L19.3907 52.0028ZM18.4756 56.4054C18.3974 56.3972 18.3199 56.371 18.2429 56.3267L18.0179 56.1973L18.7713 54.887L18.9831 55.0087L18.9832 55.0084C19.0141 55.0262 19.0437 55.0452 19.072 55.0654C19.0992 55.0849 19.1263 55.1065 19.1533 55.1302C19.1824 55.1557 19.2076 55.1846 19.2287 55.2169C19.2497 55.2492 19.2665 55.2842 19.2789 55.322V55.3226C19.2915 55.3614 19.2983 55.404 19.2992 55.4503C19.3002 55.4949 19.2957 55.5424 19.286 55.5928C19.2761 55.6437 19.2585 55.6994 19.2332 55.7598C19.2089 55.8179 19.1767 55.8817 19.1369 55.951L19.1371 55.9511C19.0735 56.0619 19.007 56.1523 18.9379 56.2222C18.8658 56.2952 18.7904 56.3461 18.712 56.3747C18.6333 56.4034 18.5545 56.4136 18.4756 56.4054ZM27.1012 55.1787C27.0088 55.1442 26.9092 55.1146 26.8025 55.0899L25.6422 54.8221L24.4781 59.8647L25.3556 60.0672L25.7935 58.1705L26.0986 58.2411C26.3403 58.2969 26.5557 58.3095 26.7447 58.2789C26.9302 58.249 27.091 58.1771 27.2272 58.0634C27.3661 57.9471 27.4852 57.7962 27.5843 57.6107C27.6847 57.4228 27.7649 57.1991 27.8248 56.9397C27.8596 56.7883 27.883 56.6483 27.8948 56.5197C27.9066 56.3919 27.9072 56.2746 27.8967 56.1679C27.8862 56.0619 27.8667 55.9647 27.8382 55.8762C27.8101 55.789 27.7732 55.7103 27.7273 55.64L27.7272 55.6401C27.6809 55.5692 27.6271 55.5054 27.5657 55.4485C27.5037 55.3911 27.4343 55.3406 27.3574 55.2971C27.2789 55.2527 27.1934 55.2133 27.1012 55.1787ZM26.0011 57.2707L26.3273 55.857L26.5803 55.9156C26.6652 55.9352 26.7394 55.9663 26.8026 56.0092C26.867 56.0529 26.9193 56.1082 26.9594 56.1752C27.0002 56.2427 27.0229 56.3254 27.0276 56.4231C27.0322 56.5158 27.0205 56.6226 26.9927 56.7433C26.9749 56.8204 26.9547 56.8904 26.932 56.9528C26.9091 57.0161 26.8837 57.0715 26.8559 57.1184C26.8282 57.166 26.7987 57.2075 26.7676 57.2429V57.2431C26.7357 57.2794 26.7015 57.3096 26.6652 57.3335L26.6654 57.3338C26.6298 57.3578 26.5929 57.3764 26.5547 57.3897C26.5164 57.4029 26.4775 57.4104 26.4381 57.4121C26.4025 57.4138 26.3667 57.4129 26.3307 57.4097C26.2944 57.4065 26.2588 57.4008 26.224 57.3928L25.9856 57.3377L26.0011 57.2707ZM37.0985 59.3873L37.9228 59.2398L38.2633 60.2332L39.1975 60.0665L37.3137 55.1461L36.1788 55.3489L36.1228 60.6159L37.0651 60.4476L37.0406 59.3977L37.0985 59.3873ZM37.0125 58.4709L36.9688 57.6196L36.8876 56.4776L37.0546 56.4481L37.3735 57.5466L37.3738 57.5466L37.6432 58.4372L37.0165 58.549L37.0125 58.4709ZM40.0794 58.072L40.3467 59.702L41.1972 59.4145L40.9548 58.0104L40.955 58.0104C40.9362 57.9057 40.9261 57.8077 40.9246 57.7167C40.9231 57.6241 40.9305 57.5385 40.9467 57.4601V57.4599C40.9646 57.3747 40.9983 57.3027 41.048 57.244C41.0979 57.185 41.163 57.1404 41.2433 57.1103C41.3026 57.088 41.3659 57.0687 41.4263 57.0482L42.1212 59.1017L42.9738 58.8133L41.3156 53.911L40.1879 54.2923C40.0878 54.3263 39.9943 54.3667 39.9074 54.4136C39.8206 54.4603 39.7406 54.5134 39.6672 54.5729L39.667 54.5731C39.5942 54.632 39.5293 54.6969 39.4724 54.7677C39.4155 54.8386 39.3665 54.9154 39.3256 54.998C39.2847 55.0807 39.2531 55.1683 39.2309 55.2606C39.2085 55.3533 39.1954 55.451 39.1917 55.5537C39.1879 55.6564 39.1953 55.7638 39.2138 55.8758C39.2324 55.9881 39.2623 56.1053 39.3037 56.2273V56.2276C39.3503 56.3658 39.4036 56.489 39.4635 56.5973C39.5228 56.7042 39.5886 56.7967 39.661 56.8745C39.7317 56.9505 39.8137 57.0125 39.9069 57.0604C40.0012 57.1089 40.108 57.1435 40.227 57.1642L40.3518 57.1859L40.2658 57.2788C40.2233 57.3246 40.1871 57.3768 40.1574 57.4351C40.1275 57.4937 40.1046 57.5577 40.0888 57.6271V57.6274C40.0723 57.699 40.0633 57.7715 40.0618 57.8448C40.0602 57.9184 40.0662 57.9939 40.0794 58.0714L40.0794 58.072ZM40.2433 55.2243C40.3086 55.17 40.391 55.126 40.4908 55.0923L40.7364 55.0091L41.1574 56.2529C41.1227 56.2647 40.9501 56.3266 40.9402 56.3266C40.9051 56.3385 40.8692 56.3492 40.8327 56.3587C40.7966 56.3681 40.7603 56.3762 40.7236 56.383C40.6833 56.3904 40.6436 56.3935 40.6046 56.3921C40.565 56.3907 40.5263 56.3847 40.4885 56.3741C40.4498 56.3633 40.4124 56.3469 40.3764 56.325C40.3414 56.3037 40.3078 56.277 40.2755 56.2449C40.2428 56.2125 40.2128 56.1719 40.1857 56.1232C40.1596 56.0764 40.1361 56.0223 40.1152 55.9608V55.9606C40.0807 55.8581 40.0615 55.7627 40.0579 55.6746C40.0542 55.5835 40.067 55.5003 40.0964 55.425C40.1266 55.3476 40.1756 55.2806 40.2433 55.2243ZM55.2064 37.4358L60.3007 38.3476L60.5146 37.1528C60.5323 37.0538 60.5419 36.9568 60.5433 36.8619C60.5447 36.7676 60.538 36.6751 60.5232 36.5844V36.5842C60.5089 36.4956 60.4849 36.411 60.4516 36.3304C60.4181 36.2491 60.3748 36.1717 60.3223 36.0983C60.27 36.0259 60.207 35.9583 60.1335 35.8956C60.059 35.8321 59.9739 35.7738 59.8786 35.7207L59.8786 35.7206C59.7833 35.6678 59.6753 35.6215 59.5547 35.5817C59.434 35.5418 59.3018 35.5091 59.1582 35.4835H59.158C58.8965 35.4368 58.6624 35.4225 58.4556 35.4407C58.252 35.4586 58.0752 35.5079 57.925 35.5885C57.7779 35.6681 57.6565 35.7878 57.5608 35.9475C57.4631 36.1106 57.392 36.3156 57.3478 36.5622L57.348 36.5623L57.289 36.8939L55.3651 36.5497L55.2064 37.4358ZM59.659 36.8094C59.6778 36.8859 59.6794 36.9676 59.6639 37.0545L59.6637 37.0547L59.6177 37.3103L58.1299 37.0442L58.173 36.8034C58.1791 36.7692 58.1869 36.735 58.1965 36.701C58.2062 36.6666 58.2173 36.6336 58.2298 36.602L58.2301 36.602C58.244 36.5664 58.2626 36.5332 58.2858 36.5026C58.3094 36.4716 58.3369 36.4438 58.3682 36.4192L58.3688 36.419C58.4013 36.3938 58.4391 36.373 58.482 36.3566C58.5234 36.3408 58.5698 36.329 58.6211 36.3212L58.6211 36.3213C58.6725 36.3132 58.7308 36.3109 58.796 36.3143C58.8604 36.3176 58.9311 36.3262 59.0083 36.34C59.1342 36.3625 59.2417 36.3944 59.3306 36.4358H59.3309C59.4234 36.4788 59.4964 36.5326 59.5501 36.597C59.6038 36.6616 59.6402 36.7323 59.6591 36.8093L59.659 36.8094ZM8.73957 28.4378L7.28862 27.7057L7.31176 27.5746L8.92681 27.3902L9.11429 26.3393L6.2606 26.949L4.00639 25.5053L3.81899 26.5545L5.04703 27.1462L5.02108 27.2933L3.65988 27.4459L3.47363 28.4895L6.08272 27.9449L8.55432 29.4749L8.73957 28.4378ZM5.83535 22.9263C5.88774 22.9258 5.94522 22.9361 6.00785 22.9574L8.66901 23.8574C8.73396 23.8795 8.7874 23.9067 8.82921 23.939C8.8752 23.9746 8.90721 24.0161 8.92516 24.0638L8.92502 24.0638C8.9416 24.1071 8.94978 24.1519 8.9496 24.1983C8.94943 24.2443 8.94123 24.2913 8.92509 24.3392V24.3394C8.9089 24.387 8.8869 24.4294 8.85907 24.4665C8.83087 24.5041 8.79704 24.5358 8.75757 24.5614C8.71396 24.5898 8.66289 24.6044 8.60439 24.6054C8.55116 24.6062 8.49194 24.5956 8.4267 24.5736L5.76529 23.6734C5.70219 23.652 5.65003 23.6248 5.60892 23.5919C5.5647 23.5565 5.53316 23.5143 5.51434 23.4655C5.49697 23.4207 5.48804 23.3744 5.48778 23.3268C5.48752 23.2798 5.49555 23.2323 5.51185 23.1844C5.52826 23.1362 5.55071 23.0938 5.57918 23.0574C5.60839 23.0201 5.64353 22.9895 5.68456 22.9656C5.72846 22.9399 5.77877 22.9269 5.83535 22.9263ZM9.43723 23.2376C9.30121 23.1337 9.12844 23.0463 8.91895 22.9755L6.33737 22.1022C6.12718 22.0311 5.93712 21.9947 5.76733 21.9932C5.60145 21.9917 5.45442 22.0236 5.3264 22.0889C5.19805 22.1542 5.08411 22.2548 4.98458 22.3906C4.88273 22.5296 4.79577 22.7054 4.72373 22.918C4.65835 23.1112 4.62486 23.291 4.62316 23.4573C4.62149 23.6218 4.65078 23.7737 4.71095 23.9129C4.77033 24.0498 4.86589 24.1701 4.99754 24.2737C5.13198 24.3795 5.3039 24.4678 5.51317 24.5387L8.09449 25.412C8.50055 25.5493 8.83722 25.5515 9.10446 25.4184C9.37184 25.2853 9.5747 25.0144 9.71299 24.6057C9.78249 24.4003 9.81838 24.2124 9.82064 24.0422C9.82285 23.8748 9.79267 23.7241 9.73012 23.5902H9.72985C9.66765 23.4567 9.57008 23.3392 9.43723 23.2376ZM6.61776 18.5913L7.74787 19.9848L7.67203 20.1337L6.21086 19.3854L5.80047 20.187L10.4065 22.5467L10.8173 21.7451L9.48063 21.0603C9.32195 20.8839 9.16305 20.7076 9.00425 20.5313L11.2917 20.8186L11.7144 19.9935L8.45548 19.6674L7.05104 17.7452L6.61776 18.5913ZM8.81922 15.0623L9.73649 16.6045L9.63965 16.7408L8.3022 15.7896L7.78005 16.5236L11.9979 19.5227L12.5197 18.7886L11.2966 17.9189C11.1649 17.7214 11.0328 17.5241 10.9009 17.3267L13.1231 17.9404L13.6603 17.1847L10.4823 16.3924L9.36976 14.288L8.81922 15.0623ZM10.2632 13.1879L14.0083 16.7593L15.5941 15.0967L14.9753 14.5069L14.0113 15.5179L13.0389 14.5905L13.8818 13.7069L13.263 13.1168L12.4205 14.0007L11.5031 13.126L12.4672 12.1149L11.8488 11.5253L10.2632 13.1879ZM12.7795 8.94554C12.7699 8.93814 12.7606 8.93062 12.7517 8.923L12.2986 9.2793C12.3233 9.30452 12.3497 9.32923 12.3779 9.35343C12.4252 9.39413 12.478 9.43365 12.5362 9.47183L12.5364 9.4721C12.5934 9.50982 12.6533 9.54208 12.7162 9.56884C12.7792 9.59564 12.8452 9.61699 12.9145 9.63289C12.9832 9.64889 13.0534 9.65738 13.1248 9.65836C13.1973 9.65937 13.2718 9.65282 13.3482 9.63877C13.4226 9.62517 13.4979 9.59954 13.5743 9.56199L13.5743 9.56188C13.652 9.52364 13.7312 9.47285 13.8116 9.40966C13.886 9.3512 13.949 9.29031 14.0007 9.22694C14.052 9.1641 14.0926 9.0985 14.1226 9.03013C14.1533 8.96005 14.1765 8.89007 14.192 8.82021C14.2076 8.75029 14.2158 8.68009 14.2167 8.60966C14.2175 8.53832 14.2125 8.46849 14.2018 8.4002C14.1912 8.33271 14.1746 8.26606 14.1523 8.20026C14.1299 8.13449 14.1049 8.07252 14.0772 8.01445C14.0615 7.98138 14.045 7.94988 14.0278 7.91999L13.5662 8.28258C13.5713 8.29165 13.5763 8.30096 13.5812 8.3105C13.5962 8.33956 13.6103 8.37002 13.6235 8.40185V8.40212C13.6375 8.43597 13.6484 8.47076 13.6563 8.50639C13.6643 8.54227 13.6691 8.5785 13.6708 8.61497C13.6726 8.65206 13.671 8.6885 13.6662 8.72429C13.6614 8.76036 13.6533 8.79547 13.6422 8.82969C13.6299 8.86707 13.6122 8.90176 13.589 8.93378C13.5666 8.96472 13.5387 8.99339 13.5054 9.01975V9.02002C13.4761 9.04297 13.4439 9.06129 13.4087 9.07495C13.3746 9.08821 13.3378 9.09677 13.2986 9.10062C13.2615 9.10435 13.2247 9.10506 13.1881 9.10269C13.1511 9.1003 13.1141 9.09483 13.0768 9.08626C13.0396 9.07786 13.0038 9.06693 12.9694 9.05345C12.9346 9.03984 12.9008 9.02349 12.8679 9.00441L12.868 9.00429C12.8355 8.98557 12.806 8.96593 12.7795 8.94554ZM16.7554 14.0283L15.6804 11.339L15.7935 11.2508L17.5104 13.4349L18.2182 12.8785L15.0199 8.81008L14.2987 9.37693L15.4032 12.0913L15.2904 12.1804L13.5494 9.96596L12.8539 10.5128L16.0522 14.5812L16.7554 14.0283ZM19.3334 9.64301L20.3946 11.4894L21.1755 11.0404L18.5959 6.55375L17.815 7.00271L18.8652 8.82909L18.17 9.22861L17.1203 7.40223L16.3392 7.85121L18.919 12.3379L19.6997 11.8889L18.6039 9.98319L19.2991 9.58341L19.3334 9.64301ZM20.0803 5.78625L21.978 10.6007L23.1074 10.1558C23.2012 10.1188 23.2887 10.0761 23.3698 10.0277C23.4511 9.97929 23.5264 9.925 23.5958 9.86493C23.6637 9.80597 23.7234 9.7408 23.7749 9.66961C23.8263 9.59851 23.8693 9.52159 23.9038 9.43897C23.9378 9.35666 23.9622 9.26748 23.977 9.17153C23.992 9.07431 23.9971 8.97131 23.9922 8.86272C23.987 8.75359 23.9698 8.63725 23.9405 8.51406C23.911 8.39011 23.8695 8.26022 23.8162 8.12473C23.7188 7.87786 23.6081 7.67127 23.4839 7.50474C23.3617 7.34084 23.2268 7.21624 23.0791 7.13073C22.9344 7.04709 22.7689 7.0064 22.5828 7.00881C22.393 7.01127 22.181 7.05855 21.9472 7.15069L21.6346 7.27431L20.9179 5.45598L20.0803 5.78625ZM22.9505 9.24708C22.8951 9.30341 22.8262 9.34782 22.744 9.38028H22.7438L22.5023 9.47531L21.9478 8.06905L22.1757 7.9791H22.176C22.2092 7.9662 22.2423 7.95501 22.2753 7.94566C22.3078 7.93642 22.3417 7.92861 22.3768 7.92231C22.4149 7.91543 22.453 7.91384 22.4911 7.91752C22.5291 7.9212 22.567 7.93008 22.6049 7.94413C22.6435 7.95854 22.6811 7.97977 22.7177 8.00768C22.7523 8.0342 22.7868 8.06748 22.8208 8.10743L22.8209 8.10732C22.8545 8.14674 22.8872 8.19541 22.9189 8.25342C22.9498 8.30973 22.9795 8.37437 23.0081 8.44741C23.0551 8.56644 23.0843 8.67461 23.0957 8.77181V8.77209C23.1077 8.87336 23.1004 8.96366 23.074 9.04292V9.04318C23.0475 9.12251 23.0062 9.19049 22.9505 9.24708ZM23.0203 4.62728L24.9182 9.44172L25.7558 9.11167L23.8581 4.29721L23.0203 4.62728ZM26.424 2.46248C26.419 2.45162 26.4144 2.44071 26.4102 2.42975L25.8427 2.53103C25.8526 2.5648 25.8642 2.59903 25.8777 2.63372C25.9003 2.69181 25.9283 2.75152 25.9619 2.81274L25.9621 2.81328C25.9946 2.87323 26.0323 2.92978 26.0753 2.98297C26.1184 3.03637 26.1667 3.08638 26.2202 3.13303L26.2203 3.13287C26.2734 3.17915 26.3314 3.21962 26.3943 3.2542C26.4575 3.28899 26.5261 3.31815 26.6 3.3416V3.34186C26.6719 3.36477 26.7506 3.37757 26.8359 3.38034C26.922 3.3831 27.0157 3.37541 27.1168 3.35735C27.2099 3.34071 27.2943 3.31655 27.37 3.28484C27.445 3.25341 27.5116 3.21472 27.5698 3.16881C27.6293 3.12174 27.6826 3.07077 27.7297 3.01588C27.7765 2.96132 27.8168 2.90328 27.8505 2.84176C27.8848 2.77897 27.9133 2.71499 27.9359 2.64984C27.9583 2.58515 27.9751 2.51862 27.9863 2.45029C27.9976 2.38107 28.0047 2.3146 28.0075 2.25105C28.0092 2.21449 28.0094 2.1789 28.0083 2.14429L27.4301 2.24747C27.4302 2.25783 27.4302 2.26848 27.4301 2.27942C27.4297 2.31214 27.4278 2.34562 27.4243 2.37962C27.4208 2.41679 27.4141 2.45273 27.4046 2.48746C27.395 2.52226 27.3823 2.55628 27.3666 2.58952V2.58979C27.3508 2.62296 27.3323 2.65441 27.311 2.68406C27.2897 2.71367 27.2661 2.74097 27.2402 2.76592L27.2399 2.76619C27.2118 2.79297 27.1799 2.81513 27.1442 2.83257C27.1093 2.84964 27.0712 2.86191 27.0299 2.86934C26.9928 2.87602 26.9559 2.87712 26.9194 2.87278C26.8827 2.86842 26.8461 2.85874 26.8097 2.84389L26.8095 2.84363C26.7754 2.82965 26.7425 2.81282 26.7109 2.79322C26.6792 2.77354 26.649 2.75128 26.6205 2.72654C26.5919 2.70166 26.5654 2.67512 26.5411 2.64687C26.5167 2.61837 26.4945 2.58819 26.4746 2.55633C26.455 2.5248 26.438 2.49346 26.424 2.46248ZM27.5434 8.81789L27.8592 5.9388L28.0003 5.91393L28.4886 8.649L29.3749 8.49082L28.465 3.39648L27.5621 3.5577L27.2607 6.47216L27.1193 6.49846L26.6241 3.72508L25.7531 3.88063L26.6627 8.97497L27.5434 8.81789ZM33.8239 3.23486L33.0575 4.85688L32.8901 4.85275L32.9317 3.21189L32.0314 3.18924L31.9002 8.36302L32.8007 8.38566L32.8387 6.88486L33.1091 6.22643L33.8411 8.41226L34.7679 8.43548L33.6499 5.35735L34.7738 3.25879L33.8239 3.23486ZM37.946 9.03549L38.8559 3.94121L36.5419 3.52806L36.0269 6.41341L36.0267 6.41367C36.0051 6.53377 35.9853 6.63917 35.9673 6.72966C35.9485 6.82401 35.9294 6.91436 35.91 7.00067C35.8908 7.08552 35.868 7.16414 35.8417 7.23644C35.8148 7.31013 35.7845 7.37723 35.7507 7.43765C35.7162 7.49901 35.6757 7.55636 35.6292 7.60956C35.5833 7.66199 35.5316 7.71014 35.474 7.7539V7.75417C35.4172 7.79717 35.3504 7.83758 35.2736 7.87537C35.2149 7.90424 35.1506 7.93135 35.081 7.95665L35.2578 8.66994C35.3689 8.65027 35.4718 8.626 35.5663 8.59713C35.6759 8.56365 35.7747 8.52353 35.8627 8.47681H35.863C35.9498 8.43105 36.029 8.37665 36.1006 8.31373C36.1723 8.2508 36.2369 8.17899 36.2943 8.09847C36.3521 8.01719 36.4048 7.92504 36.4526 7.82198C36.5006 7.71828 36.5434 7.6035 36.5811 7.4776C36.6193 7.34964 36.6559 7.20936 36.6908 7.05681C36.7263 6.90184 36.7599 6.73557 36.7917 6.55801L36.7915 6.55797L37.1577 4.50575L37.8346 4.62664L37.0752 8.87997L37.946 9.03549ZM42.2143 4.99886L40.8648 7.22605L40.7232 7.17769L41.0507 4.61335L40.2282 4.33506L39.999 8.3818L39.9895 8.39681C39.9782 8.41462 39.9659 8.43285 39.953 8.45138C39.9386 8.47199 39.9264 8.48878 39.9157 8.50295L39.9156 8.50285C39.9014 8.52173 39.8897 8.537 39.8808 8.54818C39.8705 8.56107 39.86 8.57368 39.849 8.58616L39.8468 8.58859C39.7989 8.6378 39.7525 8.6794 39.7077 8.71331C39.6611 8.74855 39.6156 8.77607 39.5709 8.79584L39.5708 8.79562C39.5214 8.81753 39.4646 8.82691 39.4006 8.82374C39.3407 8.82076 39.274 8.80686 39.2005 8.78208L39.1569 8.76733L38.9296 9.43947L39.1606 9.5177C39.2242 9.53654 39.2868 9.55223 39.3484 9.56474C39.4104 9.57734 39.4724 9.58695 39.5343 9.59351C39.5927 9.59962 39.6522 9.59921 39.7127 9.59218C39.7727 9.5852 39.8337 9.57156 39.8955 9.55115C39.9567 9.53103 40.0186 9.5011 40.0813 9.46131C40.1455 9.42056 40.2102 9.36974 40.2755 9.30883C40.3422 9.24667 40.4113 9.17026 40.4827 9.07968C40.5547 8.98849 40.6301 8.88158 40.709 8.75903L42.9894 5.26124L42.2143 4.99886ZM44.1996 5.81226L41.8401 10.4185L42.9202 10.9718C43.0095 11.0176 43.0995 11.055 43.1901 11.0842C43.2801 11.1132 43.3705 11.1339 43.4613 11.1462C43.5512 11.1584 43.6397 11.1602 43.7269 11.1518C43.8138 11.1433 43.8998 11.1246 43.9849 11.0959C44.0699 11.0668 44.1529 11.0263 44.2338 10.9746C44.316 10.9222 44.3967 10.8578 44.4759 10.7817C44.5546 10.7054 44.6304 10.6157 44.7031 10.5128C44.7769 10.4083 44.8471 10.2913 44.9133 10.1619C45.0342 9.92585 45.1161 9.70625 45.1591 9.50301C45.2014 9.30319 45.2058 9.11942 45.1724 8.95164L45.1726 8.95159C45.1396 8.78779 45.0607 8.63682 44.936 8.49884C44.8085 8.3577 44.633 8.2298 44.4096 8.11529L44.1102 7.9621L44.6119 6.984L45.8553 7.62084L46.2449 6.85995L44.1996 5.81226ZM43.4988 10.2539C43.4205 10.2495 43.3418 10.2271 43.2628 10.1867L43.0315 10.0682L43.7206 8.723L43.9381 8.83434C43.9704 8.85085 44.0007 8.86827 44.0291 8.88651C44.0586 8.90549 44.087 8.92586 44.1142 8.94754L44.1141 8.94767C44.1446 8.97179 44.171 8.99938 44.1935 9.03053C44.2161 9.06181 44.2345 9.0961 44.2488 9.13348C44.2633 9.17158 44.2723 9.21375 44.2755 9.25986V9.26014C44.2786 9.30409 44.2764 9.35183 44.2691 9.40323V9.4035C44.2617 9.45441 44.2467 9.51079 44.2242 9.57271C44.2026 9.63214 44.1737 9.69735 44.1372 9.76843C44.0787 9.88279 44.0168 9.97625 43.9516 10.0488C43.8834 10.1248 43.8107 10.1791 43.7336 10.2116C43.6563 10.2442 43.578 10.2583 43.4988 10.2539ZM50.7118 10.0059C50.6164 9.86198 50.4806 9.72071 50.3044 9.58216C50.1268 9.44245 49.9539 9.34521 49.786 9.29048C49.6209 9.23665 49.4603 9.22376 49.3043 9.25177V9.25204C49.1454 9.28041 48.9955 9.34094 48.8547 9.43352C48.7122 9.52719 48.5778 9.65428 48.4516 9.8147L46.8053 11.9091C46.6713 12.0795 46.5752 12.2442 46.517 12.4031C46.4599 12.5589 46.4393 12.7093 46.4551 12.8543C46.4706 12.9985 46.5264 13.1418 46.6224 13.2842C46.7207 13.4299 46.8611 13.5745 47.0433 13.7178C47.207 13.8464 47.3694 13.9353 47.5306 13.9844C47.6894 14.0327 47.8483 14.0427 48.0072 14.0143C48.1678 13.9856 48.3197 13.9251 48.4628 13.8328C48.593 13.7488 48.7164 13.6384 48.8331 13.5017L48.2066 12.8578C48.1619 12.9065 48.1178 12.9477 48.0743 12.9815C48.0118 13.0299 47.9499 13.0636 47.8885 13.0824H47.8882C47.8248 13.1017 47.765 13.1071 47.7082 13.0981C47.6496 13.0889 47.5959 13.0651 47.5466 13.0264C47.4879 12.9802 47.445 12.9339 47.418 12.8874C47.387 12.8341 47.3763 12.7808 47.3857 12.7274C47.3931 12.6852 47.4051 12.6453 47.4215 12.6076C47.4383 12.5693 47.4594 12.534 47.4848 12.5017L49.1595 10.3713C49.1718 10.3556 49.1868 10.339 49.2042 10.3215C49.221 10.3048 49.2394 10.2881 49.2593 10.2715C49.2807 10.2535 49.3036 10.2375 49.328 10.2232C49.3525 10.2088 49.3771 10.1968 49.4015 10.1871L49.404 10.1863C49.4313 10.1766 49.4597 10.1699 49.4889 10.1665C49.5168 10.1632 49.5459 10.1629 49.5763 10.1656C49.6094 10.168 49.6432 10.1768 49.6772 10.1921C49.7095 10.2066 49.7418 10.2265 49.7735 10.2515C49.8252 10.2922 49.8617 10.3419 49.8832 10.401C49.9039 10.4579 49.91 10.522 49.9015 10.5933L49.9013 10.5941C49.8926 10.6612 49.8734 10.7289 49.8435 10.7971C49.8238 10.8422 49.7994 10.8874 49.7704 10.9326L50.5528 11.3526C50.5559 11.349 50.5589 11.3455 50.5618 11.3418L50.5619 11.3419C50.5998 11.2939 50.559 11.3453 50.584 11.3134L50.6062 11.2852C50.7126 11.1499 50.7883 11.0113 50.8331 10.8695C50.8776 10.7287 50.8918 10.5844 50.8758 10.4366C50.8599 10.2905 50.8052 10.1468 50.7118 10.0059ZM49.1773 15.6244L51.7525 14.2977L51.85 14.4022L49.8399 16.3192L50.4614 16.9707L54.2067 13.3993L53.5734 12.7351L50.9765 14.0935L50.8771 13.9899L52.9157 12.0457L52.3048 11.4054L48.5598 14.9769L49.1773 15.6244ZM55.1885 14.6966L50.9708 17.6955L51.6739 18.6847C51.7324 18.7668 51.795 18.8416 51.8618 18.9091C51.928 18.976 51.9987 19.0359 52.0737 19.0886C52.1476 19.1408 52.225 19.1832 52.3057 19.2158C52.3868 19.2485 52.4722 19.2717 52.5616 19.2855C52.6509 19.2989 52.7436 19.3012 52.8394 19.2927C52.9359 19.284 53.0368 19.2642 53.1417 19.2331C53.2474 19.2016 53.3561 19.157 53.4678 19.0994C53.5807 19.0411 53.6968 18.9696 53.8158 18.8848C54.0325 18.7309 54.2065 18.5738 54.3382 18.4135C54.4678 18.2557 54.5563 18.0948 54.6039 17.9308C54.6502 17.7702 54.6498 17.5997 54.6027 17.4196C54.5547 17.2358 54.4579 17.0416 54.3125 16.8371L54.1179 16.5629L55.0139 15.9257L55.8235 17.0643L56.5198 16.5691L55.1885 14.6966ZM52.5184 18.3143C52.4507 18.2742 52.3912 18.218 52.3397 18.1457L52.1893 17.9342L53.421 17.0581L53.5629 17.2575C53.5838 17.287 53.6028 17.3165 53.6196 17.346C53.6361 17.3746 53.6517 17.4056 53.6666 17.439C53.6825 17.4747 53.6935 17.5113 53.699 17.5491C53.7046 17.5868 53.7051 17.6257 53.7004 17.6659C53.6958 17.7062 53.6842 17.7478 53.6657 17.7903C53.6477 17.8318 53.6238 17.8734 53.594 17.9149H53.5938C53.5634 17.9572 53.5242 18.0004 53.4762 18.0445C53.4294 18.0875 53.3736 18.132 53.3088 18.1781C53.2044 18.2523 53.1063 18.3066 53.0147 18.3411C52.9187 18.3773 52.8292 18.392 52.7465 18.3853C52.6629 18.3786 52.5869 18.3549 52.5184 18.3143ZM53.1674 21.1915L56.0123 20.6518L56.0791 20.7785L53.6052 22.046L54.0156 22.8476L58.6218 20.4877L58.2037 19.6713L55.3277 20.2354L55.2624 20.1076L57.7691 18.8232L57.3656 18.0354L52.7594 20.395L53.1674 21.1915ZM59.6581 23.4585C59.6389 23.3614 59.612 23.2614 59.5772 23.1588L59.1957 22.031L54.2936 23.6894L54.5822 24.5423L56.426 23.9185L56.5261 24.2152C56.6836 24.6804 56.9316 24.9695 57.27 25.0822C57.4415 25.1392 57.6326 25.1611 57.8432 25.148C58.0559 25.1347 58.2883 25.0855 58.5403 25.0002H58.5405C58.6866 24.9509 58.8179 24.8972 58.9343 24.8394C59.0494 24.7823 59.1495 24.7212 59.2346 24.6562C59.3199 24.5913 59.3925 24.5237 59.4523 24.4534C59.5116 24.3837 59.5591 24.3109 59.5947 24.2349V24.2347C59.6306 24.1586 59.6566 24.0793 59.6728 23.9969C59.6892 23.9139 59.6957 23.8282 59.6924 23.7398C59.6888 23.6499 59.6774 23.556 59.6581 23.4585ZM57.3008 23.6225L58.6747 23.1577C58.6885 23.1982 58.7581 23.3921 58.7581 23.4039C58.7861 23.4866 58.7985 23.5661 58.7951 23.6422C58.7918 23.7197 58.7723 23.7929 58.7365 23.8618L58.7367 23.8619C58.7008 23.9321 58.6424 23.995 58.5616 24.0506C58.4848 24.1034 58.3877 24.1497 58.2703 24.1895H58.27C58.195 24.2147 58.1252 24.2342 58.061 24.2476C57.9955 24.2613 57.935 24.2688 57.8796 24.2698C57.8236 24.2712 57.7726 24.2679 57.7265 24.2601C57.6782 24.2519 57.6348 24.2388 57.5961 24.2209C57.5566 24.2032 57.5215 24.1816 57.4906 24.1563H57.4903C57.4595 24.1311 57.4329 24.1018 57.4102 24.0686L57.4101 24.0687C57.3901 24.0396 57.372 24.0088 57.3557 23.9761C57.3393 23.9433 57.3254 23.91 57.314 23.8764C57.314 23.8653 57.2486 23.6823 57.2358 23.6446L57.3008 23.6225ZM60.3354 25.9171L55.2409 26.8269L55.4542 28.0217L55.4539 28.0217C55.4716 28.12 55.4962 28.2141 55.5279 28.3041C55.5594 28.3935 55.5977 28.4781 55.6428 28.5575V28.5577C55.6868 28.6356 55.7387 28.7067 55.7982 28.7712C55.8581 28.8361 55.9253 28.8936 55.9994 28.9439C56.0737 28.9935 56.1565 29.0351 56.2475 29.0685C56.3396 29.1023 56.4394 29.1276 56.5465 29.1442L56.5466 29.1439C56.6559 29.1607 56.7733 29.1669 56.8984 29.1626C57.0244 29.1583 57.1601 29.1431 57.305 29.1173C57.5668 29.0705 57.7913 29.0028 57.9787 28.9141C58.1634 28.8267 58.3122 28.7191 58.4252 28.5913L58.4251 28.5912C58.5356 28.4657 58.6081 28.3116 58.6424 28.1289C58.6775 27.9423 58.673 27.7253 58.629 27.478L58.5697 27.1467L60.4936 26.8033L60.3354 25.9171ZM56.3754 28.047C56.3314 27.9819 56.3016 27.9058 56.286 27.8186L56.2402 27.5627L57.7288 27.2967C57.7395 27.3567 57.7719 27.4918 57.7719 27.538C57.778 27.5726 57.7824 27.6073 57.7851 27.6424C57.7877 27.6759 57.7886 27.7105 57.7877 27.7464C57.787 27.7851 57.781 27.8228 57.7699 27.8596C57.7588 27.8961 57.7427 27.9315 57.7215 27.9655C57.6999 28.0005 57.6716 28.0332 57.637 28.0636C57.6036 28.0928 57.5642 28.12 57.5189 28.1452C57.4733 28.1706 57.4193 28.193 57.3569 28.2124C57.2957 28.2315 57.2262 28.248 57.1484 28.2618C57.0225 28.2843 56.9107 28.2915 56.813 28.2835C56.7112 28.2752 56.6239 28.2501 56.5512 28.2083C56.4784 28.1664 56.4198 28.1126 56.3754 28.047Z" fill="#F9F9F9"/>
<path fill-rule="evenodd" clip-rule="evenodd" d="M48.1991 22.6522L48.1985 24.7545L45.1946 26.4886L48.1988 27.4893V31.3284L40.9757 28.9246L35.6488 32.0002L40.976 35.0757L48.1991 32.672V36.5111L45.1949 37.5118L48.1988 39.2459L48.1994 41.3482L46.3784 42.3989L43.3745 40.6645L44.01 43.7666L40.6855 45.6863L39.1556 38.2287L33.8284 35.1532V41.3043L39.5217 46.3581L36.1971 48.2775L33.8284 46.1761V49.6446L32.008 50.6962L30.1877 49.6446V46.1761L27.819 48.2775L24.4944 46.3581L30.1877 41.3043V35.1529L24.8602 38.2287L23.3303 45.6863L20.0057 43.7666L20.6413 40.6645L17.6374 42.3989L15.8164 41.3482L15.817 39.2459L18.8209 37.5118L15.8167 36.5111V32.672L23.0398 35.0757L28.367 32.0002L23.0401 28.9246L15.817 31.3284V27.4893L18.8212 26.4886L15.8173 24.7545L15.8167 22.6522L17.6377 21.6015L20.6416 23.3359L20.0061 20.2338L23.3307 18.3141L24.8605 25.7716L30.1877 28.8472V22.6961L24.4944 17.6423L27.819 15.7229L30.1877 17.8243V14.3558L32.0081 13.3042L33.8284 14.3558V17.8243L36.1971 15.7229L39.5217 17.6423L33.8284 22.6961V28.8472L39.1553 25.7716L40.6852 18.3141L44.0098 20.2338L43.3742 23.3359L46.3781 21.6015L48.1991 22.6522Z" fill="#002A59"/>
</g>
<defs>
<clipPath id="clip0_1_8781">
<rect width="64" height="64" fill="white"/>
</clipPath>
</defs>
</svg>
