<svg id="Слой_1" data-name="Слой 1" xmlns="http://www.w3.org/2000/svg" viewBox="0 0 360 355"><defs><style>.cls-1{fill:#dd0333;}.cls-1,.cls-2{fill-rule:evenodd;}.cls-2{fill:#fff;}</style></defs><path class="cls-1" d="M311.91,249.32H296.37V206.83h15.54V170.19H291.28V296.9H243.44l.5-132.43,0-.5c2.8-28.08,17.83-36.66,44.48-36.66h71.3L360,296.9H311.91Z"/><path class="cls-1" d="M317.34,243.9H301.79V212.25h15.55V164.76H285.86V291.48h-37l.47-126.72,0-.26c2.51-25.2,15.23-31.77,39.08-31.77h65.88l.22,158.75H317.34Z"/><path class="cls-2" d="M317.34,243.9H301.79V212.25h15.55V164.76H285.86V291.48h-37l.47-126.72,0-.26c2.51-25.2,15.23-31.77,39.08-31.77h65.88l.22,158.75H317.34Z"/><path class="cls-1" d="M349.14,286.06l-.21-147.91H288.46c-21.88,0-31.53,5.25-33.68,26.89l-.45,121h26.1V159.34h42.33v58.34H307.22v20.79h15.54v47.59Z"/><path class="cls-1" d="M.2,222.26c0-3.44.08-6.87.08-10.31s0-6.86-.08-10.3H0V164.48c0-20.33,12.9-37,34.21-37H80.93c21.82,0,35.26,15.12,35.52,36.43v32.37H68.31V170.4H48.26v83.36H68.31V222.84h48.14v37c0,21.35-13.73,36.66-35.52,36.66H34.21c-21,0-34-16.34-34.21-36.46V222.26Z"/><path class="cls-1" d="M5.55,227.68c.07-5.24.15-10.48.15-15.73s-.08-10.48-.15-15.72H5.43V164.48c0-17.32,10.5-31.62,28.78-31.62H80.94c18.82,0,29.86,12.73,30.08,31.07v26.86H73.74V165H42.83v94.2H73.74V228.26H111v31.55c0,18.35-11.32,31.24-30.09,31.24H34.21c-18,0-28.57-13.95-28.78-31.11V227.68Z"/><path class="cls-2" d="M5.55,227.68c.07-5.24.15-10.48.15-15.73s-.08-10.48-.15-15.72H5.43V164.48c0-17.32,10.5-31.62,28.78-31.62H80.94c18.82,0,29.86,12.73,30.08,31.07v26.86H73.74V165H42.83v94.2H73.74V228.26H111v31.55c0,18.35-11.32,31.24-30.09,31.24H34.21c-18,0-28.57-13.95-28.78-31.11V227.68Z"/><path class="cls-1" d="M105.6,259.81V233.68H79.16v30.93H37.41v-105H79.16v25.82H105.6V164c-.18-15.34-8.8-25.71-24.66-25.71H34.22c-15.28,0-23.37,11.92-23.37,26.2V190.8h.05c.08,7.08.2,14.11.22,21.15S11,226,10.9,233.11h-.05v26.77C11,274,19.14,285.63,34.22,285.63H80.94c15.87,0,24.66-10.58,24.66-25.82"/><path class="cls-1" d="M226.93,265.26c.72.77,1.41,1.59,2.1,2.48,6.6,8.59,8.4,19.45,8.4,30V355H190.38V297.77c0-2.46.17-5,0-7.47a9,9,0,0,0-.52-2.46c-.49-1.13-3.78-1.34-4.68-1.39l-10.22-.61L175,246l8.79-1.69c1.2-.23,5.59-1.19,6.46-2.19a5.09,5.09,0,0,0,.17-1.45V185.07h47.05V241.4c0,9.78-4.16,17.72-10.5,23.86M122.28,185.07h47V355h-47Z"/><path class="cls-2" d="M218.63,265.13a29.27,29.27,0,0,1,6.1,5.92c5.82,7.56,7.28,17.42,7.28,26.72v51.81h-36.2V297.77c0-9.14,1.38-16-10.36-16.73l-5.11-.31,0-30.27,4.38-.85c2.9-.56,7.4-1.59,9.47-3.88a7.32,7.32,0,0,0,1.57-5.08V190.49H232V241.4c0,10.36-5.63,18.2-13.38,23.73M127.7,190.49h36.19V349.58H127.7Z"/><path class="cls-1" d="M201.23,297.77c0-8.21,1.77-21.12-15.46-22.15l0-20.68c8.81-1.7,15.43-4.82,15.43-14.29V195.92h25.34V241.4c0,13.07-11.25,20.22-18.44,23.53,8.2,4.87,18.44,9.31,18.44,32.84v46.38H201.23ZM133.12,195.92h25.35V344.15H133.12Z"/><polygon class="cls-1" points="201.44 69.78 274.79 69.64 215.36 112.63 238.16 182.33 178.91 139.12 119.66 182.33 142.45 112.63 83.03 69.64 156.38 69.78 178.91 0 201.44 69.78"/><polygon class="cls-2" points="198.55 73.76 262.47 73.64 210.68 111.11 230.56 171.85 178.91 134.19 127.26 171.85 147.13 111.11 95.34 73.64 159.27 73.76 178.91 12.94 198.55 73.76"/><polygon class="cls-1" points="178.91 25.89 195.66 77.75 250.16 77.64 206.01 109.59 222.94 161.39 178.91 129.27 134.87 161.39 151.81 109.59 107.66 77.64 162.16 77.75 178.91 25.89"/></svg>