<?xml version="1.0" encoding="utf-8"?>
<!DOCTYPE svg PUBLIC "-//W3C//DTD SVG 1.1//EN" "http://www.w3.org/Graphics/SVG/1.1/DTD/svg11.dtd">
<svg version="1.1" id="BB" xmlns="http://www.w3.org/2000/svg" xmlns:xlink="http://www.w3.org/1999/xlink" x="0px" y="0px"
	 width="192.859px" height="227.187px" viewBox="53.567 43.747 192.859 227.187"
	 enable-background="new 53.567 43.747 192.859 227.187" xml:space="preserve">
<g>
	<g>
		<path fill="#154734" d="M190.205,74.802c-11.498-12.496-25.09-23.026-40.209-31.055c-15.119,8.028-28.711,18.559-40.209,31.055
			C92.31,67.711,73.29,63.855,53.567,63.886v141.303c27.139,27.993,59.887,50.505,96.429,65.745
			c36.543-15.24,69.291-37.752,96.43-65.745V63.878C226.703,63.855,207.684,67.711,190.205,74.802z"/>
		<path fill="#C1C6C8" d="M214.29,136.17v-35.688c-10.788,3.069-21.068,7.658-30.503,13.584c-2.623-1.126-5.314-2.125-8.066-2.994
			l-3.545,5.367c-4.271-1.55-8.746-2.653-13.365-3.273l1.301-5.428c-3.312-0.393-6.69-0.597-10.107-0.597
			c-3.425,0-6.796,0.212-10.107,0.597l1.3,5.428c-4.619,0.62-9.094,1.724-13.365,3.273l-3.545-5.367
			c-2.744,0.869-5.443,1.867-8.066,2.994c-9.434-5.927-19.715-10.516-30.502-13.584v35.688c2.495-2.835,5.186-5.503,8.036-7.983
			v-13.789l10.145,17.561c-8.263,8.497-14.454,19.488-17.712,32.355l10.342,5.972l-2.578-9.616l18.823,10.871l16.298-16.291h-10.394
			l-4.067-11.158h-10.243c1.875-2.986,3.946-5.745,6.191-8.27l33.655,19.428h-10.289v10.289l16.071,5.844l16.072-5.844V155.25
			h-10.289l33.654-19.428c2.254,2.525,4.324,5.284,6.191,8.27h-10.242l-4.067,11.158h-10.395l16.298,16.291l18.824-10.871
			l-2.578,9.616l10.342-5.972c-3.259-12.867-9.449-23.858-17.713-32.355l10.146-17.561v13.789
			C209.104,130.667,211.795,133.335,214.29,136.17z M107.179,149.293l4.482,12.33l-12.11-6.992L107.179,149.293z M128.572,134.114
			l-8.844-6.554c3.538-2.548,7.34-4.634,11.347-6.214l5.995,9.086C134.106,131.354,131.271,132.586,128.572,134.114z
			 M150.004,150.004l-6.66-10.084c2.169-0.416,4.385-0.627,6.66-0.627s4.498,0.211,6.66,0.627L150.004,150.004z M155.076,128.784
			c-1.67-0.196-3.356-0.302-5.072-0.302c-1.716,0-3.402,0.106-5.073,0.302l-2.502-10.447c2.479-0.363,5.004-0.575,7.575-0.575
			s5.096,0.212,7.574,0.575L155.076,128.784z M171.428,134.114c-2.699-1.527-5.541-2.759-8.497-3.682l5.995-9.086
			c4.006,1.58,7.809,3.666,11.346,6.214L171.428,134.114z M200.449,154.631l-12.111,6.992l4.482-12.33L200.449,154.631z"/>
		<path fill="#FFFFFF" d="M93.746,114.398v13.789c-2.85,2.479-5.541,5.148-8.036,7.983v-35.688L93.746,114.398z M111.662,161.623
			h11.03l6.38-6.373h-10.394l-4.067-11.158l-7.431,5.201L111.662,161.623z M133.925,165.539l10.289-10.289h-10.289V165.539z
			 M214.29,100.481v35.688c-2.495-2.835-5.187-5.503-8.036-7.983v-13.789L214.29,100.481z M192.82,149.293l-7.43-5.201
			l-4.068,11.158h-10.394l6.38,6.373h11.029L192.82,149.293z M166.075,155.25h-10.288l10.288,10.289V155.25z"/>
		<path fill="#C8102E" d="M187.303,87.774c-10.439-12.647-23.064-23.427-37.299-31.75c-14.235,8.323-26.867,19.103-37.299,31.75
			C97.662,80.706,81.28,76.291,64.294,74.983v125.798c16.888,16.888,35.93,31.621,56.689,43.747v-12.503
			c-16.616-10.221-32.022-22.211-45.97-35.712V87.093c14.938,2.525,29.203,7.673,42.182,15.066
			c10.243-3.704,21.288-5.723,32.816-5.723c11.528,0,22.573,2.019,32.816,5.723c12.979-7.394,27.245-12.542,42.183-15.066v109.22
			c-13.947,13.501-29.354,25.491-45.97,35.712v12.503c20.751-12.126,39.801-26.852,56.688-43.747V74.983
			C218.72,76.291,202.346,80.706,187.303,87.774z"/>
		<g>
			<polygon fill="#FFFFFF" points="149.996,259.277 149.996,259.277 150.004,259.277 150.004,259.277"/>
		</g>
		<g>
			<polygon fill="#FFFFFF" points="141.159,178.654 128.263,171.201 122.374,177.082 131.453,182.328 120.287,185.322 
				123.046,192.904 144.273,187.212 			"/>
			<path fill="#FFFFFF" d="M97.828,175.17l2.615,9.759l-14.733-8.512v15.285c11.022,10.304,22.943,19.655,35.651,27.895
				l-14.212-39.045L97.828,175.17z"/>
			<polygon fill="#FFFFFF" points="125.806,200.479 131.68,216.618 136.427,203.57 163.573,203.57 168.32,216.618 174.194,200.479 
				150.004,194"/>
			<polygon fill="#FFFFFF" points="168.547,182.328 177.627,177.082 171.745,171.201 158.841,178.654 155.727,187.212 
				176.953,192.904 179.713,185.322"/>
			<polygon fill="#FFFFFF" points="150.004,259.277 150.004,259.277 150.004,259.277"/>
			<path fill="#FFFFFF" d="M199.557,184.929l2.615-9.759l-9.32,5.382l-14.213,39.045c12.708-8.239,24.629-17.591,35.651-27.895
				v-15.285L199.557,184.929z"/>
			<path fill="#FFFFFF" d="M137.327,241.496l-5.647-15.534v24.508c5.979,3.152,12.095,6.093,18.316,8.808
				c6.222-2.715,12.345-5.647,18.316-8.808v-24.508l-5.646,15.534H137.327z"/>
		</g>
	</g>
	<circle fill="none" cx="150.004" cy="150.004" r="150.004"/>
</g>
</svg>
