<svg width="538" height="540" viewBox="0 0 538 540" fill="none" xmlns="http://www.w3.org/2000/svg">
<g clip-path="url(#clip0_1354_7671)">
<path d="M269.065 51.8627L301.24 131.467L303.846 137.895L310.776 138.375L396.214 144.23L330.385 199.473L325.081 203.924L326.762 210.647L347.591 293.761L274.738 248.27L268.843 244.576L262.966 248.27L190.354 293.669L211.127 210.352L212.809 203.629L207.486 199.177L141.86 144.156L227.575 138.172L234.487 137.692L237.093 131.246L269.065 51.8258M269.065 22.2742L226.799 127.108L113.658 135.013L200.519 207.581L172.982 317.568L268.862 257.523L364.963 317.587L337.444 207.914L424.305 135.05L311.442 127.312L268.935 22.2188L269.065 22.2742Z" fill="white"/>
<path d="M210.517 390.598H190.354C145.87 390.598 145.87 423.678 145.87 441.445V489.171C145.87 506.939 145.87 540 190.354 540H210.535C249.955 540 255.019 512.831 255.019 489.171V471.865H208.392V493.438H192.646V437.179H208.392V457.736H255.038V441.427C255.038 417.749 249.974 390.58 210.554 390.58L210.517 390.598ZM269.028 0C258.198 26.8735 231.807 92.3487 220.977 119.185L92.5158 128.162C114.73 146.761 168.972 192.085 191.093 210.555C184.126 238.481 166.976 307.207 159.934 335.466L268.861 267.257L378.121 335.484C371.08 307.392 353.874 238.832 346.851 210.851L445.54 128.106L317.282 119.296L269.028 0ZM410.112 390.598H357.663L337.333 428.018V390.598H290.466V540H337.26V498.111L359.658 540H413.253L371.006 462.427L410.056 390.617L410.112 390.598ZM475.442 366.311L479.138 337.849L482.834 366.311H475.442ZM513.938 279.854H444.024L420.147 429.274H466.571L469.177 412.891H488.97L491.576 429.274H538L513.938 279.854ZM106.136 279.854H59.3425V382.693H46.8123V279.872H0V429.292H77.3245V449.258H122.917V382.767H106.136V279.872V279.854Z" fill="#18285F"/>
<path d="M148.623 441.428C148.623 423.438 148.623 393.406 190.335 393.406H210.516C247.275 393.406 252.228 417.713 252.228 441.428V454.948H211.163V434.409H189.891V496.209H211.163V474.673H252.228V489.209C252.228 512.98 247.275 537.23 210.516 537.23H190.353C148.642 537.23 148.642 507.143 148.642 489.209L148.623 441.428ZM343.746 209.928L438.498 130.508L315.359 122.067C306.506 100.088 277.99 29.5524 269.027 7.38867L222.954 121.901L99.5564 130.453L194.216 209.614C191.148 221.896 167.382 317.145 164.277 329.557L268.861 264.118L373.759 329.612L343.746 209.928ZM408.651 537.23L367.9 462.409L405.454 393.406H359.251C343.616 422.108 343.783 421.794 334.431 438.934V393.406H293.219V537.267H334.505V487.067L361.34 537.23H408.651ZM466.811 410.122C466.238 413.816 464.796 422.866 464.205 426.504H423.399L446.389 282.588H511.572L534.747 426.467H493.941C493.368 422.773 491.908 413.705 491.335 410.085L466.811 410.122ZM472.355 369.082H485.938C484.811 360.327 483.647 351.258 480.006 322.907H478.269C474.961 348.211 473.538 359.348 472.299 369.082H472.355ZM44.0395 282.588H2.77148V426.467H80.0959V446.433H120.126V385.483H103.363V282.588H62.1139V385.427H44.0395V282.588Z" fill="#1E4286"/>
<path d="M246.684 480.213V489.799C246.684 517.965 240.29 531.725 210.314 531.725H190.539C160.563 531.725 154.168 517.965 154.168 489.799V440.836C154.168 412.688 160.563 398.909 190.539 398.909H210.314C240.29 398.909 246.684 412.688 246.684 440.836V449.424H216.708V440.041C216.708 432.857 216.911 428.867 208.521 428.867H192.535C184.145 428.867 184.329 432.857 184.329 440.041V490.556C184.329 497.759 184.145 501.749 192.535 501.749H208.521C216.911 501.749 216.708 497.759 216.708 490.556V480.213H246.684ZM507.155 288.128H450.936L429.96 420.925H459.326L461.914 404.543H496.085L498.691 420.925H528.057L507.155 288.128ZM465.98 374.585L474.98 317.328H482.982L492.223 374.585H465.98ZM361.617 462.371L399.374 531.651H364.611L335.43 477.59H328.962V531.688H298.782V398.946H328.962V447.466H336.262L362.615 398.946H396.177L361.617 462.371ZM269.065 51.8627L303.846 137.895L396.251 144.23L325.081 203.869C327.502 213.51 325.081 203.758 347.59 293.613L268.843 244.447L190.354 293.669C193.348 281.663 210.351 213.455 212.809 203.629L141.86 144.156L234.487 137.692C238.793 127.035 263.188 66.4169 269.065 51.8627ZM269.065 22.3111L226.799 127.108L113.658 135.013L200.519 207.581L172.982 317.568L268.861 257.523L364.962 317.587L337.444 207.914L424.305 135.05L311.442 127.312L268.935 22.2188L269.065 22.3111ZM114.582 391.023V440.891H85.6409V420.962H8.31641V288.128H38.4959V390.967H67.6589V288.128H97.8198V390.967L114.582 391.023Z" fill="white"/>
<path d="M239.292 489.171V487.602H224.101V490.594C223.897 507.216 219.905 509.174 208.318 509.174H192.738C181.151 509.174 177.14 507.179 176.937 490.594V440.042C177.14 423.419 181.151 421.48 192.738 421.48H208.318C219.905 421.48 223.897 423.475 224.101 440.042V442.037H239.292V441.427C239.292 418.654 236.686 406.335 210.517 406.335H190.354C164.185 406.335 161.579 418.709 161.579 441.427V489.153C161.579 511.908 164.185 524.246 190.354 524.246H210.536C236.686 524.319 239.292 511.926 239.292 489.171ZM519.316 413.575L500.835 295.516H457.405L438.813 413.538H453.006L455.593 397.155H502.554L505.159 413.538L519.316 413.575ZM489.377 309.941L500.151 381.973H457.996L468.789 309.941H489.377ZM386.992 524.301L353.227 462.612L383.795 406.335H367.014L340.642 454.855H321.569V406.335H306.193V524.338H321.569V470.203H340.05L369.213 524.301H386.992ZM347.591 293.669L268.843 244.503L190.354 293.669L212.809 203.629L141.86 144.157L234.487 137.692L269.065 51.8633L303.846 137.895L396.251 144.23L325.081 203.869C327.945 215.265 342.25 272.355 347.591 293.669ZM107.19 433.559V398.467H90.4276V295.516H75.0514V398.356H31.0852V295.516H15.709V413.519H93.0334V433.504L107.19 433.559Z" fill="#ED1C24"/>
</g>
<defs>
<clipPath id="clip0_1354_7671">
<rect width="538" height="540" fill="white"/>
</clipPath>
</defs>
</svg>
