<svg version="1.2" xmlns="http://www.w3.org/2000/svg" viewBox="0 0 550 850" width="550" height="850">
	<title>Torpedo-Logo-RGB-ai</title>
	<style>
		.s0 { fill: #c1c6c8 } 
		.s1 { fill: #002855 } 
		.s2 { fill: #e4002b } 
		.s3 { fill: #ffffff } 
	</style>
	<g id="Слой 1">
		<g id="&lt;Group&gt;">
			<path id="&lt;Compound Path&gt;" class="s0" d="m543.4 78.7l-21.7-18c-7.1 23.8-15.9 45.2-28.2 62-6-12.9-14.4-25.6-25-37.6-1.7-21-5.8-42-12.9-62.3l-21.9-10.2c-0.3 12.5-2.1 25.5-5.2 37.6-19.5-13.8-41.6-24-66.1-31l-22 15.7c46.7 22.7 93 82.1 93.9 145.1-11.1 7.8-23.2 15.3-36.3 22.6-5.3-45.3-25.5-97.6-54.3-121.3l-17.8 10.7c7.3 17.6 12.3 35.8 14 54.6l-28.6-5.2c0.4 27.1 7.2 52.9 23.4 77.1q-2.4 8.3-5.6 15.7c-11.7 4.5-24 8.9-36.6 13-18-26.8-23.3-78.8-16-124l-22.7-4.2c-26.7 37.6-37.8 82.7-40.3 138.5-7.2 0-14.3-0.5-21.1-1.5-14.1-41.1-17.9-93.9-12-131.9l-22.6-4.4c-21.3 29.9-32.7 69.9-38 116.2-12.7-8.9-24.4-20.2-34.9-33.8 4.9-63 48.3-131.2 98.7-165l-16.8-15.2c-22.8 6.7-42 16.9-59.3 29.2-1.5-11.4-2-25.8-0.7-38.5l-27.8 15.5c-5.8 17.1-13.6 48.3-15.8 67.6-6.1 8-11.9 16.7-17.3 25.9-4.8-15.3-8.1-38.4-8.6-59.7l-21.7 20.9c-20.9 67.3-4.1 150.7 37.4 197-8.5 62.6 6.4 113 36.4 144.9-14 24.2-25.7 51.7-35.7 81.9l28.1 86.4h35.8c2.2 109 60.5 192.2 148.4 244.4 35.3-136.5 107.7-224.6 198.4-290.7l-41.2-126.1c28.1-54.5 39.3-115.5 39-167.8 44.3-38.5 81.2-95.2 81.2-174.1z"/>
			<path id="&lt;Path&gt;" class="s1" d="m533.3 84.5l-6.5-5.5c-7 24.2-19.6 46.2-37 66.2-4.9-19.3-16.2-38.4-32.1-55.5-1.1-18.7-5.4-43.1-10.2-58.5l-5.5-2.6c-0.1 8.5-2.3 25.7-6.5 40.5-20.3-16.2-44.5-29.5-70.4-38.3l-5.3 3.8c47.5 26.9 89.4 95.3 85.3 151.2-17 12.4-36.1 23.9-56.8 34.4-1.2-42.4-20.6-102.1-45.4-125.5l-3.7 2.2c8.8 20.7 14.3 52.5 12.6 84.5-10.9-9.1-17.7-18.2-21.7-25.4l-7.8-1.4c2.5 20.5 11.1 44.7 24.4 61.9-2.3 9.2-5.3 18.1-9.3 26.3-15.7 6.2-32.1 12-49 17.3-24.3-28.5-29.3-84.9-24.1-128l-5.4-1c-25.9 38.1-34.1 92-34.6 137.2-14 0.8-27.5-0.1-40.3-2.6-11.7-33.6-20.9-81.5-15.6-132.7l-5.4-1c-21.7 33.4-31 79.7-33.7 122.6-22.6-12-41.1-29.4-55.7-49.1 4.5-67.2 47.3-134.7 94.2-167.8l-4.9-4.4c-23.6 8.8-45 21.8-64.2 39.4-2.6-15.8-3-33.6-2.1-42l-8.9 5.1c-5.9 19.9-11.8 44.7-13.9 64.1-11.2 14.4-21.4 30.9-30.5 49.7-9.6-25.2-14.1-49.2-14-66.3l-5.8 6.7c-11.1 54.4-22 174.7 110.7 229.4-1.8 3.2-3.7 6.7-5.2 9.7-24.3-8.9-46.6-22.3-66.8-40.8-6 50.2 7.3 103.5 40.1 135-16.2 25.7-28.1 51.8-37.8 83.2l24.7 76.3h38.4c0.1 104.8 50 186.6 132.4 238.4 31.9-120.5 100.1-208.5 192.5-278.1l-40.5-123.8c28.4-55.9 39.1-107.3 39.3-156.1-23.1 17-48.2 31.8-75.7 44l-3.5-10.7c127-59.4 158.6-141.5 161.2-212z"/>
			<path id="&lt;Compound Path&gt;" fill-rule="evenodd" class="s2" d="m396.3 437.1l32.3 98.7c-78.2 61.4-146.2 144.3-179.7 252.1-63.9-45.9-98.1-117.6-100.7-205.1h28.9c28.6-44.7 73.5-77 120.6-87.3 16.5-26.3 26.1-50.9 12-78.1-2.6 24.3-11 44.7-26.8 60-48.8 15-86.3 43.5-118.3 84.9h-60.4l-10.1-31 24.7 7.5 33.9-13-6.3-19.3h-60.3c13.2-40.1 33.1-76.8 59-107.1h-20.4c6.6-25.3 17.8-55.4 29.6-73.7 6.7 1.6 13.3 2.9 19.7 3.9l28.1-35.1 12.1 37.9c36.9 0.7 82.8-9.9 111.8-20.3l-12.8 39.5c39-11.1 79.7-27 114.3-48.7-3 34.6-18.3 78.5-32.7 102.4h-57.7zm-114.2-67.8c-26.4 20.4-60.5 30.1-104.3 30.1l17.1 17-18.4 32.7 33.6-24.2c38.5 0 61.6-25.5 72-55.6zm107.5-16.9c-16 9.5-32.7 16.7-54.4 24l-1.8 5h44.2c4.4-7.4 9.8-19.5 12-29zm-309.3-26.1c11.7 8.5 27.5 15.9 41.4 20.4-6.2 12.7-12.5 31-15.9 52.7-17.4-16-26.6-46.9-25.5-73.1z"/>
			<path id="&lt;Path&gt;" class="s3" d="m246.4 628.7c3.5-16.6 9.3-31.9 17-45.9h-115.3c0.4 15.6 2 30.7 4.5 44.9l19.5-7.9c6.2 41.4 23 79.1 49.9 113.2-8.9-37.6-11-75.3-6.3-113.2z"/>
			<path id="&lt;Path&gt;" class="s3" d="m94.1 531.3l10.1 31h60.4c9.9-12.8 18.9-22.7 30-33.3l-13.6-41.9h-40.9l-9.1-28-37.9 28c-2.8 7-4.6 12.1-7 19.4h60.3l6.3 19.3-33.9 13z"/>
			<path id="&lt;Path&gt;" class="s3" d="m124.7 399.4h20.4l-15.9-15.8c-1.5 5-3.2 10.4-4.5 15.8z"/>
			<path id="&lt;Path&gt;" class="s3" d="m215.9 385.3l-3.7-11.3-34.3 25.4c43.7 0 77.8-9.7 104.3-30.1z"/>
			<path id="&lt;Path&gt;" class="s3" d="m478.4 181.3c-3.7-36.1-17-64.7-40.1-85.3 13.9 25.5 29.3 56.3 25.8 98.7-25.2 21.7-56.7 41.2-90.9 57 2-23.5 0.5-48.7-4.9-70.8-0.7 25.9-5.8 56.2-17 80.3-26 10.5-53 18.8-79.7 24.6-15-19.5-19.8-50.5-24-79.7-4.7 27-4.8 69.6 6.5 101.2 100.3-17.3 214.9-72.4 244.6-149.6-5.9 8.1-12.7 16-20.3 23.6z"/>
			<path id="&lt;Path&gt;" class="s3" d="m168.7 283.6c-10.2-23.8-15.4-55-16.3-84.8-3 13.4-7.5 52.5-3.6 83.8-42.2-14.4-71.1-38.6-91.1-68 2-49.7 16.7-77.2 26.7-102.9-16.4 17-31.7 48-38.6 82.8-5.9-11.4-10.8-23.4-14.8-35.7 2.5 56 30.5 114.2 119.1 145.1 6.5-7.6 13.4-15.1 18.6-20.3z"/>
		</g>
	</g>
</svg>