<svg width="71" height="72" viewBox="0 0 71 72" fill="none" xmlns="http://www.w3.org/2000/svg">
<path fill-rule="evenodd" clip-rule="evenodd" d="M70.9364 45.5927C68.373 34.7646 59.799 23.9163 52.2061 21.9434L45.5703 2.14288C45.2639 1.19151 44.363 0.531944 43.3589 0.531944H20.9183C19.6741 0.531944 18.6639 1.54792 18.6639 2.79666V7.21348C18.6639 9.02173 19.6741 9.64887 20.9183 9.64887H22.7912C23.3668 9.64887 24.3694 9.6637 24.8098 10.3939C25.2454 11.1155 25.0954 11.99 24.5844 13.0912L7.39137 49.5591H3.99329C1.79191 49.574 0 51.3614 0 53.5464C0 55.2307 1.07505 56.6856 2.59148 57.2657C2.50752 57.5806 2.46203 57.9104 2.46203 58.252C2.46203 60.3722 4.21548 62.1038 6.39172 62.151C6.34321 62.3984 6.31833 62.6515 6.31833 62.9076C6.31833 65.0663 8.09516 66.8361 10.295 66.8479H11.629C11.5774 67.0982 11.5493 67.3601 11.5493 67.6253C11.5493 69.8101 13.3457 71.5859 15.5544 71.5859H56.7013L57.5464 71.5714L57.6495 71.5626C62.57 71.0707 65.8698 66.0971 65.858 59.1883C65.8534 56.438 65.253 53.5288 64.0072 51.1907C66.2438 50.8458 69.106 49.5976 70.3032 48.0311C71.0334 47.071 71.0749 46.1786 70.9364 45.5927Z" fill="white"/>
<path fill-rule="evenodd" clip-rule="evenodd" d="M47.2672 22.9674C48.5627 22.8734 49.9763 23.0205 51.2379 23.3327C50.7241 23.3621 50.2236 23.4357 49.7378 23.5624C48.8895 23.2857 48.0635 23.0853 47.2672 22.9674ZM18.5468 46.5697C18.3276 46.7904 18.1082 47.0056 17.8903 47.2205C18.0021 47.9095 18.1185 48.5984 18.2261 49.2849C18.4573 49.117 18.681 48.9403 18.9092 48.7636C18.7868 48.0331 18.6632 47.3027 18.5468 46.5697ZM33.7199 38.9341L32.8173 33.5156C32.2019 34.0341 31.5364 34.6052 30.8311 35.2057L31.6364 40.0237C32.3223 39.6436 33.0161 39.2754 33.7199 38.9341ZM28.9846 41.602L28.2969 37.4322C27.7803 37.8914 27.2427 38.3688 26.7068 38.8574C26.9187 40.1295 27.1251 41.3986 27.337 42.6737C27.8816 42.3088 28.4311 41.9496 28.9846 41.602ZM24.987 44.2847C24.8003 43.1656 24.616 42.0554 24.429 40.9424C24.005 41.3368 23.5825 41.7317 23.1511 42.129C23.3203 43.1656 23.4912 44.1964 23.6649 45.224C24.1005 44.9058 24.5424 44.5938 24.987 44.2847ZM21.4505 46.8523C21.3032 45.9544 21.1561 45.0621 21.0086 44.1698C20.7172 44.4465 20.4227 44.7235 20.1371 45.0121C20.2756 45.8511 20.4124 46.6874 20.5554 47.5209C20.8497 47.2942 21.1486 47.0702 21.4505 46.8523ZM37.4095 40.5329C42.3788 38.3331 44.4048 40.2768 45.2234 43.0829C41.5526 44.7793 36.198 47.5769 33.1543 49.9208C29.204 49.9269 26.5361 49.9296 22.5826 49.9387C26.9041 47.026 32.442 42.7326 37.4095 40.5329ZM36.9206 37.3792C36.529 34.9704 36.1301 32.5617 35.7337 30.1557C27.8258 35.9831 21.0264 43.1805 13.8633 49.8768C21.2562 42.1642 29.1497 32.6557 38.7993 26.3394C40.0143 27.4818 41.3156 28.5066 42.6747 29.4931C41.3835 31.6367 40.4263 34.2988 40.1144 36.5899C39.125 36.7254 38.0618 36.9845 36.9206 37.3792ZM38.8126 51.0547C46.681 44.6557 57.5414 40.4945 67.8098 45.0679C67.6212 44.3847 67.4063 43.6809 67.1618 42.9799C65.6468 42.5149 64.0728 42.0851 62.5446 41.8375C62.1927 40.5329 61.8642 39.255 61.4314 37.9857C62.9098 37.6853 64.2996 36.7902 64.5645 35.2472C67.7949 40.683 68.8964 45.963 68.9049 46.0014C69.1525 47.2675 65.5305 49.0285 63.1908 49.2022C65.5508 48.3835 68.652 46.7052 67.7949 46.0014C57.0113 41.5195 48.3154 45.2298 38.8126 51.0547ZM60.5584 29.9702C61.7433 31.3336 62.9154 32.6793 63.908 34.193C64.5203 35.8183 62.5061 37.0964 61.2107 37.3437C60.2211 34.57 58.949 31.7694 57.2953 29.3225C58.3937 29.3577 59.5527 29.511 60.5584 29.9702ZM53.9309 24.3368C52.9725 24.0425 52.0022 23.9424 51.0054 24.0277C53.4687 25.114 55.2048 26.4276 56.8315 28.6596C57.7487 28.6126 58.7514 28.7245 59.6437 28.9424C57.9817 27.1372 56.1381 25.4471 53.9309 24.3368ZM39.3839 25.9623C40.5266 27.0283 41.7487 27.9941 43.0266 28.9309C44.402 26.822 46.2482 24.8903 48.6203 23.9306C47.1672 23.5506 45.6472 23.3975 44.1574 23.6212C42.4816 24.1807 40.8785 25.023 39.3839 25.9623ZM49.3271 42.4646C49.4181 39.9704 49.826 37.4586 50.7168 35.1175C53.8897 37.1258 57.5884 38.4276 60.757 38.086C61.1398 39.3051 61.5271 40.4945 61.829 41.7317C57.9491 41.2073 54.1549 41.5487 50.4446 42.6385C50.0469 42.7295 49.6581 42.768 49.3271 42.4646ZM48.6836 41.799C48.8367 39.3111 49.3298 36.8551 50.1588 34.7523C47.8501 33.3155 45.5472 31.6721 43.2151 29.8935C42.0224 31.8961 41.1185 34.3697 40.8033 36.5133C44.7906 36.1895 47.4185 38.0681 48.5451 41.8551C48.5906 41.8375 48.6394 41.8199 48.6836 41.799ZM43.5715 29.3225C45.0261 27.0872 47.0948 24.9966 49.7302 24.2692C52.3793 25.1643 54.3391 26.4688 56.0586 28.7451C53.5735 29.2076 51.674 31.2863 50.4237 34.1221C47.8958 32.5557 45.7329 30.9947 43.5715 29.3225ZM60.5242 37.4322C59.52 34.6346 58.214 31.79 56.5063 29.3577C54.0503 29.6462 52.1908 31.6664 50.9732 34.4873C54.0179 36.4368 57.5205 37.6971 60.5242 37.4322Z" fill="#00256D"/>
<path fill-rule="evenodd" clip-rule="evenodd" d="M49.3786 69.5117C46.9699 68.0275 44.5169 65.0092 44.1974 57.8858C43.7131 53.7339 41.344 51.625 34.6904 51.625L4.00614 51.631C2.94014 51.6368 2.07422 52.4909 2.07422 53.5453C2.07422 54.5935 2.94014 55.4474 4.00614 55.4592H33.2328C33.8702 55.4592 33.8702 56.4193 33.2328 56.4193H6.48426C5.4165 56.4193 4.53625 57.2498 4.53625 58.251C4.53625 59.2582 5.40469 60.0768 6.46792 60.0796L35.6518 60.0768C36.2865 60.0768 36.2865 61.0307 35.6518 61.0307L10.2961 61.0365C9.2449 61.0544 8.39079 61.8906 8.39079 62.9063C8.39079 63.9284 9.23308 64.7676 10.2961 64.7737L37.7117 64.7676C38.3476 64.7676 38.3476 65.7333 37.7117 65.7333H15.5554C14.4892 65.7482 13.625 66.5874 13.625 67.624C13.625 68.6579 14.504 69.5117 15.5554 69.5117H49.3786Z" fill="#00256D"/>
<path fill-rule="evenodd" clip-rule="evenodd" d="M20.8664 41.1205L32.7749 15.9045C33.5936 14.0758 35.4958 14.2556 35.9978 16.0191L38.6863 25.3569C42.3571 23.0633 45.7703 21.6525 50.1667 22.3859L43.5998 2.78571C43.5704 2.68818 43.4628 2.609 43.3585 2.609H20.918C20.8164 2.609 20.7352 2.69421 20.7352 2.79752V7.39406C20.7352 7.49435 20.8164 7.57655 20.918 7.57655H22.7908C26.6793 7.57655 28.0502 10.542 26.4601 13.9756L9.54688 49.8516H12.5046C15.3627 46.9921 18.0145 43.9326 20.8664 41.1205Z" fill="#C8102E"/>
<path fill-rule="evenodd" clip-rule="evenodd" d="M52.483 48.5814C53.8273 49.0205 55.0096 50.0981 55.9065 51.5999C57.0416 53.514 57.7497 56.1465 57.7497 59.0383C57.7497 61.9301 57.0416 64.5598 55.9065 66.4709C55.0054 67.9788 53.8273 69.0563 52.4803 69.4922H57.4453C66.1367 68.6295 65.6596 49.3709 57.4453 48.5814H52.483ZM54.889 51.8327C56.0111 53.6555 56.7073 56.2055 56.7073 59.0235C56.7073 61.768 56.0462 64.2534 54.9775 66.0705C54.247 67.3132 52.897 68.9236 51.226 68.9236C49.6754 68.9236 48.2281 67.8521 47.1472 66.1205C46.0046 64.3065 45.3008 61.8004 45.3008 59.0235C45.3008 56.2525 46.0046 53.7437 47.1472 51.9297C48.2281 50.1984 49.6754 49.1294 51.226 49.1294C52.8364 49.1294 54.1515 50.634 54.889 51.8327Z" fill="black"/>
</svg>
