<svg width="130" height="130" viewBox="0 0 130 130" fill="none" xmlns="http://www.w3.org/2000/svg">
<path d="M101.796 32.1846L97.304 26.9583C98.0114 23.5495 95.6811 21.0241 93.7743 18.958L93.1069 18.2287C87.542 12.1232 82.5292 12.9671 76.783 14.1696C66.0638 10.5141 58.7336 11.1136 50.2745 16.3945C44.7316 14.0805 35.0545 11.5908 34.6223 11.479L32.6288 11L32.3276 12.9984C32.3105 13.1146 32.2599 13.3441 32.1921 13.6656C31.0361 19.1834 29.9538 26.5535 32.8323 30.1451C29.2824 35.6655 23.0472 44.8215 22.9794 44.9209L21.4805 47.1232L37.4772 50.624L39.7733 52.6948L33.5714 54.3287L51.0066 62.5347C51.9868 63.3576 53.4917 64.6859 55.2773 66.2624C60.4172 70.8001 67.4562 77.0145 71.6028 79.7706L71.9283 79.9433C73.8093 80.7112 76.0939 81.1613 78.4071 81.1613C81.4369 81.1613 84.5155 80.388 86.7986 78.5386C88.7874 76.9266 89.423 73.7346 89.3569 71.2857C89.3204 69.9714 89.0988 69.129 88.8422 68.5823C88.9055 66.5329 88.5641 63.4313 87.509 61.7799L86.0808 59.5406L84.9578 61.0153C84.3642 56.1744 85.6669 53.0754 87.8822 50.2869C88.244 50.2898 88.7198 50.3154 89.2113 50.3635C89.123 51.8804 89.0038 53.9482 88.9661 54.5031L88.7457 57.7336L91.6642 56.228C96.6757 53.6417 100.834 48.6598 102.516 43.2268C103.761 39.2047 103.506 35.2833 101.796 32.1845L101.796 32.1846Z" fill="#FEFEFE"/>
<path d="M100.177 33.0484L95.2616 27.3979C96.502 24.1351 93.8797 21.8245 91.7332 19.4384C86.917 14.1516 83.0033 14.7174 76.6621 16.0486C66.5575 12.5143 59.3459 12.6176 50.4448 18.451C45.2332 16.0711 34.1593 13.2334 34.1593 13.2334C34.0263 14.2805 30.681 27.0642 35.2043 29.8424C31.8433 35.173 24.5156 45.9285 24.5156 45.9285L38.3621 48.9604L43.4982 53.5906L38.8674 54.8105L52.0215 61.0003C55.5412 63.9249 67.0381 74.548 72.6387 78.2688C76.732 79.939 82.3874 79.7649 85.6263 77.1409C87.9581 75.2501 87.7783 69.6552 86.9701 69.0694C87.1198 67.2754 86.8241 64.114 85.9479 62.7434C85.9479 62.7434 84.8556 64.1777 84.0289 65.5808C81.7719 57.5222 83.3015 52.8365 86.9475 48.5406C87.7754 48.3741 89.9015 48.5462 91.1473 48.8274C91.1155 49.4033 90.8663 53.7745 90.809 54.6235C98.7461 50.5273 104.014 40.0059 100.176 33.0485L100.177 33.0484Z" fill="#1E3659"/>
<path d="M53.1857 37.4391L69.1887 36.3673L70.1464 34.7829L63.4798 34.223H63.4802L70.9815 33.4004L72.2389 31.3191C65.5249 30.3854 64.3844 24.4184 64.3844 24.4184L76.884 27.5144L79.5791 30.0569L79.6959 30.0207L83.236 27.5937L90.9489 31.0642L83.6959 29.4733L82.9717 30.9931L87.0101 32.6322L87.0727 32.6523L87.0995 32.6362L87.0999 32.6371H87.1008L91.3844 34.0138L91.5392 34.0638L94.0971 34.8862L97.9602 33.7302L98.0476 33.786L94.076 29.5102L93.7255 29.1334L91.6199 30.5364L92.3813 28.894L93.036 27.4817L93.818 25.4294C93.4925 24.9328 93.1389 24.405 92.7554 23.8652L90.0829 27.6221L91.643 22.3901C89.4617 19.6827 86.5219 17.147 82.6918 17.2827C81.0618 17.3402 77.8211 17.9609 76.5294 18.2254C73.251 16.9908 68.201 15.7285 64.2341 15.9845C60.0132 16.2574 55.8899 17.5869 52.3895 19.5056C51.7267 19.8682 51.0871 20.2517 50.4724 20.6538C49.7533 20.3522 49.0321 20.072 48.3166 19.8097C42.2835 17.6002 36.6947 16.7427 36.6947 16.7427C36.6947 16.7427 35.6974 21.4611 36.7138 25.4135L37.2318 26.2745L38.648 26.2219L44.75 25.9933L45.3245 25.9725L46.8587 32.8882L45.463 33.5485L44.8146 33.8554L42.737 34.8393L42.5407 34.9326L38.1082 37.0321L40.5683 33.6902L41.2322 32.7875L38.2546 30.7057L37.0899 30.1655L36.68 31.1374L34.1719 37.0855V37.0859L37.2887 41.481C41.9472 41.481 48.0086 34.223 54.9932 40.641L67.2053 39.6507L68.1992 38.0064L53.186 37.4391H53.1856H53.1857Z" fill="#1FA0C9"/>
<path d="M82.7468 26.017L89.3942 28.3877L82.4669 24.3154L79.418 27.5467L82.7468 26.017Z" fill="#1E3659"/>
<path d="M79.3817 23.6582L74.1367 25.0822L75.4361 19.6641L79.3817 23.6582Z" fill="#1E3659"/>
<path d="M80.2505 19.8003L80.2416 21.9584L78.582 20.9364L78.9368 19.5791L80.2505 19.8003Z" fill="#1E3659"/>
<path d="M71.375 21.9148L70.2332 22.6076L66.543 20.3445L67.8107 18.4863L71.375 21.9148Z" fill="#1E3659"/>
<path d="M82.0039 22.1431L83.5111 21.4014L85.0566 24.1291L82.0039 22.1431Z" fill="#1E3659"/>
<path d="M61.1888 18.6573C60.6104 19.6062 57.7356 20.5156 58.284 23.5256L61.9584 22.8781L65.6329 22.231C65.0845 19.2213 62.066 19.3497 61.1888 18.6572V18.6573Z" fill="#1E3659"/>
<path d="M55.8047 23.7427L54.4267 25.3352L52.4688 22.315L54.6142 21.79L55.8047 23.7427Z" fill="#1E3659"/>
<path d="M63.9727 27.2217L64.4128 29.4078L62.2422 29.076L62.3778 27.5539L63.9727 27.2217Z" fill="#1E3659"/>
<path d="M81.8861 65.8874C81.823 65.7479 81.7645 65.61 81.708 65.4739C81.5256 65.0294 81.3758 64.6002 81.2483 64.1839C80.6453 62.2021 80.5618 60.5115 79.9297 58.7969C79.9145 58.7569 79.9003 58.7172 79.8853 58.6769C79.0808 56.5819 77.7649 56.1351 76.0886 55.9386C75.6699 55.8899 75.2679 55.8469 74.8579 55.8242C75.3553 56.4326 75.9126 57.3078 76.1823 58.4042C75.751 57.8546 74.5374 56.8165 73.012 55.8966C71.9393 56.045 70.6537 56.4046 68.8824 57.145C68.7949 57.1811 68.7066 57.2174 68.6172 57.2561C68.7247 57.2839 68.8284 57.3115 68.9304 57.3388C71.4652 58.0211 72.3703 58.6781 72.7739 61.3057C72.817 61.5882 72.8739 61.8656 72.942 62.1369C73.191 63.1342 73.5961 64.0406 74.081 64.7601C74.457 65.3177 74.8817 65.7629 75.321 66.0482L75.744 65.5026L76.8652 64.0542L78.7553 61.614C78.8793 62.3815 79.4581 64.8209 79.6138 66.9504C79.6201 67.0361 79.6343 67.1135 79.6423 67.1864C79.9543 67.2291 80.2661 67.2641 80.5719 67.2893C81.2175 67.3427 81.8323 67.3508 82.3561 67.2911C82.4352 67.2818 82.5143 67.2723 82.5892 67.26C82.3148 66.7847 82.0838 66.3289 81.8862 65.8874H81.8861Z" fill="#B09570"/>
<path d="M74.3877 28.2794L73.3681 28.0068C72.9079 28.8926 72.0218 29.3659 71.4492 29.5883C72.5063 29.8682 73.5197 29.5611 74.3877 28.2795V28.2794Z" fill="#FEFEFE"/>
<path d="M70.4183 29.1464C70.7229 28.7582 71.0759 28.1765 71.2421 27.4395L67.3555 26.4014C68.3235 27.5155 69.3762 28.5475 70.4183 29.1464V29.1464Z" fill="#FEFEFE"/>
<path d="M96.2104 46.2847C96.2104 46.2847 95.523 45.5444 94.8733 45.3675L94.3964 45.6632L94.0278 45.8913C93.9952 45.7535 93.886 45.284 93.8178 44.9889C93.1439 44.599 92.1519 44.2799 91.2173 44.0968V44.1075V44.0964C90.0191 43.8436 87.7378 43.8449 86.0199 43.9707C85.7456 43.9945 85.5058 44.0241 85.3172 44.0594L84.9875 44.6288V44.6291L84.7812 44.9864C84.6988 44.872 84.4863 44.5784 84.2813 44.2954C83.4208 44.3665 82.2648 44.5256 82.2648 44.5256L81.4648 45.6077C81.4648 45.6077 81.4935 46.6086 81.5335 47.9982H81.5327C81.5716 49.3692 81.6301 51.538 81.667 53.1264C81.8832 52.7557 82.0844 52.3993 82.2711 52.0527C82.9602 50.7776 83.4604 49.6486 83.8605 48.5423C83.9147 48.392 83.968 48.2415 84.0186 48.0922C84.1565 47.6885 84.2822 47.2853 84.4005 46.8767L84.4014 46.8757C84.4808 46.6041 84.5562 46.3291 84.6306 46.0494C84.6471 46.0889 85.3567 47.6528 85.3567 47.6528C85.3567 47.6528 86.1695 46.7797 86.3792 46.3658C88.1601 45.9994 90.5217 46.1539 92.4311 46.8022C92.4311 46.8022 92.4355 47.4275 92.4406 47.9421L92.4419 47.9414C92.4425 48.0498 92.4436 48.1588 92.4449 48.2582C92.536 48.1754 92.6339 48.0868 92.9101 47.8094C93.1571 47.5534 93.3963 47.2787 93.6088 47.0041V47.005C93.6088 47.005 93.5418 47.2944 93.4319 47.7728C93.2773 48.4462 92.8093 50.5025 92.531 51.7564C93.5363 50.9346 94.422 49.8305 95.0859 48.8762C95.5825 48.1639 96.198 47.1054 96.2155 47.0753C96.2967 46.9294 96.3397 46.846 96.3397 46.846L96.2105 46.2847L96.2104 46.2847Z" fill="#FEFEFE"/>
<path d="M98.9321 38.8648C98.8945 38.865 97.9402 38.8906 97.7273 38.8958C97.8276 38.8309 98.7159 38.2588 98.871 38.1594C98.8196 37.7184 98.7459 37.3016 98.6506 36.9194L98.5506 36.8691H98.5497L97.5525 36.3682L93.8055 38.6806L92.3086 42.4293C93.2969 42.8449 95.1576 43.7131 96.8319 44.9776L97.7817 43.3031L96.7369 42.3291L98.1631 42.6327C98.2556 42.4692 98.6748 41.73 98.8066 41.4992C98.7635 41.4759 97.075 40.5423 96.9223 40.4577L98.8603 40.0798V40.0794L98.9497 40.0622C98.9614 39.6555 98.9551 39.2543 98.9321 38.8647V38.8648Z" fill="#FEFEFE"/>
<path d="M79.9467 45.4331C79.7142 45.2053 75.7649 47.2053 75.8129 47.3922L77.2253 47.833L78.1399 48.118L78.2123 47.8708H78.2126L78.4219 47.1592L80.4447 47.7334L80.4509 45.8462L79.9468 45.4331H79.9467Z" fill="#FEFEFE"/>
<path d="M71.9766 65.748C72.3059 66.2268 73.1845 67.3947 73.7259 67.9425C74.1802 67.3912 74.8998 66.5381 74.8998 66.5381C74.9135 66.5356 73.543 66.7511 73.3815 66.7763L71.9766 65.7481V65.748Z" fill="#FEFEFE"/>
<path d="M83.6547 68.5749C82.2507 68.8277 78.8052 68.7811 77.9445 68.2869C78.0185 67.8537 78.05 67.3998 78.0554 66.9358C78.0574 66.7721 78.0563 66.6076 78.0515 66.4415C78.0452 65.8856 77.965 65.3296 77.888 64.5156C77.1606 65.6148 75.9246 67.1281 74.9062 68.9196C75.3 70.0396 80.7508 71.3536 83.7345 70.4032H83.7351C84.4595 70.2384 85.0611 69.9799 85.2432 69.7345C85.2512 69.7074 85.2629 69.6563 85.2793 69.5869V69.5863C85.5067 68.4934 85.7708 66.6828 85.5268 65.2111C85.3173 65.6082 84.9366 66.3787 84.5977 67.0738V67.0745C84.4655 67.346 84.0245 68.2586 83.9299 68.4789C83.8956 68.5135 83.7981 68.5451 83.6546 68.5748L83.6547 68.5749Z" fill="#FEFEFE"/>
<path d="M59.7256 29.7319C59.1484 29.5681 58.7329 28.4208 56.7721 27.8618C56.7641 27.8595 56.7553 27.8573 56.7464 27.8548C56.7386 27.8523 56.7301 27.8494 56.7215 27.8469C54.7602 27.2905 53.785 28.0422 53.2086 27.8779C53.049 27.8322 52.2747 27.5967 52.2747 27.5967L52.5863 28.2454C52.5863 28.2454 51.9358 30.4527 51.9023 30.5692L55.5965 31.6682L55.6215 31.6749L55.6467 31.6822L59.3667 32.6936C59.401 32.5766 60.0511 30.3692 60.0511 30.3692L60.6682 29.9844C60.6682 29.9844 59.8854 29.7778 59.7256 29.732V29.7319Z" fill="#1E3659"/>
<path d="M86.8747 34.6337L83.5094 34.7657L87.0744 32.6511C87.0132 32.6437 83.0665 31.0231 82.974 30.9912L81.459 31.1013L81.469 31.1079L76.9152 31.4268C76.8566 31.4829 75.5748 32.7653 75.4259 32.9124C73.9243 33.0754 65.1274 34.0405 63.4859 34.2206C68.6396 34.1799 79.7637 34.085 79.7637 34.085L80.5328 35.1468C80.5328 35.1468 75.1621 35.0659 73.2971 35.0412C73.0415 35.2972 72.3232 36.0141 72.3232 36.0141L53.1904 37.4366L84.5013 36.8754L82.9813 38.2842L70.2535 38.0821L68.8136 39.5191L57.3007 40.4552H57.3011L78.1325 40.2048L76.9326 41.4276L67.3769 40.9543L66.2005 42.1501C68.1023 44.0761 68.1324 46.5102 68.1324 46.5102C60.7175 45.2018 57.8822 50.4562 48.0117 50.2495C48.0117 50.2495 53.973 53.3421 54.4847 53.5581L54.6132 53.7515C53.9593 54.129 51.9596 55.2813 51.3964 55.6114C52.5548 55.9715 54.9851 56.7317 56.1711 57.1028C55.5416 57.3363 54.3224 57.7894 53.6501 58.0397C54.9483 58.6506 57.8918 60.0373 59.1733 60.6416C63.1114 65.2729 67.7534 70.7472 71.6965 75.3847V75.3879L72.2224 76.0044C72.7881 76.3812 73.5188 76.7861 74.4669 77.0893C75.1484 77.2901 75.9321 77.4878 76.9445 77.5388C77.7298 77.5824 78.5576 77.5707 79.5701 77.438H79.5864C81.0736 77.1943 82.7332 77.0024 84.0615 76.3018C85.8576 75.2957 86.2178 73.1878 86.2275 70.9448C86.2165 70.9247 86.2203 70.9062 86.191 70.8548C73.5812 75.5614 71.2761 66.6929 65.4274 57.7747L61.5798 59.5119C62.3303 58.4627 68.9896 49.8043 71.2463 47.607H71.2496C76.1144 43.1623 83.9029 41.6217 90.5344 42.0725C90.6544 41.5727 91.3677 38.5686 91.4284 38.3208L86.8746 34.6336L86.8747 34.6337Z" fill="#FEFEFE"/>
<path d="M57.9736 43.752C56.3813 44.2792 54.9471 44.7515 53.6322 45.144C55.0802 41.5886 50.5833 37.6416 43.9528 41.2416C37.0849 44.9705 32.8489 44.6947 29.5469 42.848C30.6585 45.2893 36.4017 47.38 41.6957 45.4737C44.2878 44.5401 46.75 43.3567 48.3677 43.0745C50.7386 42.6609 51.1963 44.9055 49.5672 45.7142C48.8739 46.0583 47.1495 46.5574 45.0577 46.0669C45.0065 46.0545 44.9555 46.043 44.9045 46.03C44.7811 45.9981 44.6573 45.965 44.5313 45.9263C47.1164 48.7624 52.1799 48.2062 55.4924 47.1213C58.6665 46.0822 62.7137 43.5583 66.8755 45.2587C65.549 43.1614 62.1928 42.3557 57.9737 43.7519L57.9736 43.752Z" fill="#B09570"/>
<path d="M65.0579 106.246V112.182C65.0579 112.279 65.0831 112.37 65.2099 112.546C65.3524 112.744 65.5778 112.848 65.8993 112.866L65.9128 112.867V107.086H67.732C67.5988 106.805 67.4664 106.527 67.3325 106.246H65.0579ZM51.7126 112.458C51.7263 112.488 51.8712 112.769 52.4088 112.842C51.4958 110.22 46.9539 97.1684 45.6829 93.5172C45.5338 93.0885 45.7862 92.7539 46.2444 92.7693C46.2492 92.7694 46.2536 92.7655 46.2536 92.7607V91.2587L45.3983 90.4157V91.9289L45.3644 91.9275C44.9185 91.9081 44.6712 92.2305 44.8149 92.6456C46.301 96.9293 51.5905 112.109 51.7125 112.458H51.7126ZM68.9039 96.3387C67.8136 96.2567 66.7239 96.2737 65.5709 96.2928C65.3762 96.2958 65.179 96.2992 64.9801 96.3018V99.6903C65.0617 99.6899 65.1425 99.6899 65.2235 99.6896C65.4304 99.6892 65.632 99.6892 65.8355 99.689V97.1421C66.0342 97.1394 66.2314 97.1362 66.4257 97.1329C67.5791 97.1144 68.6683 97.0968 69.759 97.1794C69.983 97.1961 70.1873 97.2496 70.3741 97.3305C70.0907 96.7412 69.5766 96.3893 68.904 96.3387H68.9039ZM30.1591 97.5016H30.797L31.2662 97.5103C31.2692 97.5107 31.2724 97.509 31.2741 97.5062L31.5324 97.115C31.5356 97.1105 31.8328 96.7004 32.1982 96.7004L32.5914 96.7003L32.8792 95.859L31.3433 95.8601C30.9778 95.8601 30.6806 96.2704 30.6778 96.2749L30.4159 96.6705L29.9417 96.6614H29.3004L30.1528 97.4994C30.1541 97.501 30.1565 97.5016 30.1592 97.5016L30.1591 97.5016ZM39.915 102.696L39.3593 100.848L38.2765 104.492H39.3814L39.915 102.696V102.696ZM20.851 100.55C21.1225 100.748 21.4337 100.999 21.7572 101.303C22.2399 100.476 22.7636 99.2048 22.7636 97.5746C22.7636 94.7659 21.3412 92.9549 20.1153 91.915C21.0638 92.9984 21.9083 94.5699 21.9083 96.7344C21.9083 98.4218 21.347 99.7265 20.8511 100.55L20.851 100.55ZM111.344 103.737C112.545 104.616 113.887 105.206 115.159 105.714C115.582 105.882 116.047 106.01 116.469 106.142C117.468 106.454 118.411 106.653 119.209 107.097C119.065 106.825 118.853 106.593 118.56 106.39C117.701 105.793 116.696 105.437 115.633 105.06C115.217 104.913 114.787 104.76 114.364 104.592C113.092 104.084 111.75 103.494 110.549 102.615C110.344 102.465 110.149 102.31 109.962 102.149C110.296 102.681 110.801 103.341 111.344 103.737V103.737ZM122.81 95.4956L122.28 95.6407C122.437 95.7444 122.569 95.8552 122.661 95.9726L123.014 96.5139L123.674 96.3335C123.854 96.2842 124.009 96.242 124.161 96.2066L125.033 96.0048L123.513 89.9916L122.658 89.1514L124.177 95.1636L123.307 95.3658C123.152 95.402 122.995 95.4452 122.81 95.4955V95.4956ZM79.0438 112.48C79.1434 112.646 79.2599 112.725 79.3199 112.755C79.4505 112.822 79.5807 112.848 79.6564 112.858C79.575 112.697 79.5006 112.544 79.4627 112.466L75.9378 105.057C76.374 104.708 76.7209 104.334 77.0095 104.024L77.0339 103.997C78.2432 102.582 78.9094 100.784 78.9094 98.9322C78.9094 96.5957 77.8437 94.4195 76.1003 92.9473C77.3301 94.3508 78.0543 96.1669 78.0543 98.092C78.0543 99.9435 77.3883 101.742 76.1789 103.156L76.1543 103.184C75.8663 103.494 75.5186 103.867 75.0823 104.216L78.608 111.626C78.685 111.786 78.9175 112.259 79.0437 112.48L79.0438 112.48ZM116.036 96.6821C116.024 96.6222 116.017 96.5603 116.017 96.4961C116.017 95.6238 117.25 95.2433 117.985 95.0942L118.016 95.0878C119.564 94.7698 121.14 95.0252 122.05 95.5053L121.808 95.1344C121.21 94.3799 119.16 93.8369 117.161 94.2476L117.13 94.254C116.395 94.4034 115.162 94.784 115.162 95.6553C115.162 96.1147 115.458 96.4594 116.036 96.6821H116.036ZM92.1743 96.8146L92.3789 96.4916L90.3932 93.4634C90.0877 92.9532 90.2344 92.6387 90.6091 92.6191V91.1935L89.7539 90.3528V91.779H89.7536C89.379 91.7983 89.1641 92.2081 89.367 92.5183L92.1743 96.8147V96.8146ZM43.1919 112.12C43.1093 111.897 43.0261 111.674 42.944 111.452L42.8802 111.28H35.9075L35.3875 112.738C35.315 112.941 35.4546 113.158 35.6732 113.18L36.0915 113.223L36.5153 112.126C36.5167 112.122 36.5116 112.11 36.5153 112.11L43.1918 112.12H43.1919ZM80.5948 113.705L80.5944 113.734L80.5941 115.225L70.5259 115.136L71.381 115.976L81.4492 116.066L81.4495 114.475L80.6654 113.705H80.5949H80.5948ZM98.0155 114.018C98.0145 114.018 98.0141 114.018 98.0135 114.018V115.529L87.2604 115.281L88.1154 116.121L98.8686 116.369V114.826L98.0466 114.019L98.0156 114.018L98.0155 114.018ZM125.479 101.316C127.005 103.008 127.862 105.146 127.862 107.486C127.862 112.323 124.205 115.53 120.807 116.464C119.525 116.816 118.224 116.991 116.908 116.991C114.26 116.991 111.553 116.278 108.817 114.858L109.673 115.698C112.408 117.118 115.116 117.832 117.764 117.832C119.079 117.832 120.38 117.656 121.662 117.304C125.06 116.371 128.717 113.163 128.717 108.326C128.717 105.579 127.536 103.112 125.479 101.316L125.479 101.316ZM106.576 90.793L106.576 90.7547L105.724 89.9173H105.721V89.9529C105.721 89.9545 105.719 90.228 105.721 90.522L105.726 91.3278L104.908 91.3933C104.655 91.4134 104.505 91.4525 104.379 91.537C104.348 91.5673 104.318 91.5977 104.287 91.6282C103.503 92.6526 102.876 93.729 102.209 94.8719C101.79 95.5914 101.357 96.335 100.884 97.0571C99.9745 98.448 99.0836 99.8909 98.2224 101.286C97.6906 102.148 97.141 103.038 96.5907 103.91C96.3972 104.217 96.3194 104.477 96.3219 104.81C96.3375 107.236 96.3338 111.996 96.333 112.501C96.3651 112.745 96.5185 113.155 97.1605 113.177L97.1884 113.178C97.1891 112.192 97.1911 107.909 97.1765 105.651C97.1748 105.317 97.2525 105.057 97.446 104.75C97.9965 103.878 98.5462 102.987 99.078 102.126C99.9392 100.731 100.83 99.2882 101.74 97.8971C102.212 97.1753 102.645 96.4318 103.064 95.7125C103.731 94.5694 104.358 93.4933 105.142 92.4682C105.173 92.4378 105.203 92.4076 105.234 92.3775C105.359 92.2926 105.511 92.2535 105.764 92.2334L106.581 92.1678L106.576 91.3621C106.575 91.0682 106.576 90.7945 106.576 90.7928L106.576 90.793ZM66.7354 113.703V115.132L57.5808 115.166L55.8587 115.182L56.7137 116.023L58.4359 116.006L67.5907 115.972V114.541C67.5907 114.541 66.7423 113.704 66.7355 113.703H66.7354ZM11.232 109.455V106.059L11.698 106.058C12.9141 106.058 14.0627 106.056 15.2277 106.065C15.6426 106.067 16.0916 106.173 16.5615 106.378C16.5788 106.386 16.5943 106.396 16.6112 106.404C16.4282 106.023 16.1148 105.718 15.7067 105.538C15.237 105.333 14.7875 105.227 14.3726 105.225C13.2046 105.215 12.0532 105.217 10.834 105.218L10.3773 105.219V109.487C10.5886 109.479 10.7997 109.471 11.01 109.463C11.085 109.461 11.1577 109.458 11.232 109.455V109.455ZM53.3006 113.686V115.167H50.7628L44.4773 115.248L43.4701 115.267L44.4023 116.103L54.1468 116.007C54.1517 116.007 54.1557 116.003 54.1557 115.998V114.541C54.1557 114.541 53.3055 113.687 53.3006 113.686V113.686ZM22.3069 101.868C23.3962 103.086 24.4483 104.925 24.4483 107.484C24.4483 111.734 21.4799 114.02 20.5703 114.619L20.5218 114.649C18.6544 115.714 17.8096 115.835 16.4108 116.035L16.3367 116.045C16.2368 116.059 15.2237 116.144 14.5469 116.182C13.9305 116.216 13.2064 116.252 12.4566 116.289C11.1925 116.351 9.88568 116.415 8.88281 116.483C6.88337 116.619 1.40615 116.891 1.35133 116.894L1.27734 116.898V116.916L2.11426 117.738L2.2067 117.734C2.26164 117.731 7.73803 117.459 9.7383 117.323C10.742 117.255 12.0508 117.191 13.3166 117.129C14.0644 117.092 14.7869 117.057 15.402 117.023C16.0667 116.986 17.0845 116.9 17.1921 116.886L17.2662 116.875C18.665 116.675 19.5099 116.554 21.3769 115.489L21.4252 115.459C22.3348 114.86 25.3033 112.574 25.3033 108.324C25.3033 105.086 23.6201 103.001 22.3069 101.868ZM11.2374 98.1613V96.1237C11.3168 96.1271 11.396 96.1301 11.4748 96.1335C12.3247 96.169 13.1268 96.2025 13.9141 96.3077C14.0553 96.3264 14.181 96.3576 14.2994 96.3951C14.1569 95.8698 13.7412 95.5575 13.059 95.4674C12.2722 95.3623 11.4704 95.3287 10.6214 95.2932C10.542 95.29 10.4622 95.2865 10.382 95.2831V98.1565C10.4649 98.1569 10.5479 98.1575 10.6301 98.1582C10.8351 98.1592 11.0372 98.1606 11.2374 98.1613L11.2374 98.1613ZM35.2325 115.441C35.1701 115.443 28.9645 115.619 26.7766 115.689L26.7472 115.69L26.736 115.69L26.2247 115.709L27.1012 116.549C27.1012 116.549 36.0252 116.283 36.0876 116.282L36.9378 116.258C36.943 116.258 36.9468 116.254 36.9468 116.249V114.081L36.0916 113.223V115.417L35.2325 115.442V115.441Z" fill="#B09570"/>
<path d="M120.452 99.0946C119.575 98.7942 116.258 97.6933 115.794 97.5251C115.593 97.4521 114.274 97.0007 114.274 95.6553C114.274 93.9075 116.58 93.4782 116.976 93.3971C119.148 92.9501 121.617 93.4838 122.495 94.591C122.514 94.6155 122.532 94.6396 122.548 94.6641C122.754 94.6078 122.928 94.56 123.099 94.52L121.758 89.2107C121.415 89.018 119.535 88.5172 117.247 88.6586C114.771 88.8114 112.524 89.5991 110.592 91.151C109.465 92.0566 108.604 93.1622 108.25 94.5841C107.553 97.379 108.621 100.127 111.073 101.917C112.18 102.728 113.42 103.279 114.692 103.786C116.171 104.375 117.745 104.763 119.066 105.679C119.889 106.25 120.347 107.057 120.318 108.227C120.298 109.033 119.679 110.202 118.601 110.671C117.59 111.11 116.52 111.23 115.435 111.086C114.001 110.899 112.658 110.522 111.415 109.943C110.102 109.334 108.138 107.904 107.686 106.979C107.514 107.025 107.336 107.068 107.113 107.122L108.815 113.872C112.547 115.907 116.489 116.746 120.565 115.627C123.954 114.696 126.974 111.61 126.974 107.486C126.974 103.361 124.159 100.369 120.452 99.0946H120.452Z" fill="#1E3659"/>
<path d="M50.8775 112.746C50.7896 112.495 44.4979 94.4148 43.7356 92.2243C43.6786 92.0614 43.6554 91.9954 43.6602 92.0078C43.6108 91.0551 44.5135 91.0234 44.5135 91.0234V90.444C44.5135 90.444 35.4271 90.274 31.2785 90.1562C30.8976 91.2296 29.3516 95.7926 29.3516 95.7926H29.9414C29.9414 95.7926 30.4709 94.991 31.3423 94.991C31.3433 94.991 34.1087 94.9895 34.1087 94.9895L28.1575 112.395C27.6225 113.824 27.159 114.159 26.2578 114.241V114.838L26.7287 114.821C26.7349 114.821 26.7403 114.821 26.747 114.821C28.9618 114.749 35.2064 114.573 35.2064 114.573V114.008C34.2194 113.91 34.29 113.186 34.3411 113.041C34.3927 112.897 34.9568 111.317 35.2799 110.411H43.4979C43.786 111.184 44.0836 111.994 44.3731 112.76C44.4279 112.906 44.3687 113.212 44.308 113.347C44.0883 113.836 43.5282 113.817 43.5282 113.817V114.396L44.4651 114.379L50.7619 114.298H52.4157V113.718C51.3851 113.628 50.9705 113.013 50.8774 112.746L50.8775 112.746ZM37.0962 105.361C37.8241 102.912 38.5537 100.457 39.2837 98.0012C39.3327 98.0078 39.3818 98.0142 39.4313 98.0207C40.1575 100.435 40.8826 102.848 41.6381 105.361H37.0962V105.361Z" fill="#1E3659"/>
<path d="M19.6143 100.789C19.688 100.693 21.0258 99.1744 21.0258 96.7355C21.0258 92.798 17.8528 91.1177 17.5484 90.9369C16.0749 90.054 14.4632 89.755 12.7422 89.5481C9.47432 89.1537 6.31757 89.0927 2.88447 88.8852L1.41801 88.7783V89.3722C2.36623 89.5333 2.87659 90.1736 2.92842 91.0262V113.632C2.92842 114.774 2.14287 115.417 1.30859 115.448V116.027C1.30859 116.027 6.80931 115.754 8.82421 115.618C10.4379 115.508 12.8534 115.407 14.4988 115.316C15.1953 115.277 16.1662 115.193 16.2116 115.187C17.6337 114.983 18.3295 114.897 20.0799 113.898C21.6576 112.859 23.5659 110.668 23.5659 107.485C23.5659 102.9 19.7832 100.884 19.6144 100.789H19.6143ZM9.49994 94.371C10.7611 94.4457 11.9816 94.4474 13.1793 94.6071C14.3999 94.769 15.1005 95.5043 15.2221 96.5087C15.4132 98.0715 14.6368 98.9804 13.0324 99.0185C11.8756 99.0465 10.7188 99.0239 9.5 99.0239V94.371H9.49994ZM14.5963 110.15C12.9192 110.284 11.2315 110.317 9.49436 110.395V104.351C11.177 104.351 12.7793 104.345 14.38 104.357C14.9676 104.36 15.5372 104.513 16.0695 104.746C17.8295 105.52 18.2259 107.783 16.8511 109.123C16.2231 109.733 15.4413 110.08 14.5963 110.15V110.15Z" fill="#1E3659"/>
<path d="M95.6229 90.2306V90.7985C96.4129 90.7985 96.6092 91.6467 96.4122 91.9961C95.0379 94.0758 93.6244 96.2143 92.1686 98.4163C90.7434 96.2353 89.3838 94.1538 88.0872 92.1695C87.8788 91.783 88.0299 90.9978 88.8684 90.9542V90.3749L79.1602 90.5388V91.1184C79.6518 91.125 80.1506 91.3263 80.514 91.7836C83.2033 95.7103 85.895 99.6354 88.5989 103.552C88.8748 103.951 88.9845 104.353 88.9817 104.831C88.9675 107.297 88.9737 109.762 88.9719 112.228C88.9204 113.125 88.184 113.804 87.2818 113.804V114.412L97.1276 114.639V114.046C95.5509 113.991 95.447 112.544 95.447 112.544C95.447 112.544 95.4523 107.392 95.4357 104.816C95.4323 104.304 95.5679 103.881 95.8377 103.452L103.309 91.4996C103.377 91.3942 103.576 91.0865 103.678 90.9794C104.039 90.6434 104.436 90.5586 104.835 90.5268C104.834 90.2267 104.835 89.9473 104.835 89.9473L95.6229 90.2306L95.6229 90.2306Z" fill="#1E3659"/>
<path d="M79.7108 113.733C79.7108 113.733 79.3218 113.734 78.9131 113.526C78.6794 113.406 78.4511 113.202 78.2741 112.906C78.1047 112.609 77.8078 111.993 77.8078 111.993L73.9746 103.937C73.9746 103.937 74.1874 103.793 74.304 103.71C74.7779 103.371 75.144 102.982 75.5027 102.597C76.545 101.378 77.1709 99.8052 77.1709 98.0913C77.1709 95.0707 75.2255 92.4959 72.4991 91.5103L72.4977 91.5055C70.8101 90.8831 69.0484 90.725 67.262 90.7179C64.2081 90.7063 55.8789 90.6455 55.8789 90.6455V91.208C55.8789 91.208 57.4477 91.1976 57.5645 92.8643C57.5645 92.8642 57.5641 111.973 57.5641 111.973C57.5641 112.518 57.3232 112.962 57.0811 113.223C56.5816 113.762 55.8828 113.733 55.8828 113.733V114.313L57.5735 114.296V114.295L65.8523 114.266V113.733C65.2073 113.698 64.7604 113.424 64.4897 113.048C64.3048 112.791 64.1754 112.526 64.1754 112.182V105.376H67.8968C69.0265 107.75 70.141 110.093 71.2534 112.432C71.5873 113.123 71.0325 113.686 70.4931 113.686V114.266L79.7109 114.348V113.733L79.7108 113.733ZM67.5818 100.561C66.4532 100.553 65.3247 100.56 64.0971 100.56V95.4389C65.7387 95.4389 67.3624 95.3504 68.9721 95.4719C70.0212 95.5502 70.8894 96.1602 71.2809 97.1961C71.8059 98.5917 70.9781 99.9721 69.3985 100.401C68.804 100.563 68.1942 100.566 67.5818 100.561Z" fill="#1E3659"/>
</svg>
